<?xml version="1.0" encoding="UTF-8" standalone="no"?>
<!-- Generator: Adobe Illustrator 15.1.0, SVG Export Plug-In . SVG Version: 6.00 Build 0)  -->

<svg
   xmlns:dc="http://purl.org/dc/elements/1.1/"
   xmlns:cc="http://creativecommons.org/ns#"
   xmlns:rdf="http://www.w3.org/1999/02/22-rdf-syntax-ns#"
   xmlns:svg="http://www.w3.org/2000/svg"
   xmlns="http://www.w3.org/2000/svg"
   xmlns:sodipodi="http://sodipodi.sourceforge.net/DTD/sodipodi-0.dtd"
   xmlns:inkscape="http://www.inkscape.org/namespaces/inkscape"
   version="1.1"
   id="Livello_1"
   x="0px"
   y="0px"
   width="425.2px"
   height="283.46px"
   viewBox="0 0 425.2 283.46"
   enable-background="new 0 0 425.2 283.46"
   xml:space="preserve"
   inkscape:version="0.48.1 r9760"
   sodipodi:docname="gato preto_04.svg"><metadata
   id="metadata27"><rdf:RDF><cc:Work
       rdf:about=""><dc:format>image/svg+xml</dc:format><dc:type
         rdf:resource="http://purl.org/dc/dcmitype/StillImage" /></cc:Work></rdf:RDF></metadata><defs
   id="defs25">
	
	
	
	
	
	
	
	
	
</defs><sodipodi:namedview
   pagecolor="#ffffff"
   bordercolor="#666666"
   borderopacity="1"
   objecttolerance="10"
   gridtolerance="10"
   guidetolerance="10"
   inkscape:pageopacity="0"
   inkscape:pageshadow="2"
   inkscape:window-width="640"
   inkscape:window-height="480"
   id="namedview23"
   showgrid="false"
   inkscape:zoom="0.95251537"
   inkscape:cx="212.60001"
   inkscape:cy="141.73"
   inkscape:window-x="0"
   inkscape:window-y="24"
   inkscape:window-maximized="0"
   inkscape:current-layer="Livello_1" />
<path
   style="stroke:#000000;stroke-width:3.99999976"
   d="M 178.90625 49.46875 C 178.73953 49.480234 178.57475 49.5325 178.40625 49.59375 C 177.73125 49.77775 177.50375 50.4285 177.71875 51.5625 C 177.93275 52.6975 178.32325 53.965 178.90625 55.375 C 179.48825 56.787 180.10625 58.1825 180.78125 59.5625 C 181.45525 60.9425 181.97575 61.9505 182.34375 62.5625 C 182.09775 64.2185 181.80475 66.233 181.46875 68.625 C 181.13075 71.017 180.77425 73.552 180.40625 76.25 C 180.03825 78.95 179.67925 81.6775 179.28125 84.4375 C 178.88125 87.1975 178.493 89.7955 178.125 92.1875 C 177.757 94.5795 177.43225 96.65975 177.15625 98.46875 C 176.88025 100.27875 176.6855 101.579 176.5625 102.375 L 175.1875 102.46875 C 174.6955 102.59275 174.243 102.7535 173.875 102.9375 C 173.567 103.1215 173.27475 103.34875 172.96875 103.59375 C 172.66075 103.83975 172.46625 104.132 172.40625 104.5 C 172.34425 105.176 172.507 105.6945 172.875 106.0625 C 173.059 106.3085 173.28525 106.47125 173.53125 106.53125 L 175.90625 106.53125 C 175.72225 107.94325 175.5265 109.53475 175.3125 111.34375 C 175.0975 113.15375 174.9355 114.87475 174.8125 116.46875 C 174.6285 118.37075 174.46675 120.25625 174.34375 122.15625 C 174.40475 122.64825 174.5665 123.10075 174.8125 123.46875 C 174.9965 123.77475 175.22325 124.06775 175.53125 124.34375 C 175.83725 124.61975 176.258 124.75 176.75 124.75 C 178.896 124.75 179.96875 124.2295 179.96875 123.1875 C 179.96875 122.6975 179.83875 122.27425 179.59375 121.90625 C 179.46975 121.72225 179.3725 121.5615 179.3125 121.4375 C 179.3125 120.1495 179.34425 118.68975 179.40625 117.09375 C 179.46725 115.74575 179.533 114.18625 179.625 112.40625 C 179.717 110.62825 179.84475 108.71 179.96875 106.625 L 198.53125 106.90625 L 204.0625 120.15625 C 204.6755 120.83125 205.324 121.41625 206 121.90625 C 206.552 122.39825 207.16875 122.789 207.84375 123.125 C 208.51775 123.463 209.199 123.6245 209.875 123.5625 C 210.181 123.5625 210.27975 123.23775 210.21875 122.59375 C 210.15575 121.94975 209.99375 121.13825 209.71875 120.15625 C 209.44275 119.17525 209.0525 118.03925 208.5625 116.78125 C 208.0715 115.52525 207.553 114.25675 207 112.96875 C 205.713 109.96375 204.11975 106.52025 202.21875 102.65625 L 186.5 62.65625 L 188.96875 51.15625 C 187.55675 51.15625 186.453 51.64425 185.625 52.65625 C 184.797 53.66825 184.1805 54.708 183.8125 55.75 L 183.5625 55.28125 C 183.1325 54.05525 182.6145 52.9825 182.0625 52.0625 C 181.5705 51.2665 181.019 50.58325 180.375 50.03125 C 179.892 49.61725 179.40641 49.434297 178.90625 49.46875 z M 224 49.5 C 223.55188 49.55175 223.2135 49.69925 222.9375 49.90625 C 222.5695 50.18225 222.27775 50.47525 222.09375 50.78125 C 221.84775 51.14925 221.71875 51.60425 221.71875 52.15625 L 221.8125 52.625 L 207.46875 53.15625 C 206.79275 53.15625 206.20875 53.28625 205.71875 53.53125 C 205.29075 53.71525 204.89925 54.007 204.53125 54.375 C 204.16325 54.743 204.03425 55.23175 204.15625 55.84375 C 204.21925 56.45775 204.4445 56.914 204.8125 57.25 C 205.1805 57.587 205.571 57.8145 206 57.9375 C 206.49 58.1835 207.04325 58.3125 207.65625 58.3125 L 222.375 57.84375 C 222.375 59.43975 222.505 61.77775 222.75 64.84375 C 222.995 67.91175 223.28825 71.32175 223.65625 75.09375 C 224.02325 78.86575 224.41375 82.8295 224.84375 86.9375 C 225.27275 91.0475 225.72625 94.945 226.15625 98.625 C 226.58525 102.305 226.976 105.55425 227.375 108.40625 C 227.774 111.25825 228.09775 113.337 228.34375 114.625 C 229.01875 118.551 229.863 121.11775 230.875 122.34375 C 231.887 123.57175 232.92475 123.9905 233.96875 123.5625 C 234.52075 123.3785 234.942 123.08675 235.25 122.71875 C 235.556 122.35075 235.68625 121.76575 235.65625 120.96875 C 235.62425 120.17275 235.462 119.1325 235.125 117.8125 C 234.788 116.4945 234.235 114.7735 233.5 112.6875 C 233.132 111.5835 232.7415 109.766 232.3125 107.25 C 231.8825 104.736 231.4605 101.8445 231.0625 98.5625 C 230.6635 95.2825 230.272 91.7415 229.875 87.9375 C 229.475 84.1355 229.087 80.3995 228.75 76.6875 C 228.412 72.9775 228.11975 69.4695 227.84375 66.1875 C 227.56775 62.9075 227.34125 60.11325 227.15625 57.78125 L 241.875 57.125 C 242.487 57.125 243.04025 56.996 243.53125 56.75 C 243.95925 56.566 244.3495 56.3055 244.6875 55.9375 C 245.0245 55.5695 245.1875 55.051 245.1875 54.375 C 245.1875 53.762 244.993 53.2755 244.625 52.9375 C 244.257 52.6015 243.8665 52.374 243.4375 52.25 C 242.8855 52.066 242.2995 51.96875 241.6875 51.96875 L 226.6875 52.4375 L 226.6875 52.15625 C 226.6265 51.54325 226.49625 51.0555 226.28125 50.6875 C 226.06625 50.3195 225.806 50.02775 225.5 49.84375 C 225.192 49.59975 224.868 49.5 224.5 49.5 C 224.3315 49.5 224.14937 49.48275 224 49.5 z M 259.6875 50.5625 C 259.427 50.547 259.24675 50.5955 259.09375 50.6875 C 256.14975 51.3625 253.5855 52.95475 251.4375 55.46875 C 250.5175 56.57275 249.6405 57.906 248.8125 59.5 C 247.9855 61.095 247.26825 63.0435 246.65625 65.3125 C 246.04225 67.5815 245.619 70.21475 245.375 73.21875 C 245.129 76.22475 245.16075 79.701 245.46875 83.625 C 246.02075 91.477 247.05975 97.97425 248.59375 103.15625 C 250.12675 108.34025 251.9465 112.49775 254.0625 115.59375 C 256.1785 118.69175 258.45225 120.8355 260.90625 122.0625 C 263.35925 123.2905 265.7955 123.809 268.1875 123.625 C 270.4555 123.441 272.6315 122.37025 274.6875 120.40625 C 276.7405 118.44325 278.4315 115.779 279.8125 112.375 C 281.1915 108.971 282.16675 104.975 282.71875 100.375 C 283.27075 95.775 283.237 90.74025 282.625 85.28125 C 282.625 84.60725 282.59125 83.926 282.53125 83.25 C 282.46925 82.698 282.4045 82.11275 282.3125 81.46875 C 282.2205 80.82475 282.123 80.242 282 79.75 C 281.755 78.77 281.2665 77.145 280.5625 74.875 C 279.8565 72.607 278.9465 70.201 277.8125 67.625 C 276.6765 65.049 275.3445 62.58075 273.8125 60.21875 C 272.2785 57.85875 270.55625 56.07225 268.65625 54.90625 C 266.50925 53.55725 264.78725 52.58275 263.53125 51.96875 C 262.27425 51.35575 261.33125 50.96525 260.65625 50.78125 C 260.28825 50.65925 259.948 50.578 259.6875 50.5625 z M 144.8125 50.96875 C 144.5055 50.96875 144.17975 51.0355 143.84375 51.1875 C 143.50575 51.3415 143.2465 51.66625 143.0625 52.15625 C 142.8785 52.64825 142.7145 53.49275 142.5625 54.71875 C 142.4095 55.94675 142.2465 57.4395 142.0625 59.1875 C 141.8785 60.9355 141.651 62.8535 141.375 64.9375 C 141.099 67.0235 140.677 69.13525 140.125 71.28125 C 139.633 73.42925 138.69125 75.508 137.28125 77.5 C 135.87025 79.494 134.44 81.31275 133 82.96875 C 131.559 84.62475 130.29175 86.08775 129.21875 87.34375 C 128.14475 88.60175 127.6885 89.60775 127.8125 90.34375 C 127.8725 90.77375 128.78375 91.94375 130.59375 93.84375 C 132.40175 95.74575 134.67725 97.98775 137.40625 100.59375 C 140.13425 103.20175 143.12375 105.96225 146.34375 108.90625 C 149.56375 111.85025 152.616 114.6115 155.5 117.1875 L 155.5 117.09375 L 155.75 117.375 C 156.792 118.419 157.798 119.392 158.75 120.25 C 159.7 121.11 160.60975 121.889 161.46875 122.625 C 162.14275 122.993 162.79225 123.28475 163.40625 123.46875 C 164.01825 123.65275 164.60425 123.6865 165.15625 123.5625 C 165.70825 123.4405 166.195 123.1475 166.625 122.6875 C 167.054 122.2275 167.379 121.482 167.625 120.5 C 167.809 118.599 168.0035 116.45525 168.1875 114.03125 C 168.3715 111.60825 168.5335 109.141 168.6875 106.625 C 168.8405 104.111 168.9705 101.642 169.0625 99.25 C 169.1545 96.858 169.218 94.7145 169.25 92.8125 C 169.28 90.9125 169.24825 89.38475 169.15625 88.21875 C 169.06425 87.05475 168.90025 86.437 168.65625 86.375 C 168.28825 86.315 167.28125 86.41225 165.65625 86.65625 C 164.03025 86.90225 162.21175 87.22825 160.21875 87.65625 C 158.22475 88.08625 156.3075 88.50825 154.4375 88.90625 C 152.5655 89.30625 151.20175 89.59725 150.34375 89.78125 C 150.89575 90.14925 151.5785 90.5725 152.4375 91.0625 C 153.2955 91.5545 154.334 91.97575 155.5 92.34375 C 156.664 92.71175 157.96425 93.00425 159.40625 93.15625 C 160.84625 93.31025 162.37525 93.21425 164.03125 92.90625 L 162.21875 116 L 133.5 89.40625 C 135.892 87.69025 138.06825 85.383 140.03125 82.5 C 141.68725 80.108 143.18125 77.0215 144.53125 73.1875 C 145.87925 69.3555 146.626 64.67625 146.75 59.15625 C 147.24 61.42625 148.05225 63.44075 149.15625 65.21875 C 150.13625 66.75275 151.5025 68.11775 153.3125 69.34375 C 155.1205 70.57175 157.52475 71.1875 160.46875 71.1875 C 160.89775 71.1875 161.32 71.15575 161.75 71.09375 C 162.178 71.03275 162.633 70.96775 163.125 70.84375 C 161.101 69.98575 159.0865 68.491 157.0625 66.375 C 155.0385 64.259 153.18725 62.05125 151.53125 59.78125 C 149.56725 57.14525 147.68425 54.318 145.90625 51.25 C 145.53825 51.066 145.1805 50.96875 144.8125 50.96875 z M 260.1875 56.5625 C 262.2125 56.4405 264.029 56.92725 265.625 58.03125 C 267.219 59.13525 268.617 60.5645 269.875 62.3125 C 271.132 64.0605 272.2035 65.9785 273.0625 68.0625 C 273.9205 70.1485 274.63475 72.13 275.21875 74 C 275.80075 75.872 276.224 77.49575 276.5 78.84375 C 276.777 80.19375 276.96925 80.97375 277.03125 81.21875 L 277.375 83.53125 C 277.988 89.41925 278.1815 94.781 277.9375 99.625 C 277.8145 101.711 277.58725 103.75725 277.28125 105.78125 C 276.97325 107.80525 276.519 109.69025 275.875 111.40625 C 275.231 113.12425 274.387 114.58525 273.375 115.78125 C 272.363 116.97725 271.12825 117.757 269.65625 118.125 C 268.18325 118.493 266.81925 118.493 265.53125 118.125 C 264.24325 117.757 263.04075 117.14125 261.96875 116.28125 C 260.89575 115.42325 259.91925 114.35175 259.03125 113.09375 C 258.14125 111.83775 257.32975 110.5375 256.59375 109.1875 C 254.93775 105.9985 253.54 102.23 252.375 97.875 C 253.233 99.531 254.2085 100.961 255.3125 102.125 C 256.1705 103.169 257.179 104.079 258.375 104.875 C 259.572 105.673 260.838 105.999 262.125 105.875 C 263.413 105.691 264.5835 105.30175 265.6875 104.71875 C 266.7905 104.13675 267.76575 103.29225 268.59375 102.15625 C 269.42275 101.02225 270.07025 99.56 270.53125 97.75 C 270.99125 95.942 271.21875 93.7005 271.21875 91.0625 C 271.15775 88.4265 271.05825 85.98875 270.90625 83.71875 C 270.75225 81.45075 270.39575 79.46925 269.84375 77.78125 C 269.29275 76.09525 268.47925 74.795 267.40625 73.875 C 266.33325 72.955 264.87125 72.53275 263.03125 72.59375 C 261.12825 72.65475 259.7655 73.2085 258.9375 74.3125 C 258.1095 75.4165 257.557 76.61825 257.25 77.90625 C 256.943 79.50225 256.84475 81.25625 256.96875 83.15625 C 257.15275 84.32225 257.6395 85.3295 258.4375 86.1875 C 259.1125 86.9235 260.11875 87.6055 261.46875 88.1875 C 262.81775 88.7715 264.668 88.999 267 88.875 C 266.937 91.023 266.77625 92.87475 266.53125 94.46875 C 266.22325 95.88075 265.802 97.17975 265.25 98.34375 C 264.698 99.50975 263.854 100.15925 262.75 100.28125 C 262.013 100.34325 261.23425 100.08325 260.40625 99.53125 C 259.57825 98.97925 258.76575 98.26625 257.96875 97.40625 C 257.17075 96.54825 256.4235 95.60525 255.6875 94.53125 C 254.9505 93.45925 254.302 92.38675 253.75 91.34375 C 253.197 90.30175 252.74225 89.359 252.40625 88.5 C 252.06825 87.642 251.8735 87.02425 251.8125 86.65625 C 251.7515 86.28825 251.6225 85.28125 251.4375 83.65625 C 251.2545 82.03125 251.1225 80.11425 251.0625 77.90625 C 251.0005 75.69825 251.06475 73.3915 251.21875 70.9375 C 251.37075 68.4855 251.76125 66.1785 252.40625 64.0625 C 253.05025 61.9465 253.99075 60.19325 255.21875 58.78125 C 256.44475 57.37125 258.1015 56.6245 260.1875 56.5625 z M 185.21875 69.8125 L 196.71875 102.28125 L 180.25 102.375 C 180.434 100.535 180.6945 98.26 181.0625 95.5 C 181.4305 92.74 181.85175 89.817 182.34375 86.75 C 182.83375 83.684 183.354 80.63 183.875 77.625 C 184.396 74.621 184.85075 72.0205 185.21875 69.8125 z M 264.03125 77.40625 C 264.46025 77.43825 264.84825 77.5685 265.15625 77.8125 C 265.46225 78.0585 265.7215 78.38325 265.9375 78.78125 C 266.1515 79.18025 266.3145 79.53675 266.4375 79.84375 C 266.6825 80.64075 266.747 81.48575 266.625 82.34375 C 266.562 82.83575 266.4985 83.3225 266.4375 83.8125 C 265.8865 83.8745 265.367 83.8745 264.875 83.8125 C 264.445 83.8125 264.02175 83.74825 263.59375 83.65625 C 263.16375 83.56425 262.84025 83.40225 262.65625 83.15625 C 262.41025 82.91225 262.1815 82.58625 261.9375 82.15625 C 261.6915 81.72825 261.5295 81.27325 261.4375 80.78125 C 261.3455 80.29125 261.347 79.772 261.5 79.25 C 261.653 78.729 262.0095 78.27425 262.5625 77.90625 C 263.1145 77.53825 263.60125 77.37625 264.03125 77.40625 z M 117.34375 158.8125 C 116.91241 158.83542 116.427 159.11875 115.875 159.625 C 115.384 160.055 115.05825 161.06225 114.90625 162.65625 C 114.75225 164.25225 114.71925 166.1695 114.78125 168.4375 C 114.84225 170.7075 115.004 173.20825 115.25 175.90625 C 115.495 178.60625 115.788 181.2695 116.125 183.9375 C 116.461 186.6055 116.78575 189.13825 117.09375 191.53125 C 117.39975 193.92225 117.66025 195.93875 117.90625 197.59375 C 118.15025 199.31175 118.47625 201.292 118.90625 203.5 C 119.33425 205.708 119.85425 207.98375 120.40625 210.34375 C 120.95825 212.70575 121.51075 215.04375 122.09375 217.34375 C 122.67575 219.64375 123.22675 221.75625 123.71875 223.65625 C 124.20975 225.55825 124.6005 227.1495 124.9375 228.4375 C 125.2735 229.7265 125.46925 230.5055 125.53125 230.8125 C 125.77625 231.7325 126.22975 232.4475 126.84375 232.9375 C 127.45575 233.4295 128.463 233.78725 129.875 234.03125 C 130.549 234.15325 131.03575 234.12225 131.34375 233.90625 C 131.64975 233.69225 131.84475 233.433 131.96875 233.125 C 132.09075 232.819 132.1225 232.4285 132.0625 231.9375 C 131.7545 230.8345 131.33325 229.4055 130.78125 227.6875 C 130.28925 226.2155 129.70525 224.331 129.03125 222 C 128.35525 219.669 127.51075 216.746 126.46875 213.25 L 126.5625 213.25 C 126.4385 213.006 126.375 212.8105 126.375 212.6875 C 126.313 212.6265 126.28125 212.562 126.28125 212.5 L 132.15625 206.90625 C 133.50525 205.55825 134.90175 204.09425 136.34375 202.53125 C 137.78375 200.96625 139.1165 199.47325 140.3125 198.03125 C 141.5085 196.59025 142.51575 195.22675 143.34375 193.96875 C 144.17175 192.71275 144.65725 191.70475 144.78125 190.96875 C 145.02625 189.74375 144.7005 188.44225 143.8125 187.03125 C 142.9225 185.61925 141.7865 184.225 140.4375 182.875 C 139.0875 181.527 137.65825 180.2575 136.15625 179.0625 C 134.65325 177.8665 133.354 176.859 132.25 176 C 131.452 175.387 130.51025 174.51025 129.40625 173.40625 C 128.30225 172.30225 127.1965 171.13425 126.0625 169.90625 C 124.9275 168.67925 123.7915 167.47625 122.6875 166.28125 C 121.5835 165.08525 120.63975 164.01375 119.84375 163.09375 L 119.9375 162.09375 C 119.6915 161.17375 119.368 160.428 119 159.875 C 118.693 159.384 118.30225 159.059 117.78125 158.875 C 117.65075 158.829 117.48753 158.80486 117.34375 158.8125 z M 151.15625 158.90625 C 150.70775 158.92941 150.20825 159.21325 149.65625 159.71875 C 149.16525 160.14875 148.8395 161.156 148.6875 162.75 C 148.5335 164.346 148.46925 166.26225 148.53125 168.53125 C 148.59125 170.80025 148.754 173.302 149 176 C 149.245 178.699 149.53575 181.363 149.84375 184 C 150.14975 186.638 150.4745 189.13825 150.8125 191.53125 C 151.1485 193.92225 151.41025 195.93875 151.65625 197.59375 C 151.84025 199.31175 152.16375 201.29325 152.59375 203.53125 C 153.02175 205.77025 153.51025 208.0775 154.03125 210.4375 C 154.55125 212.7995 155.1045 215.1375 155.6875 217.4375 C 156.2695 219.7375 156.79 221.851 157.25 223.75 C 157.71 225.652 158.0995 227.2455 158.4375 228.5625 C 158.7735 229.8825 158.96925 230.693 159.03125 231 C 159.33725 231.859 159.79225 232.54125 160.40625 233.03125 C 161.01825 233.52225 161.99375 233.91275 163.34375 234.21875 C 164.01775 234.34075 164.53825 234.27525 164.90625 234.03125 C 165.27425 233.78725 165.53225 233.52675 165.65625 233.21875 C 165.84025 232.91275 165.873 232.492 165.75 232 C 165.382 230.958 164.927 229.593 164.375 227.875 C 163.883 226.403 163.299 224.48575 162.625 222.09375 C 161.95 219.70075 161.105 216.746 160.125 213.25 L 183.875 232.75 C 184.671 233.242 185.42025 233.59975 186.15625 233.84375 C 186.83025 234.08975 187.47975 234.28225 188.09375 234.40625 C 188.70675 234.52825 189.258 234.46275 189.75 234.21875 C 190.056 233.91275 190.41325 233.4905 190.78125 232.9375 C 191.14925 232.3865 191.47325 231.866 191.78125 231.375 C 192.08725 230.763 192.3795 230.14425 192.6875 229.53125 L 191.21875 229.90625 C 190.78875 230.03025 190.39925 230.095 190.03125 230.125 C 189.66325 230.156 189.40275 230.123 189.21875 230 C 189.09475 229.939 188.47925 229.484 187.40625 228.625 C 186.33225 227.766 185 226.66275 183.375 225.34375 C 181.749 224.02575 179.93075 222.59525 177.96875 221.03125 C 176.00475 219.46725 174.12125 217.908 172.28125 216.375 C 170.44125 214.843 168.7515 213.44425 167.1875 212.15625 C 165.6235 210.86825 164.38925 209.8625 163.53125 209.1875 C 164.94125 207.8385 166.469 206.31175 168.125 204.59375 C 169.781 202.87875 171.37175 201.1555 172.84375 199.4375 C 174.31575 197.7205 175.55075 196.12825 176.59375 194.65625 C 177.63575 193.18325 178.2535 192.01525 178.4375 191.15625 C 178.6815 189.86825 178.38925 188.53625 177.53125 187.15625 C 176.67125 185.77625 175.56675 184.4125 174.21875 183.0625 C 172.86875 181.7145 171.407 180.44675 169.875 179.21875 C 168.341 177.99175 167.0415 176.95275 165.9375 176.09375 C 165.1395 175.48175 164.197 174.604 163.125 173.5 C 162.051 172.396 160.9465 171.228 159.8125 170 C 158.6775 168.773 157.57275 167.5405 156.46875 166.3125 C 155.36475 165.0855 154.38975 164.01375 153.59375 163.09375 L 153.78125 162.1875 C 153.53525 161.2675 153.243 160.52175 152.875 159.96875 C 152.567 159.47775 152.14575 159.15275 151.59375 158.96875 C 151.45575 158.92275 151.30575 158.89853 151.15625 158.90625 z M 237.40625 159.875 C 236.73225 159.875 236.21175 160.0375 235.84375 160.3125 C 235.47575 160.5875 235.21525 160.8815 235.03125 161.1875 C 234.78525 161.5555 234.65625 162.0105 234.65625 162.5625 L 234.75 163 L 220.40625 163.5625 C 219.73025 163.5625 219.14625 163.6925 218.65625 163.9375 C 218.22825 164.1205 217.8055 164.382 217.4375 164.75 C 217.0695 165.118 216.97175 165.60775 217.09375 166.21875 C 217.15675 166.83375 217.35075 167.31925 217.71875 167.65625 C 218.08675 167.99325 218.47725 168.22175 218.90625 168.34375 C 219.39625 168.58975 219.9495 168.71875 220.5625 168.71875 L 235.28125 168.25 C 235.28125 169.846 235.41125 172.184 235.65625 175.25 C 235.90125 178.318 236.22575 181.729 236.59375 185.5 C 236.96075 189.272 237.35125 193.23575 237.78125 197.34375 C 238.21025 201.45375 238.6325 205.32 239.0625 209 C 239.4915 212.681 239.9135 215.9605 240.3125 218.8125 C 240.7115 221.6655 241.03525 223.74325 241.28125 225.03125 C 241.95625 228.95725 242.8005 231.523 243.8125 232.75 C 244.8245 233.977 245.831 234.3655 246.875 233.9375 C 247.427 233.7535 247.8795 233.493 248.1875 233.125 C 248.4935 232.757 248.62375 232.173 248.59375 231.375 C 248.56175 230.578 248.36825 229.5065 248.03125 228.1875 C 247.69425 226.8695 247.1725 225.17975 246.4375 223.09375 C 246.0695 221.98975 245.64775 220.17225 245.21875 217.65625 C 244.78875 215.14225 244.398 212.25075 244 208.96875 C 243.601 205.68875 243.17825 202.14775 242.78125 198.34375 C 242.38125 194.54175 242.0245 190.7735 241.6875 187.0625 C 241.3495 183.3515 241.05725 179.87475 240.78125 176.59375 C 240.50525 173.31375 240.27875 170.48725 240.09375 168.15625 L 254.8125 167.53125 C 255.4245 167.53125 255.97775 167.40125 256.46875 167.15625 C 256.89675 166.97225 257.25575 166.6805 257.59375 166.3125 C 257.93075 165.9445 258.125 165.426 258.125 164.75 C 258.125 164.137 257.9305 163.68175 257.5625 163.34375 C 257.1945 163.00775 256.804 162.78025 256.375 162.65625 C 255.823 162.47325 255.237 162.375 254.625 162.375 L 239.625 162.84375 L 239.625 162.5625 C 239.564 161.9495 239.43375 161.46175 239.21875 161.09375 C 239.00375 160.72575 238.7435 160.435 238.4375 160.25 C 238.1295 160.005 237.77425 159.875 237.40625 159.875 z M 193.59375 160.40625 C 193.51338 160.41016 193.42025 160.41438 193.34375 160.4375 C 192.11675 160.7445 191.2725 161.2015 190.8125 161.8125 C 190.3525 162.4265 190.254 163.30225 190.5 164.40625 C 190.622 164.95925 190.68675 166.16025 190.71875 168.03125 C 190.74875 169.90225 190.68325 171.981 190.53125 174.25 C 190.37725 176.52 190.14975 178.762 189.84375 181 C 189.53575 183.239 189.14625 184.99325 188.65625 186.28125 C 188.16425 187.63025 187.64575 188.92925 187.09375 190.15625 C 186.54175 191.38425 185.98975 192.48875 185.46875 193.46875 C 184.94675 194.45075 184.52425 195.23175 184.15625 195.84375 C 183.78825 196.45775 183.561 196.84675 183.5 196.96875 C 183.378 197.09275 183.34525 197.2875 183.40625 197.5625 C 183.46725 197.8385 183.56425 198.13275 183.65625 198.46875 C 183.74825 198.80675 183.84475 199.13125 183.96875 199.40625 C 184.09075 199.68225 184.188 199.90975 184.25 200.09375 C 184.25 200.21775 184.51025 200.73525 185.03125 201.65625 C 185.55125 202.57625 186.202 203.77925 187 205.28125 C 187.796 206.78525 188.706 208.47375 189.75 210.34375 C 190.792 212.21575 191.832 214.1 192.875 216 C 195.327 220.54 198.15375 225.671 201.34375 231.375 C 201.83375 231.988 202.386 232.5095 203 232.9375 C 203.489 233.3055 204.10875 233.63125 204.84375 233.90625 C 205.58075 234.18325 206.391 234.21525 207.25 234.03125 C 207.802 233.90925 208.419 233.48675 209.125 232.71875 C 209.829 231.95275 210.544 230.9785 211.25 229.8125 C 211.954 228.6485 212.6365 227.41275 213.3125 226.09375 C 213.9865 224.77475 214.60425 223.50975 215.15625 222.34375 C 215.70825 221.17975 216.195 220.17225 216.625 219.28125 C 217.054 218.39325 217.34725 217.8075 217.53125 217.5625 C 217.83825 217.1945 218.129 216.77225 218.375 216.28125 C 218.619 215.79025 218.84775 215.3045 219.09375 214.8125 C 219.33775 214.2605 219.59875 213.6765 219.84375 213.0625 C 220.15075 212.5715 220.34425 212.21475 220.40625 211.96875 C 220.46525 211.72475 220.40375 211.562 220.21875 211.5 C 220.03475 211.439 219.6125 211.568 218.9375 211.875 C 218.4465 212.12 217.82975 212.67425 217.09375 213.53125 C 216.35675 214.39125 215.578 215.39875 214.75 216.59375 C 213.922 217.78975 213.04525 219.05725 212.15625 220.40625 C 211.26625 221.75625 210.48525 223.02225 209.78125 224.15625 C 209.07525 225.29225 208.45775 226.233 207.96875 227 C 207.47675 227.767 207.21625 228.189 207.15625 228.25 C 206.97225 228.373 206.6805 228.4375 206.3125 228.4375 C 206.1275 228.4375 205.96525 228.40575 205.78125 228.34375 L 191.125 201.09375 C 192.229 201.09375 193.6245 201.12725 195.3125 201.15625 C 196.9985 201.18825 198.68775 201.1875 200.34375 201.1875 L 204.96875 201.1875 C 206.40975 201.1875 207.48025 201.15575 208.15625 201.09375 C 209.01425 201.03475 209.7285 200.77325 210.3125 200.28125 C 210.8945 199.79225 211.34825 199.27075 211.65625 198.71875 C 212.02425 198.04475 212.3165 197.298 212.5625 196.5 L 189.375 196.6875 C 189.865 195.9525 190.6105 194.6205 191.5625 192.6875 C 192.5125 190.7555 193.195 188.61225 193.625 186.28125 C 193.869 184.87025 194.09775 183.3435 194.34375 181.6875 C 194.58775 180.0325 194.78225 178.472 194.90625 177 C 195.09025 175.284 195.251 173.56175 195.375 171.84375 C 196.785 173.74575 198.2125 175.49775 199.6875 177.09375 C 200.9135 178.44275 202.24425 179.71025 203.65625 180.90625 C 205.06625 182.10125 206.36625 182.8175 207.53125 183.0625 C 208.69625 183.3695 209.672 183.46775 210.5 183.34375 C 211.328 183.22175 212.0105 183.02725 212.5625 182.78125 C 213.2365 182.53725 213.78875 182.21125 214.21875 181.78125 C 213.78875 181.65925 213.33375 181.46475 212.84375 181.21875 C 212.41275 181.03475 211.99125 180.8725 211.53125 180.6875 C 211.07125 180.5035 210.64925 180.309 210.28125 180.125 C 209.85125 179.94 209.20175 179.42175 208.34375 178.59375 C 207.48375 177.76675 206.575 176.88825 205.625 175.90625 C 204.674 174.92525 203.8285 173.98375 203.0625 173.09375 C 202.2945 172.20575 201.77525 171.65375 201.53125 171.46875 C 201.34725 171.22475 200.92525 170.50925 200.28125 169.28125 C 199.63725 168.05625 198.92175 166.755 198.09375 165.375 C 197.26575 163.994 196.4205 162.76275 195.5625 161.71875 C 194.81 160.807 194.15637 160.37887 193.59375 160.40625 z M 272.625 160.96875 C 272.3645 160.95313 272.153 161.00125 272 161.09375 C 269.056 161.76875 266.523 163.361 264.375 165.875 C 263.455 166.979 262.578 168.31125 261.75 169.90625 C 260.923 171.50225 260.20575 173.44975 259.59375 175.71875 C 258.97975 177.98775 258.52525 180.62 258.28125 183.625 C 258.03525 186.631 258.067 190.10725 258.375 194.03125 C 258.927 201.88325 259.99725 208.3795 261.53125 213.5625 C 263.06425 218.7465 264.884 222.903 267 226 C 269.116 229.097 271.38975 231.24275 273.84375 232.46875 C 276.29675 233.69575 278.733 234.21525 281.125 234.03125 C 283.393 233.84625 285.53775 232.7755 287.59375 230.8125 C 289.64675 228.8495 291.369 226.18525 292.75 222.78125 C 294.129 219.37825 295.10425 215.351 295.65625 210.75 C 296.20825 206.15 296.1745 201.1475 295.5625 195.6875 C 295.5625 195.0145 295.52875 194.33225 295.46875 193.65625 C 295.40675 193.10425 295.31075 192.48875 295.21875 191.84375 C 295.12675 191.20075 295.02925 190.64725 294.90625 190.15625 C 294.66125 189.17625 294.204 187.55125 293.5 185.28125 C 292.794 183.01225 291.85275 180.576 290.71875 178 C 289.58275 175.424 288.25075 172.95575 286.71875 170.59375 C 285.18475 168.23375 283.4625 166.4785 281.5625 165.3125 C 279.4155 163.9655 277.72475 162.988 276.46875 162.375 C 275.21175 161.762 274.2375 161.3725 273.5625 161.1875 C 273.1945 161.0655 272.8855 160.98437 272.625 160.96875 z M 273.84375 166.9375 C 275.56803 166.96465 277.13475 167.4715 278.53125 168.4375 C 280.12525 169.5415 281.5545 170.97075 282.8125 172.71875 C 284.0695 174.46675 285.141 176.38475 286 178.46875 C 286.858 180.55475 287.57225 182.53625 288.15625 184.40625 C 288.73825 186.27725 289.1615 187.87075 289.4375 189.21875 C 289.7145 190.56975 289.8755 191.381 289.9375 191.625 L 290.3125 193.9375 C 290.9255 199.8255 291.119 205.18625 290.875 210.03125 C 290.752 212.11625 290.52475 214.1645 290.21875 216.1875 C 289.91075 218.2115 289.42525 220.0965 288.78125 221.8125 C 288.13725 223.5305 287.3245 224.95925 286.3125 226.15625 C 285.3005 227.35325 284.06575 228.16325 282.59375 228.53125 C 281.12075 228.89925 279.7255 228.89925 278.4375 228.53125 C 277.1495 228.16325 275.97825 227.5465 274.90625 226.6875 C 273.83325 225.8285 272.85675 224.758 271.96875 223.5 C 271.07875 222.243 270.26725 220.94375 269.53125 219.59375 C 267.87525 216.40575 266.44625 212.63625 265.28125 208.28125 C 266.13925 209.93625 267.11475 211.336 268.21875 212.5 C 269.07675 213.544 270.1165 214.48525 271.3125 215.28125 C 272.5095 216.07925 273.74425 216.40425 275.03125 216.28125 C 276.31925 216.09725 277.521 215.709 278.625 215.125 C 279.728 214.543 280.70325 213.6985 281.53125 212.5625 C 282.36025 211.4285 283.00775 209.935 283.46875 208.125 C 283.92875 206.316 284.15625 204.10675 284.15625 201.46875 C 284.09525 198.83375 283.9645 196.395 283.8125 194.125 C 283.6585 191.856 283.33325 189.8755 282.78125 188.1875 C 282.23025 186.5015 281.3855 185.17 280.3125 184.25 C 279.2395 183.33 277.80875 182.90875 275.96875 182.96875 C 274.06575 183.03075 272.703 183.61475 271.875 184.71875 C 271.047 185.82375 270.46325 187.0255 270.15625 188.3125 C 269.84925 189.9085 269.751 191.6625 269.875 193.5625 C 270.059 194.7285 270.54575 195.73575 271.34375 196.59375 C 272.01875 197.33075 273.05625 197.9795 274.40625 198.5625 C 275.75525 199.1455 277.57425 199.374 279.90625 199.25 C 279.84325 201.397 279.71375 203.28 279.46875 204.875 C 279.16075 206.286 278.70825 207.585 278.15625 208.75 C 277.60425 209.915 276.7915 210.53425 275.6875 210.65625 C 274.9505 210.71825 274.17175 210.4905 273.34375 209.9375 C 272.51575 209.3855 271.70325 208.6715 270.90625 207.8125 C 270.10825 206.9545 269.32975 205.98025 268.59375 204.90625 C 267.85675 203.83425 267.20825 202.793 266.65625 201.75 C 266.10325 200.708 265.67975 199.76625 265.34375 198.90625 C 265.00575 198.04825 264.811 197.4305 264.75 197.0625 C 264.689 196.6945 264.56 195.6885 264.375 194.0625 C 264.192 192.4385 264.06 190.5205 264 188.3125 C 263.938 186.1045 263.971 183.7655 264.125 181.3125 C 264.277 178.8595 264.69875 176.58475 265.34375 174.46875 C 265.98775 172.35275 266.897 170.5995 268.125 169.1875 C 269.351 167.7775 271.00775 167.03075 273.09375 166.96875 C 273.34687 166.9535 273.59742 166.93362 273.84375 166.9375 z M 119.46875 171.03125 C 120.14275 171.64525 121.11825 172.48875 122.40625 173.59375 C 123.69425 174.69875 125.08975 175.90175 126.59375 177.21875 C 128.09575 178.53875 129.62225 179.90025 131.15625 181.28125 C 132.68925 182.66125 134.05325 183.96275 135.28125 185.21875 C 136.50725 186.47575 137.514 187.61375 138.25 188.59375 C 138.986 189.57475 139.27825 190.3225 139.15625 190.8125 C 139.03225 191.4885 138.38375 192.495 137.21875 193.875 C 136.05275 195.255 134.7195 196.74975 133.1875 198.34375 C 131.6535 199.93875 130.0625 201.497 128.4375 203 C 126.8115 204.503 125.4795 205.6415 124.4375 206.4375 C 123.6395 203.5565 122.957 200.53275 122.375 197.34375 C 121.791 194.15475 121.30425 190.97175 120.90625 187.84375 C 120.50625 184.71575 120.1815 181.69525 119.9375 178.78125 C 119.6915 175.86925 119.52875 173.30225 119.46875 171.03125 z M 153.25 171.125 C 153.924 171.8 154.8995 172.67725 156.1875 173.78125 C 157.4755 174.88525 158.8405 176.087 160.3125 177.375 C 161.7845 178.663 163.2785 179.99625 164.8125 181.40625 C 166.3455 182.81725 167.74075 184.14925 168.96875 185.40625 C 170.19475 186.66325 171.17025 187.80225 171.90625 188.78125 C 172.64225 189.76325 172.96675 190.47875 172.84375 190.96875 C 172.71975 191.64475 172.07025 192.6825 170.90625 194.0625 C 169.74025 195.4435 168.37675 196.93625 166.84375 198.53125 C 165.30975 200.12625 163.75 201.653 162.125 203.125 C 160.499 204.596 159.167 205.73425 158.125 206.53125 C 157.389 203.64825 156.707 200.595 156.125 197.375 C 155.542 194.156 155.05425 190.97175 154.65625 187.84375 C 154.25625 184.71575 153.9315 181.72775 153.6875 178.84375 C 153.4415 175.96175 153.31 173.395 153.25 171.125 z M 276.625 187.8125 C 276.74003 187.79514 276.86125 187.805 276.96875 187.8125 C 277.39775 187.8445 277.7545 187.97475 278.0625 188.21875 C 278.3685 188.46475 278.62775 188.7905 278.84375 189.1875 C 279.05775 189.5885 279.252 189.943 279.375 190.25 C 279.62 191.047 279.6845 191.86175 279.5625 192.71875 C 279.4995 193.21175 279.436 193.6975 279.375 194.1875 C 278.823 194.2495 278.3045 194.27975 277.8125 194.21875 C 277.3825 194.21875 276.928 194.1555 276.5 194.0625 C 276.07 193.9705 275.77775 193.8085 275.59375 193.5625 C 275.34775 193.3185 275.08775 192.9925 274.84375 192.5625 C 274.59775 192.1335 274.43575 191.64725 274.34375 191.15625 C 274.25175 190.66525 274.2845 190.17825 274.4375 189.65625 C 274.5905 189.13625 274.947 188.6805 275.5 188.3125 C 275.914 188.03725 276.27991 187.86458 276.625 187.8125 z "
   transform="translate(-1.2512358e-5,0)"
   id="path5" />
</svg>