<?xml version="1.0" encoding="UTF-8" standalone="no"?>
<!-- Generator: Adobe Illustrator 15.1.0, SVG Export Plug-In . SVG Version: 6.00 Build 0)  -->

<svg
   xmlns:dc="http://purl.org/dc/elements/1.1/"
   xmlns:cc="http://creativecommons.org/ns#"
   xmlns:rdf="http://www.w3.org/1999/02/22-rdf-syntax-ns#"
   xmlns:svg="http://www.w3.org/2000/svg"
   xmlns="http://www.w3.org/2000/svg"
   xmlns:sodipodi="http://sodipodi.sourceforge.net/DTD/sodipodi-0.dtd"
   xmlns:inkscape="http://www.inkscape.org/namespaces/inkscape"
   version="1.1"
   id="Livello_1"
   x="0px"
   y="0px"
   width="425.2px"
   height="283.46px"
   viewBox="0 0 425.2 283.46"
   enable-background="new 0 0 425.2 283.46"
   xml:space="preserve"
   inkscape:version="0.48.1 r9760"
   sodipodi:docname="gato preto_03.svg"><metadata
   id="metadata27"><rdf:RDF><cc:Work
       rdf:about=""><dc:format>image/svg+xml</dc:format><dc:type
         rdf:resource="http://purl.org/dc/dcmitype/StillImage" /></cc:Work></rdf:RDF></metadata><defs
   id="defs25">
	
	
	
	
	
	
	
	
	
</defs><sodipodi:namedview
   pagecolor="#ffffff"
   bordercolor="#666666"
   borderopacity="1"
   objecttolerance="10"
   gridtolerance="10"
   guidetolerance="10"
   inkscape:pageopacity="0"
   inkscape:pageshadow="2"
   inkscape:window-width="640"
   inkscape:window-height="480"
   id="namedview23"
   showgrid="false"
   inkscape:zoom="0.95251537"
   inkscape:cx="212.60001"
   inkscape:cy="141.73"
   inkscape:window-x="0"
   inkscape:window-y="24"
   inkscape:window-maximized="0"
   inkscape:current-layer="Livello_1" />
<path
   d="M 145.96875 71.5 L 145.96875 83.90625 L 150.09375 88.0625 L 154.25 83.90625 L 154.25 79.78125 L 160.40625 79.78125 L 160.40625 88.0625 L 168.6875 88.0625 L 168.6875 79.78125 L 168.6875 71.5 L 145.96875 71.5 z M 150.09375 88.0625 L 145.96875 92.1875 L 150.09375 96.34375 L 154.25 92.1875 L 150.09375 88.0625 z M 150.09375 96.34375 L 145.96875 100.46875 L 150.09375 104.625 L 154.25 100.46875 L 150.09375 96.34375 z M 150.09375 104.625 L 145.96875 108.75 L 145.96875 146.03125 L 168.6875 146.03125 L 168.6875 123.28125 L 164.5625 123.28125 L 168.6875 119.15625 L 168.6875 106.75 L 156.28125 119.15625 L 156.28125 131.5625 L 160.40625 127.4375 L 160.40625 137.75 L 154.25 137.75 L 154.25 108.75 L 150.09375 104.625 z M 189.9375 71.5 L 175.5 86.03125 L 175.5 115 L 179.625 119.15625 L 183.78125 115 L 183.78125 106.75 L 189.9375 106.75 L 189.9375 129.46875 L 194.09375 133.59375 L 198.21875 129.46875 L 198.21875 75.625 L 202.375 71.5 L 189.9375 71.5 z M 194.09375 133.59375 L 189.9375 137.75 L 194.09375 141.875 L 198.21875 137.75 L 194.09375 133.59375 z M 194.09375 141.875 L 189.9375 146.03125 L 198.21875 146.03125 L 194.09375 141.875 z M 179.625 119.15625 L 175.5 123.28125 L 179.625 127.4375 L 183.78125 123.28125 L 179.625 119.15625 z M 179.625 127.4375 L 175.5 131.5625 L 175.5 146.03125 L 183.78125 146.03125 L 183.78125 131.5625 L 179.625 127.4375 z M 205.03125 71.5 L 205.03125 81.90625 L 213.3125 90.1875 L 213.3125 79.78125 L 217.4375 79.78125 L 217.4375 94.3125 L 221.59375 98.46875 L 225.71875 94.3125 L 225.71875 79.78125 L 229.875 79.78125 L 229.875 90.1875 L 238.15625 81.90625 L 238.15625 71.5 L 205.03125 71.5 z M 221.59375 98.46875 L 217.4375 102.59375 L 221.59375 106.75 L 225.71875 102.59375 L 221.59375 98.46875 z M 221.59375 106.75 L 217.4375 110.875 L 217.4375 129.46875 L 221.59375 133.59375 L 225.71875 129.46875 L 225.71875 110.875 L 221.59375 106.75 z M 221.59375 133.59375 L 217.4375 137.75 L 221.59375 141.875 L 225.71875 137.75 L 221.59375 133.59375 z M 221.59375 141.875 L 217.4375 146.03125 L 225.71875 146.03125 L 221.59375 141.875 z M 243.125 71.5 L 243.125 100.46875 L 247.25 104.625 L 251.40625 100.46875 L 251.40625 79.78125 L 257.5625 79.78125 L 257.5625 100.46875 L 261.6875 104.625 L 265.84375 100.46875 L 265.84375 71.5 L 243.125 71.5 z M 261.6875 104.625 L 257.5625 108.75 L 261.6875 112.90625 L 265.84375 108.75 L 261.6875 104.625 z M 261.6875 112.90625 L 257.5625 117.03125 L 257.5625 137.75 L 251.40625 137.75 L 251.40625 117.03125 L 247.25 112.90625 L 243.125 117.03125 L 243.125 146.03125 L 265.84375 146.03125 L 265.84375 117.03125 L 261.6875 112.90625 z M 247.25 112.90625 L 251.40625 108.75 L 247.25 104.625 L 243.125 108.75 L 247.25 112.90625 z M 189.9375 83.90625 L 189.9375 98.46875 L 183.78125 98.46875 L 183.78125 90.1875 L 189.9375 83.90625 z M 133.09375 181.90625 L 133.09375 217.125 L 128.9375 221.28125 L 133.09375 221.28125 L 133.09375 231.59375 L 137.21875 235.71875 L 141.375 231.59375 L 141.375 221.28125 L 155.8125 206.75 L 155.8125 181.90625 L 133.09375 181.90625 z M 137.21875 235.71875 L 133.09375 239.875 L 137.21875 244 L 141.375 239.875 L 137.21875 235.71875 z M 137.21875 244 L 133.09375 248.125 L 137.21875 252.28125 L 141.375 248.125 L 137.21875 244 z M 137.21875 252.28125 L 133.09375 256.40625 L 141.375 256.40625 L 137.21875 252.28125 z M 162.71875 181.90625 L 162.71875 231.59375 L 166.84375 235.71875 L 171 231.59375 L 171 221.28125 L 175.125 217.125 L 177.15625 219.15625 L 177.15625 239.875 L 181.28125 244 L 185.4375 239.875 L 185.4375 215.03125 L 181.28125 210.875 L 185.4375 206.75 L 185.4375 181.90625 L 162.71875 181.90625 z M 181.28125 244 L 177.15625 248.125 L 181.28125 252.28125 L 185.4375 248.125 L 181.28125 244 z M 181.28125 252.28125 L 177.15625 256.40625 L 185.4375 256.40625 L 181.28125 252.28125 z M 166.84375 235.71875 L 162.71875 239.875 L 166.84375 244 L 171 239.875 L 166.84375 235.71875 z M 166.84375 244 L 162.71875 248.125 L 162.71875 256.40625 L 171 256.40625 L 171 248.125 L 166.84375 244 z M 192.4375 181.90625 L 192.4375 192.28125 L 198.6875 198.46875 L 192.4375 198.46875 L 192.4375 213 L 196.5625 217.125 L 200.71875 213 L 200.71875 206.75 L 213.125 206.75 L 213.125 200.5625 L 202.8125 190.1875 L 209 190.1875 L 217.28125 181.90625 L 192.4375 181.90625 z M 196.5625 217.125 L 192.4375 221.28125 L 196.5625 225.40625 L 200.71875 221.28125 L 196.5625 217.125 z M 196.5625 225.40625 L 192.4375 229.5625 L 196.5625 233.6875 L 200.71875 229.5625 L 196.5625 225.40625 z M 196.5625 233.6875 L 192.4375 237.84375 L 192.4375 256.40625 L 198.6875 256.40625 L 213.125 241.96875 L 213.125 229.5625 L 200.71875 241.96875 L 200.71875 237.84375 L 196.5625 233.6875 z M 217.90625 181.90625 L 217.90625 192.28125 L 226.1875 200.5625 L 226.1875 190.1875 L 230.34375 190.1875 L 230.34375 204.71875 L 234.46875 208.84375 L 238.625 204.71875 L 238.625 190.1875 L 242.75 190.1875 L 242.75 200.5625 L 251.03125 192.28125 L 251.03125 181.90625 L 217.90625 181.90625 z M 234.46875 208.84375 L 230.34375 213 L 234.46875 217.125 L 238.625 213 L 234.46875 208.84375 z M 234.46875 217.125 L 230.34375 221.28125 L 230.34375 239.875 L 234.46875 244 L 238.625 239.875 L 238.625 221.28125 L 234.46875 217.125 z M 234.46875 244 L 230.34375 248.125 L 234.46875 252.28125 L 238.625 248.125 L 234.46875 244 z M 234.46875 252.28125 L 230.34375 256.40625 L 238.625 256.40625 L 234.46875 252.28125 z M 256 181.90625 L 256 210.875 L 260.125 215.03125 L 264.28125 210.875 L 264.28125 190.1875 L 270.4375 190.1875 L 270.4375 210.875 L 274.59375 215.03125 L 278.71875 210.875 L 278.71875 181.90625 L 256 181.90625 z M 274.59375 215.03125 L 270.4375 219.15625 L 274.59375 223.3125 L 278.71875 219.15625 L 274.59375 215.03125 z M 274.59375 223.3125 L 270.4375 227.4375 L 270.4375 248.125 L 264.28125 248.125 L 264.28125 227.4375 L 260.125 223.3125 L 256 227.4375 L 256 256.40625 L 278.71875 256.40625 L 278.71875 227.4375 L 274.59375 223.3125 z M 260.125 223.3125 L 264.28125 219.15625 L 260.125 215.03125 L 256 219.15625 L 260.125 223.3125 z M 171 190.1875 L 177.15625 190.1875 L 177.15625 202.59375 L 171 208.84375 L 171 190.1875 z M 141.375 190.28125 L 147.53125 190.28125 L 147.53125 202.59375 L 141.375 208.84375 L 141.375 190.28125 z "
   transform="translate(-1.2512358e-5,0)"
   id="path5" />
</svg>