<?xml version="1.0" encoding="UTF-8" standalone="no"?>
<!-- Generator: Adobe Illustrator 15.1.0, SVG Export Plug-In . SVG Version: 6.00 Build 0)  -->

<svg
   xmlns:dc="http://purl.org/dc/elements/1.1/"
   xmlns:cc="http://creativecommons.org/ns#"
   xmlns:rdf="http://www.w3.org/1999/02/22-rdf-syntax-ns#"
   xmlns:svg="http://www.w3.org/2000/svg"
   xmlns="http://www.w3.org/2000/svg"
   xmlns:sodipodi="http://sodipodi.sourceforge.net/DTD/sodipodi-0.dtd"
   xmlns:inkscape="http://www.inkscape.org/namespaces/inkscape"
   version="1.1"
   id="Livello_1"
   x="0px"
   y="0px"
   width="425.2px"
   height="283.46px"
   viewBox="0 0 425.2 283.46"
   enable-background="new 0 0 425.2 283.46"
   xml:space="preserve"
   inkscape:version="0.48.1 r9760"
   sodipodi:docname="kinky business_01.svg"><metadata
   id="metadata3120"><rdf:RDF><cc:Work
       rdf:about=""><dc:format>image/svg+xml</dc:format><dc:type
         rdf:resource="http://purl.org/dc/dcmitype/StillImage" /></cc:Work></rdf:RDF></metadata><defs
   id="defs3118">
	
	
	
	
	
	
	
	
	
	
	
	
	
</defs><sodipodi:namedview
   pagecolor="#ffffff"
   bordercolor="#666666"
   borderopacity="1"
   objecttolerance="10"
   gridtolerance="10"
   guidetolerance="10"
   inkscape:pageopacity="0"
   inkscape:pageshadow="2"
   inkscape:window-width="640"
   inkscape:window-height="480"
   id="namedview3116"
   showgrid="false"
   inkscape:zoom="0.95251537"
   inkscape:cx="212.60001"
   inkscape:cy="141.73"
   inkscape:window-x="0"
   inkscape:window-y="24"
   inkscape:window-maximized="0"
   inkscape:current-layer="Livello_1" />
<g
   id="g3086">
</g>
<path
   d="M 208.53125 24.5625 C 199.88325 24.5625 192.8125 31.5735 192.8125 40.3125 L 192.8125 103.96875 C 192.8125 104.42875 193.165 104.78125 193.625 104.78125 L 204.59375 104.78125 C 205.05375 104.78125 205.40625 104.42875 205.40625 103.96875 L 205.40625 49.6875 C 205.40625 47.9395 206.78325 46.5625 208.53125 46.5625 C 210.27825 46.5625 211.65625 47.9395 211.65625 49.6875 L 211.65625 103.96875 C 211.65625 104.42875 212.04 104.78125 212.5 104.78125 L 223.53125 104.78125 C 223.90025 104.78125 224.28125 104.42875 224.28125 103.96875 L 224.28125 40.3125 C 224.28125 31.5725 217.27025 24.5625 208.53125 24.5625 z M 267.5 26.03125 C 267.133 26.03125 266.78125 26.415 266.78125 26.875 L 266.78125 51.25 C 266.78125 57.69 270.63625 63.2955 276.15625 65.6875 L 276.15625 103.96875 C 276.15625 104.42875 276.50775 104.78125 276.96875 104.78125 L 288.03125 104.78125 C 288.39825 104.78125 288.75 104.42875 288.75 103.96875 L 288.75 65.6875 C 294.362 63.2955 298.21875 57.689 298.21875 51.25 L 298.21875 26.875 C 298.21875 26.415 297.86825 26.03025 297.40625 26.03125 L 286.46875 26.03125 C 286.00775 26.03125 285.625 26.415 285.625 26.875 L 285.625 57.59375 C 285.625 59.24875 284.248 60.71875 282.5 60.71875 C 280.752 60.71875 279.375 59.24975 279.375 57.59375 L 279.375 26.875 C 279.375 26.415 278.99225 26.03125 278.53125 26.03125 L 267.5 26.03125 z M 136.6875 26.125 C 136.2275 26.125 135.84375 26.415 135.84375 26.875 L 135.84375 103.96875 C 135.84375 104.42875 136.2275 104.78125 136.6875 104.78125 L 147.625 104.78125 C 148.085 104.78125 148.46875 104.42875 148.46875 103.96875 L 148.46875 67.8125 C 148.46875 67.3525 148.82125 66.96875 149.28125 66.96875 L 151.59375 66.96875 C 153.34075 66.96875 154.71875 68.4395 154.71875 70.1875 L 154.71875 103.96875 C 154.71875 104.42875 155.07125 104.78125 155.53125 104.78125 L 166.59375 104.78125 C 166.96175 104.78125 167.3125 104.42875 167.3125 103.96875 L 167.3125 76.46875 C 167.3125 71.31775 164.8345 66.69575 161.0625 63.84375 C 164.8345 60.99275 167.3125 56.401 167.3125 51.25 L 167.3125 26.875 C 167.3125 26.415 166.96175 26.125 166.59375 26.125 L 155.53125 26.125 C 155.07125 26.125 154.71875 26.415 154.71875 26.875 L 154.71875 57.59375 C 154.71875 59.34075 153.34175 60.71875 151.59375 60.71875 L 149.28125 60.71875 C 148.82125 60.71875 148.46875 60.36625 148.46875 59.90625 L 148.46875 26.875 C 148.46875 26.415 148.085 26.125 147.625 26.125 L 136.6875 26.125 z M 174.59375 26.125 C 174.13375 26.125 173.75 26.507 173.75 26.875 L 173.75 104.0625 C 173.75 104.4305 174.13375 104.78125 174.59375 104.78125 L 185.53125 104.78125 C 185.99125 104.78125 186.375 104.4305 186.375 104.0625 L 186.375 26.875 C 186.375 26.507 185.99125 26.125 185.53125 26.125 L 174.59375 26.125 z M 231.53125 26.125 C 231.07025 26.125 230.71875 26.415 230.71875 26.875 L 230.71875 103.96875 C 230.71875 104.42875 231.07025 104.78125 231.53125 104.78125 L 242.46875 104.78125 C 242.92775 104.78125 243.3125 104.42875 243.3125 103.96875 L 243.3125 67.8125 C 243.3125 67.3525 243.664 66.96875 244.125 66.96875 L 246.4375 66.96875 C 248.1855 66.96875 249.5625 68.4395 249.5625 70.1875 L 249.5625 103.96875 C 249.5625 104.42875 249.94525 104.78125 250.40625 104.78125 L 261.4375 104.78125 C 261.8045 104.78125 262.15625 104.42875 262.15625 103.96875 L 262.15625 76.46875 C 262.15625 71.31775 259.67725 66.69575 255.90625 63.84375 C 259.67825 60.99275 262.15625 56.401 262.15625 51.25 L 262.15625 26.875 C 262.15625 26.415 261.8045 26.125 261.4375 26.125 L 250.40625 26.125 C 249.94525 26.125 249.5625 26.415 249.5625 26.875 L 249.5625 57.59375 C 249.5625 59.34075 248.1855 60.71875 246.4375 60.71875 L 244.125 60.71875 C 243.664 60.71875 243.3125 60.36625 243.3125 59.90625 L 243.3125 26.875 C 243.3125 26.415 242.92775 26.125 242.46875 26.125 L 231.53125 26.125 z M 208.53125 27.6875 C 215.52425 27.6875 221.125 33.3205 221.125 40.3125 C 221.125 41.1405 220.3905 41.875 219.5625 41.875 C 218.6435 41.875 218 41.1405 218 40.3125 C 218 35.0685 213.77525 30.8125 208.53125 30.8125 C 207.70325 30.8125 206.96875 30.078 206.96875 29.25 C 206.96875 28.331 207.70325 27.6875 208.53125 27.6875 z M 143.78125 29.25 C 144.60925 29.25 145.34375 29.8925 145.34375 30.8125 L 145.34375 38.65625 C 145.34375 39.57625 144.60925 40.3125 143.78125 40.3125 C 142.86125 40.3125 142.21875 39.57625 142.21875 38.65625 L 142.21875 30.8125 C 142.21875 29.8925 142.86125 29.25 143.78125 29.25 z M 162.625 29.25 C 163.453 29.25 164.1875 29.8925 164.1875 30.8125 L 164.1875 38.65625 C 164.1875 39.57625 163.453 40.3125 162.625 40.3125 C 161.797 40.3125 161.0625 39.57625 161.0625 38.65625 L 161.0625 30.8125 C 161.0625 29.8925 161.797 29.25 162.625 29.25 z M 181.6875 29.25 C 182.5155 29.25 183.25 29.9845 183.25 30.8125 L 183.25 38.75 C 183.25 39.578 182.5155 40.3125 181.6875 40.3125 C 180.7675 40.3125 180.03125 39.578 180.03125 38.75 L 180.03125 30.8125 C 180.03125 29.9845 180.7675 29.25 181.6875 29.25 z M 238.625 29.25 C 239.451 29.25 240.1875 29.8925 240.1875 30.8125 L 240.1875 38.65625 C 240.1875 39.57625 239.451 40.3125 238.625 40.3125 C 237.706 40.3125 237.0625 39.57625 237.0625 38.65625 L 237.0625 30.8125 C 237.0625 29.8925 237.705 29.25 238.625 29.25 z M 257.46875 29.25 C 258.29675 29.25 259.03125 29.8925 259.03125 30.8125 L 259.03125 38.65625 C 259.03125 39.57625 258.29675 40.3125 257.46875 40.3125 C 256.64075 40.3125 255.90625 39.57625 255.90625 38.65625 L 255.90625 30.8125 C 255.90625 29.8925 256.64075 29.25 257.46875 29.25 z M 274.59375 29.25 C 275.51275 29.25 276.15625 29.8925 276.15625 30.8125 L 276.15625 38.65625 C 276.15625 39.57625 275.51375 40.21875 274.59375 40.21875 C 273.76575 40.21875 273.03125 39.57625 273.03125 38.65625 L 273.03125 30.8125 C 273.03125 29.8925 273.76575 29.25 274.59375 29.25 z M 293.53125 29.25 C 294.35925 29.25 295.09375 29.8925 295.09375 30.8125 L 295.09375 38.65625 C 295.09375 39.57625 294.35925 40.21875 293.53125 40.21875 C 292.61225 40.21875 291.96875 39.57625 291.96875 38.65625 L 291.96875 30.8125 C 291.96875 29.8925 292.61125 29.25 293.53125 29.25 z M 143.78125 43.4375 C 144.60925 43.4375 145.34375 44.08 145.34375 45 C 145.34375 45.828 144.60925 46.5625 143.78125 46.5625 C 142.86125 46.5625 142.21875 45.828 142.21875 45 C 142.21875 44.08 142.86125 43.4375 143.78125 43.4375 z M 162.625 43.4375 C 163.453 43.4375 164.1875 44.08 164.1875 45 C 164.1875 45.828 163.453 46.5625 162.625 46.5625 C 161.797 46.5625 161.0625 45.828 161.0625 45 C 161.0625 44.08 161.797 43.4375 162.625 43.4375 z M 181.6875 43.4375 C 182.5155 43.4375 183.25 44.172 183.25 45 C 183.25 45.92 182.5155 46.5625 181.6875 46.5625 C 180.7675 46.5625 180.03125 45.92 180.03125 45 C 180.03125 44.172 180.7675 43.4375 181.6875 43.4375 z M 238.625 43.4375 C 239.451 43.4375 240.1875 44.08 240.1875 45 C 240.1875 45.828 239.45 46.5625 238.625 46.5625 C 237.706 46.5625 237.0625 45.828 237.0625 45 C 237.0625 44.08 237.705 43.4375 238.625 43.4375 z M 257.46875 43.4375 C 258.29675 43.4375 259.03125 44.08 259.03125 45 C 259.03125 45.828 258.29675 46.5625 257.46875 46.5625 C 256.63975 46.5625 255.90525 45.828 255.90625 45 C 255.90625 44.08 256.64075 43.4375 257.46875 43.4375 z M 274.59375 43.4375 C 275.51275 43.4375 276.15625 44.08 276.15625 45 C 276.15625 45.828 275.51375 46.5625 274.59375 46.5625 C 273.76575 46.5625 273.03125 45.828 273.03125 45 C 273.03125 44.08 273.76575 43.4375 274.59375 43.4375 z M 293.53125 43.4375 C 294.35925 43.4375 295.09375 44.08 295.09375 45 C 295.09375 45.828 294.35925 46.5625 293.53125 46.5625 C 292.61225 46.5625 291.96875 45.828 291.96875 45 C 291.96875 44.08 292.61125 43.4375 293.53125 43.4375 z M 219.5625 45 C 220.3905 45 221.125 45.7345 221.125 46.5625 C 221.125 47.4815 220.3895 48.125 219.5625 48.125 C 218.6435 48.125 218 47.4825 218 46.5625 C 218 45.7345 218.6425 45 219.5625 45 z M 168.65625 134.875 C 160.00825 134.875 152.9375 141.978 152.9375 150.625 L 152.9375 161.65625 C 152.9375 170.30225 160.00825 177.375 168.65625 177.375 C 170.40325 177.375 171.78125 178.754 171.78125 180.5 L 171.78125 191.5625 C 171.78125 193.3105 170.40425 194.6875 168.65625 194.6875 C 166.90825 194.6875 165.53125 193.3105 165.53125 191.5625 L 165.53125 181.34375 C 165.53125 180.88475 165.1475 180.5 164.6875 180.5 L 153.65625 180.5 C 153.28825 180.5 152.9375 180.88475 152.9375 181.34375 L 152.9375 201.03125 C 152.9375 209.67925 160.00825 216.75 168.65625 216.75 C 177.30425 216.75 184.375 209.67925 184.375 201.03125 L 184.375 186.84375 C 184.375 178.10575 177.30325 171.125 168.65625 171.125 C 166.90825 171.125 165.53125 169.65225 165.53125 167.90625 L 165.53125 160.09375 C 165.53125 158.34575 166.90825 156.96875 168.65625 156.96875 C 170.40325 156.96875 171.78125 158.34575 171.78125 160.09375 L 171.78125 167.1875 C 171.78125 167.5545 172.165 167.90625 172.625 167.90625 L 183.5625 167.90625 C 184.0225 167.90625 184.375 167.5545 184.375 167.1875 L 184.375 150.625 C 184.375 141.978 177.30325 134.875 168.65625 134.875 z M 301.40625 134.875 C 292.75825 134.875 285.6875 141.978 285.6875 150.625 L 285.6875 161.65625 C 285.6875 170.30225 292.75825 177.375 301.40625 177.375 C 303.15425 177.375 304.53125 178.754 304.53125 180.5 L 304.53125 191.5625 C 304.53125 193.3105 303.15425 194.6875 301.40625 194.6875 C 299.65825 194.6875 298.28125 193.3105 298.28125 191.5625 L 298.28125 181.34375 C 298.28125 180.88475 297.8985 180.5 297.4375 180.5 L 286.40625 180.5 C 286.03925 180.5 285.6875 180.88475 285.6875 181.34375 L 285.6875 201.03125 C 285.6875 209.67925 292.75825 216.75 301.40625 216.75 C 310.05225 216.75 317.125 209.67925 317.125 201.03125 L 317.125 186.84375 C 317.125 178.10575 310.05225 171.125 301.40625 171.125 C 299.65825 171.125 298.28125 169.65225 298.28125 167.90625 L 298.28125 160.09375 C 298.28125 158.34575 299.65825 156.96875 301.40625 156.96875 C 303.15425 156.96875 304.53125 158.34575 304.53125 160.09375 L 304.53125 167.1875 C 304.53125 167.5545 304.916 167.90625 305.375 167.90625 L 316.3125 167.90625 C 316.7735 167.90625 317.125 167.5545 317.125 167.1875 L 317.125 150.625 C 317.125 141.978 310.05225 134.875 301.40625 134.875 z M 339.3125 134.875 C 330.6645 134.875 323.5625 141.978 323.5625 150.625 L 323.5625 161.65625 C 323.5625 170.30225 330.6645 177.375 339.3125 177.375 C 341.0605 177.375 342.4375 178.754 342.4375 180.5 L 342.4375 191.5625 C 342.4375 193.3105 341.0605 194.6875 339.3125 194.6875 C 337.5645 194.6875 336.1875 193.3105 336.1875 191.5625 L 336.1875 181.34375 C 336.1875 180.88475 335.80475 180.5 335.34375 180.5 L 324.3125 180.5 C 323.9455 180.5 323.5625 180.88475 323.5625 181.34375 L 323.5625 201.03125 C 323.5625 209.67925 330.6645 216.75 339.3125 216.75 C 347.9585 216.75 355.03125 209.67925 355.03125 201.03125 L 355.03125 186.84375 C 355.03125 178.10575 347.9585 171.125 339.3125 171.125 C 337.5645 171.125 336.1875 169.65225 336.1875 167.90625 L 336.1875 160.09375 C 336.1875 158.34575 337.5645 156.96875 339.3125 156.96875 C 341.0605 156.96875 342.4375 158.34575 342.4375 160.09375 L 342.4375 167.1875 C 342.4375 167.5545 342.791 167.90625 343.25 167.90625 L 354.21875 167.90625 C 354.67975 167.90625 355.03125 167.5545 355.03125 167.1875 L 355.03125 150.625 C 355.03125 141.978 347.9585 134.875 339.3125 134.875 z M 225.59375 134.96875 C 216.94675 134.96875 209.875 141.97775 209.875 150.71875 L 209.875 214.375 C 209.875 214.834 210.2275 215.1875 210.6875 215.1875 L 221.65625 215.1875 C 222.11725 215.1875 222.46875 214.834 222.46875 214.375 L 222.46875 160.09375 C 222.46875 158.34575 223.84575 156.96875 225.59375 156.96875 C 227.34175 156.96875 228.71875 158.34575 228.71875 160.09375 L 228.71875 214.375 C 228.71875 214.834 229.1015 215.1875 229.5625 215.1875 L 240.59375 215.1875 C 240.96075 215.1875 241.34375 214.834 241.34375 214.375 L 241.34375 150.71875 C 241.34375 141.97775 234.33375 134.96875 225.59375 134.96875 z M 263.5 134.96875 C 254.852 134.96875 247.78125 141.97775 247.78125 150.71875 L 247.78125 201.03125 C 247.78125 209.77125 254.852 216.75 263.5 216.75 C 272.238 216.75 279.21875 209.77125 279.21875 201.03125 L 279.21875 181.34375 C 279.21875 180.97675 278.961 180.59375 278.5 180.59375 L 267.46875 180.59375 C 267.00975 180.59375 266.625 180.97675 266.625 181.34375 L 266.625 191.5625 C 266.625 193.3105 265.248 194.78125 263.5 194.78125 C 261.752 194.78125 260.375 193.3105 260.375 191.5625 L 260.375 178.21875 C 260.375 177.75775 260.7285 177.375 261.1875 177.375 L 265.0625 177.375 C 266.8105 177.375 268.28125 175.996 268.28125 174.25 C 268.28125 172.502 266.8105 171.125 265.0625 171.125 L 261.1875 171.125 C 260.7285 171.125 260.375 170.77525 260.375 170.40625 L 260.375 160.09375 C 260.375 158.34575 261.752 156.96875 263.5 156.96875 C 265.248 156.96875 266.625 158.34575 266.625 160.09375 L 266.625 167.1875 C 266.625 167.6465 267.00975 168 267.46875 168 L 278.5 168 C 278.961 168 279.21875 167.6465 279.21875 167.1875 L 279.21875 150.71875 C 279.21875 141.97775 272.238 134.96875 263.5 134.96875 z M 115.75 136.4375 C 115.382 136.4375 115.03125 136.82125 115.03125 137.28125 L 115.03125 200.9375 C 115.03125 209.6775 122.01 216.75 130.75 216.75 C 139.398 216.75 146.46875 209.6775 146.46875 200.9375 L 146.46875 137.28125 C 146.46875 136.82125 146.11625 136.4375 145.65625 136.4375 L 134.71875 136.4375 C 134.25875 136.4375 133.875 136.82125 133.875 137.28125 L 133.875 191.5625 C 133.875 193.3105 132.498 194.6875 130.75 194.6875 C 129.002 194.6875 127.625 193.3105 127.625 191.5625 L 127.625 137.28125 C 127.625 136.82125 127.2725 136.4375 126.8125 136.4375 L 115.75 136.4375 z M 77.84375 136.53125 C 77.38375 136.53125 77.125 136.91325 77.125 137.28125 L 77.125 214.375 C 77.125 214.834 77.38375 215.1875 77.84375 215.1875 L 92.84375 215.1875 C 101.49175 215.1875 108.59375 208.11675 108.59375 199.46875 L 108.59375 186.84375 C 108.59375 181.69275 106.08275 177.102 102.21875 174.25 C 106.08275 171.396 108.59375 166.80525 108.59375 161.65625 L 108.59375 152.28125 C 108.59375 143.54325 101.49075 136.53125 92.84375 136.53125 L 77.84375 136.53125 z M 191.65625 136.53125 C 191.19625 136.53125 190.8125 136.91325 190.8125 137.28125 L 190.8125 214.46875 C 190.8125 214.83575 191.19625 215.1875 191.65625 215.1875 L 202.59375 215.1875 C 203.05375 215.1875 203.4375 214.83575 203.4375 214.46875 L 203.4375 137.28125 C 203.4375 136.91325 203.05375 136.53125 202.59375 136.53125 L 191.65625 136.53125 z M 168.65625 138 C 175.64825 138 181.25 143.727 181.25 150.625 C 181.25 151.544 180.5155 152.1875 179.6875 152.1875 C 178.7675 152.1875 178.125 151.545 178.125 150.625 C 178.125 145.383 173.90025 141.21875 168.65625 141.21875 C 167.82825 141.21875 167.09375 140.4825 167.09375 139.5625 C 167.09375 138.7345 167.82825 138 168.65625 138 z M 301.40625 138 C 308.39725 138 314 143.727 314 150.625 C 314 151.544 313.2655 152.1875 312.4375 152.1875 C 311.5185 152.1875 310.875 151.545 310.875 150.625 C 310.875 145.383 306.64825 141.21875 301.40625 141.21875 C 300.57825 141.21875 299.84375 140.4825 299.84375 139.5625 C 299.84375 138.7345 300.57925 138 301.40625 138 z M 339.3125 138 C 346.3035 138 351.90625 143.727 351.90625 150.625 C 351.90625 151.544 351.17175 152.1875 350.34375 152.1875 C 349.42475 152.1875 348.78125 151.545 348.78125 150.625 C 348.78125 145.383 344.5545 141.21875 339.3125 141.21875 C 338.4845 141.21875 337.75 140.4825 337.75 139.5625 C 337.75 138.7345 338.4855 138 339.3125 138 z M 225.59375 138.09375 C 232.58675 138.09375 238.1875 143.72675 238.1875 150.71875 C 238.1875 151.54475 237.454 152.28325 236.625 152.28125 C 235.706 152.28125 235.0625 151.54475 235.0625 150.71875 C 235.0625 145.47475 230.83775 141.21875 225.59375 141.21875 C 224.76575 141.21875 224.03125 140.48425 224.03125 139.65625 C 224.03125 138.73725 224.76575 138.09375 225.59375 138.09375 z M 263.5 138.09375 C 270.491 138.09375 276.09375 143.72675 276.09375 150.71875 C 276.09375 151.54475 275.35925 152.28125 274.53125 152.28125 C 273.70325 152.28125 272.96875 151.54475 272.96875 150.71875 C 272.96875 145.47475 268.742 141.21875 263.5 141.21875 C 262.672 141.21875 261.9375 140.48425 261.9375 139.65625 C 261.9375 138.73625 262.674 138.09375 263.5 138.09375 z M 122.84375 139.5625 C 123.76375 139.5625 124.40625 140.298 124.40625 141.125 L 124.40625 149.0625 C 124.40625 149.8905 123.76375 150.625 122.84375 150.625 C 122.01575 150.625 121.28125 149.8905 121.28125 149.0625 L 121.28125 141.125 C 121.28125 140.298 122.01575 139.5625 122.84375 139.5625 z M 141.78125 139.5625 C 142.60925 139.5625 143.34375 140.298 143.34375 141.125 L 143.34375 149.0625 C 143.34375 149.8905 142.60925 150.625 141.78125 150.625 C 140.86125 150.625 140.125 149.8905 140.125 149.0625 L 140.125 141.125 C 140.125 140.298 140.86125 139.5625 141.78125 139.5625 z M 92.84375 139.65625 C 99.74275 139.65625 105.375 145.29125 105.375 152.28125 C 105.375 153.10925 104.7325 153.84375 103.8125 153.84375 C 102.9845 153.84375 102.21875 153.10925 102.21875 152.28125 C 102.21875 147.03625 97.99475 142.78125 92.84375 142.78125 C 91.92375 142.78125 91.28125 142.04675 91.28125 141.21875 C 91.28125 140.39075 91.92375 139.65625 92.84375 139.65625 z M 198.75 139.65625 C 199.578 139.65625 200.3125 140.39075 200.3125 141.21875 L 200.3125 149.15625 C 200.3125 149.98425 199.578 150.71875 198.75 150.71875 C 197.83 150.71875 197.09375 149.98425 197.09375 149.15625 L 197.09375 141.21875 C 197.09375 140.39075 197.83 139.65625 198.75 139.65625 z M 122.84375 153.75 C 123.76375 153.75 124.40625 154.4845 124.40625 155.3125 C 124.40625 156.2325 123.76375 156.875 122.84375 156.875 C 122.01575 156.875 121.28125 156.2325 121.28125 155.3125 C 121.28125 154.4845 122.01575 153.75 122.84375 153.75 z M 141.78125 153.75 C 142.60925 153.75 143.34375 154.4845 143.34375 155.3125 C 143.34375 156.2325 142.61025 156.875 141.78125 156.875 C 140.86125 156.875 140.125 156.2325 140.125 155.3125 C 140.125 154.4845 140.86125 153.75 141.78125 153.75 z M 198.75 153.84375 C 199.578 153.84375 200.3125 154.57825 200.3125 155.40625 C 200.3125 156.32625 199.578 156.96975 198.75 156.96875 C 197.83 156.96875 197.09375 156.32625 197.09375 155.40625 C 197.09375 154.57825 197.83 153.84375 198.75 153.84375 z M 179.6875 155.3125 C 180.5155 155.3125 181.25 156.04875 181.25 156.96875 C 181.25 157.79675 180.5155 158.53125 179.6875 158.53125 C 178.7675 158.53125 178.125 157.79675 178.125 156.96875 C 178.125 156.04875 178.7675 155.3125 179.6875 155.3125 z M 312.4375 155.3125 C 313.2655 155.3125 314 156.04875 314 156.96875 C 314 157.79675 313.2645 158.53125 312.4375 158.53125 C 311.5185 158.53125 310.875 157.79675 310.875 156.96875 C 310.875 156.04875 311.5175 155.3125 312.4375 155.3125 z M 350.34375 155.3125 C 351.17175 155.3125 351.90625 156.04875 351.90625 156.96875 C 351.90625 157.79675 351.17175 158.53125 350.34375 158.53125 C 349.42475 158.53125 348.78125 157.79675 348.78125 156.96875 C 348.78125 156.04875 349.42375 155.3125 350.34375 155.3125 z M 236.65625 155.40625 C 237.48425 155.40625 238.1875 156.14275 238.1875 156.96875 C 238.1875 157.88875 237.48425 158.53125 236.65625 158.53125 C 235.73725 158.53125 235.0625 157.88875 235.0625 156.96875 C 235.0625 156.14275 235.73625 155.40625 236.65625 155.40625 z M 274.53125 155.40625 C 275.35925 155.40625 276.09375 156.14275 276.09375 156.96875 C 276.09375 157.88875 275.35925 158.53125 274.53125 158.53125 C 273.70325 158.53125 272.96875 157.88875 272.96875 156.96875 C 272.96875 156.14275 273.70325 155.40625 274.53125 155.40625 z M 103.8125 156.96875 C 104.7325 156.96875 105.375 157.70325 105.375 158.53125 C 105.375 159.45025 104.7325 160.09375 103.8125 160.09375 C 102.9845 160.09375 102.21875 159.45025 102.21875 158.53125 C 102.21875 157.70325 102.9845 156.96875 103.8125 156.96875 z M 90.46875 158.53125 L 92.84375 158.53125 C 94.59075 158.53125 95.96875 160.00025 95.96875 161.65625 L 95.96875 168 C 95.96875 169.748 94.59175 171.125 92.84375 171.125 L 90.46875 171.125 C 90.00875 171.125 89.625 170.744 89.625 170.375 L 89.625 159.34375 C 89.625 158.88475 90.00875 158.53125 90.46875 158.53125 z M 90.46875 177.375 L 92.84375 177.375 C 94.59075 177.375 95.96875 178.84575 95.96875 180.59375 L 95.96875 190 C 95.96875 191.748 94.59175 193.21875 92.84375 193.21875 L 90.46875 193.21875 C 90.00875 193.21875 89.625 192.834 89.625 192.375 L 89.625 178.21875 C 89.625 177.75775 90.00875 177.375 90.46875 177.375 z "
   transform="translate(-1.2512358e-5,0)"
   id="path3090" />
</svg>