<?xml version="1.0" encoding="UTF-8" standalone="no"?>
<!-- Created with Inkscape (http://www.inkscape.org/) -->

<svg
   xmlns:dc="http://purl.org/dc/elements/1.1/"
   xmlns:cc="http://creativecommons.org/ns#"
   xmlns:rdf="http://www.w3.org/1999/02/22-rdf-syntax-ns#"
   xmlns:svg="http://www.w3.org/2000/svg"
   xmlns="http://www.w3.org/2000/svg"
   xmlns:sodipodi="http://sodipodi.sourceforge.net/DTD/sodipodi-0.dtd"
   xmlns:inkscape="http://www.inkscape.org/namespaces/inkscape"
   width="600"
   height="531.58472"
   id="svg3064"
   version="1.1"
   inkscape:version="0.48.1 r9760"
   sodipodi:docname="New document 6">
  <defs
     id="defs3066" />
  <sodipodi:namedview
     id="base"
     pagecolor="#ffffff"
     bordercolor="#666666"
     borderopacity="1.0"
     inkscape:pageopacity="0.0"
     inkscape:pageshadow="2"
     inkscape:zoom="0.35"
     inkscape:cx="332.14284"
     inkscape:cy="297.22093"
     inkscape:document-units="px"
     inkscape:current-layer="layer1"
     showgrid="false"
     fit-margin-top="0"
     fit-margin-left="0"
     fit-margin-right="0"
     fit-margin-bottom="0"
     inkscape:window-width="1440"
     inkscape:window-height="832"
     inkscape:window-x="0"
     inkscape:window-y="24"
     inkscape:window-maximized="1" />
  <metadata
     id="metadata3069">
    <rdf:RDF>
      <cc:Work
         rdf:about="">
        <dc:format>image/svg+xml</dc:format>
        <dc:type
           rdf:resource="http://purl.org/dc/dcmitype/StillImage" />
        <dc:title></dc:title>
      </cc:Work>
    </rdf:RDF>
  </metadata>
  <g
     inkscape:label="Layer 1"
     inkscape:groupmode="layer"
     id="layer1"
     transform="translate(-42.857156,-297.99839)">
    <path
       id="path3015"
       style="fill:#000000"
       d="m 342.71267,595.81552 c -0.53956,-0.49541 -1.94222,-1.7851 -3.11711,-2.86599 -1.1749,-1.08089 -3.38253,-3.09153 -4.90589,-4.46806 -1.52336,-1.37656 -3.30077,-2.99789 -3.94976,-3.60296 -1.27692,-1.19048 -6.41903,-5.86107 -8.78394,-7.97852 -2.24261,-2.00789 -2.29964,-2.06029 -6.32788,-5.81358 -2.07828,-1.93644 -4.1092,-3.78841 -4.51315,-4.1155 -0.44724,-0.36216 -0.83406,-1.16276 -0.98922,-2.04741 -0.79402,-4.52757 -1.0553,-5.91857 -1.48143,-7.88663 -0.25912,-1.19674 -0.47114,-2.57589 -0.47114,-3.06478 0,-0.48889 -0.21451,-1.86804 -0.47671,-3.06478 -0.88832,-4.05464 -1.81608,-9.21261 -1.81608,-10.09667 0,-0.48392 -0.20913,-1.70019 -0.46478,-2.70283 -0.25564,-1.00263 -0.63635,-2.92841 -0.84598,-4.27952 -0.98979,-6.37878 -1.2948,-8.10812 -1.61707,-9.16901 -0.19115,-0.62932 -0.34758,-1.62646 -0.34758,-2.21585 0,-0.58939 -0.2093,-1.9169 -0.46514,-2.95003 -0.25585,-1.03313 -0.64098,-2.98387 -0.85584,-4.33498 -0.21486,-1.35111 -0.59534,-3.56201 -0.84549,-4.91312 -0.25014,-1.35111 -0.6614,-3.70941 -0.91396,-5.24067 -0.25254,-1.53126 -0.61307,-3.59477 -0.8012,-4.58558 -0.71849,-3.78412 -1.08328,-5.82406 -1.52281,-8.51608 -0.25001,-1.53126 -0.62154,-3.66846 -0.82567,-4.74935 -0.20409,-1.08089 -0.5747,-3.0707 -0.82356,-4.42181 -0.64484,-3.5011 -1.13196,-6.069 -1.61547,-8.51608 -0.23138,-1.17097 -0.59272,-3.01339 -0.80301,-4.09427 -0.51017,-2.62256 -1.32604,-6.53538 -1.74156,-8.35231 -0.31333,-1.37023 -0.55276,-2.63671 -1.548,-8.18854 -0.20988,-1.17096 -0.52678,-2.60137 -0.70418,-3.17868 -0.17736,-0.57732 -0.52688,-2.19865 -0.77666,-3.60296 -0.24979,-1.40431 -0.60458,-3.29026 -0.78846,-4.191 -0.18385,-0.90074 -0.56816,-2.81686 -0.854,-4.25804 -0.73677,-3.71487 -1.46058,-7.21549 -1.96401,-9.49871 -0.23835,-1.08088 -0.53294,-2.62851 -0.65465,-3.43918 -0.12172,-0.81066 -0.43,-2.20081 -0.68506,-3.08921 -0.25505,-0.8884 -0.46376,-2.18009 -0.46376,-2.87043 0,-0.69034 -0.1453,-1.5111 -0.32293,-1.82391 -0.17762,-0.31282 -0.54902,-1.8216 -0.8253,-3.35286 -0.92711,-5.13796 -1.53502,-8.17476 -2.45886,-12.28281 -0.20255,-0.90074 -0.49533,-2.44837 -0.65062,-3.43919 -0.2659,-1.69634 -0.63822,-3.57982 -1.78055,-9.00739 -0.26541,-1.26103 -0.70353,-3.39824 -0.97365,-4.74935 -0.27009,-1.35111 -0.66439,-3.26722 -0.87621,-4.25803 -0.38018,-1.77819 -0.86825,-4.28454 -1.73803,-8.92475 -0.24487,-1.30649 -0.60776,-3.03871 -0.80638,-3.84937 -0.19865,-0.81067 -0.51198,-2.28461 -0.69628,-3.27543 -0.18435,-0.99081 -0.56236,-3.02394 -0.84002,-4.51806 -0.27769,-1.49412 -0.64617,-3.0882 -0.81885,-3.5424 -0.17268,-0.45419 -0.31399,-1.32249 -0.31399,-1.92955 0,-0.60707 -0.15918,-1.51868 -0.3537,-2.02581 -0.19456,-0.50714 -0.55994,-2.10122 -0.81195,-3.54239 -0.25197,-1.44119 -0.68292,-3.6521 -0.95766,-4.91313 -0.27471,-1.26104 -0.71208,-3.50366 -0.97191,-4.9836 -0.25985,-1.47995 -0.62778,-2.98105 -0.81762,-3.33577 -0.44398,-0.82954 -0.44948,-3.30836 -0.008,-3.30836 0.18579,0 0.42257,0.25794 0.5262,0.57321 0.40481,1.23178 1.57407,4.19325 1.77816,4.50369 0.11844,0.18015 0.31516,0.74472 0.43713,1.25459 0.12198,0.50988 0.63517,1.83642 1.14044,2.94787 0.50527,1.11146 1.18885,2.6841 1.51904,3.49476 0.3302,0.81067 0.86909,2.09228 1.19753,2.84802 0.32842,0.75575 0.59713,1.54367 0.59713,1.75095 0,0.20727 0.20279,0.76808 0.45064,1.24625 0.91141,1.75835 1.84216,3.89856 1.84216,4.23602 0,0.19085 0.20828,0.76428 0.46287,1.27429 0.25461,0.51001 0.69678,1.48001 0.98263,2.15557 0.28585,0.67554 0.72462,1.7073 0.97502,2.29278 3.31283,7.74534 4.31671,10.00872 4.6812,10.55421 0.23746,0.35535 0.43173,0.96372 0.43173,1.35195 0,0.38823 0.22109,0.88936 0.49131,1.11363 0.27022,0.22425 0.49131,0.6249 0.49131,0.8903 0,0.26541 0.21097,0.87378 0.46884,1.35195 0.46299,0.85849 1.49677,3.13866 2.36184,5.20931 0.70104,1.67804 1.284,2.99783 2.56793,5.81387 1.91471,4.19943 2.05768,4.51803 2.64559,5.89574 0.30749,0.72059 1.12903,2.53474 1.82565,4.03144 0.69661,1.49669 1.26657,2.84814 1.26657,3.00321 0,0.15507 0.21575,0.69922 0.47948,1.20923 1.49736,2.89581 3.77855,7.95361 3.77855,8.37775 0,0.27175 0.22109,0.67758 0.49132,0.90184 0.27021,0.22427 0.49131,0.62491 0.49131,0.89031 0,0.2654 0.21096,0.87378 0.46884,1.35194 0.25787,0.47817 0.79121,1.60637 1.18518,2.5071 0.39396,0.90075 0.84659,1.8588 1.00584,2.12902 0.15925,0.27023 0.42957,0.81409 0.60072,1.20858 0.17113,0.39449 0.77381,1.72104 1.33925,2.94788 0.56543,1.22683 1.39463,3.04127 1.84271,4.03209 0.44808,0.99081 1.15826,2.53844 1.57823,3.43918 1.06883,2.29247 2.79225,5.98187 4.59013,9.82625 0.84247,1.80147 1.90715,4.08608 2.3659,5.07689 0.45875,0.99081 1.47738,3.17683 2.2636,4.85784 0.78621,1.68099 1.42947,3.17373 1.42947,3.31719 0,0.14346 0.2033,0.42958 0.45183,0.63583 0.24851,0.20625 0.54428,0.83718 0.65725,1.40207 l 0.2054,1.02707 8.46597,-0.19801 c 6.16299,-0.14414 8.56809,-0.0959 8.84146,0.17749 0.50147,0.50147 0.53635,32.74112 0.0365,33.67524 -0.31792,0.59403 -0.75211,0.63386 -6.96026,0.63857 -3.64167,0.002 -6.84025,0.14352 -7.10798,0.3128 -0.41797,0.26428 -0.42486,0.46037 -0.0485,1.38703 0.24107,0.59359 0.63517,1.81622 0.87575,2.71696 0.24055,0.90074 0.66058,2.37467 0.9334,3.27542 1.10535,3.64975 1.89083,6.30854 2.32227,7.86099 0.2503,0.90074 0.7687,2.66946 1.15199,3.9305 0.38329,1.26103 0.82069,2.80867 0.97198,3.43918 0.15132,0.63052 0.42158,1.58859 0.60061,2.12903 1.2686,3.82975 1.70414,5.31277 1.70407,5.80275 -3e-5,0.30914 0.20514,1.04611 0.45597,1.6377 0.41428,0.97706 0.84938,2.39549 2.38978,7.79022 0.28293,0.99082 0.66327,2.16997 0.84525,2.62034 0.18198,0.45037 0.44788,1.33473 0.59085,1.96525 0.14298,0.63051 0.47759,1.80966 0.74358,2.62033 0.26601,0.81066 0.728,2.3583 1.02672,3.43919 0.29868,1.08088 0.73143,2.55482 0.96163,3.27541 0.23019,0.72059 0.65367,2.12083 0.94106,3.11165 0.28738,0.99081 0.84351,2.90693 1.23588,4.25803 1.00509,3.46124 1.64619,4.91313 2.16944,4.91313 0.2485,0 0.49989,-0.18424 0.55862,-0.40943 0.1544,-0.5921 1.05236,-3.65237 1.85009,-6.30518 0.37919,-1.26103 0.91275,-3.10345 1.18569,-4.09426 0.27291,-0.99082 0.64503,-2.24366 0.82695,-2.78411 0.18188,-0.54044 0.46305,-1.64589 0.62475,-2.45655 0.16171,-0.81067 0.43377,-1.76873 0.60458,-2.12903 0.17084,-0.36029 0.45262,-1.31835 0.62623,-2.12902 0.17355,-0.81066 0.46425,-1.91612 0.64597,-2.45656 0.18169,-0.54044 0.57307,-1.86698 0.86972,-2.94787 0.29666,-1.08089 0.8163,-2.92331 1.15475,-4.09427 0.33845,-1.17096 0.83484,-2.93969 1.10303,-3.9305 0.26819,-0.99081 0.78773,-2.83323 1.15451,-4.09427 0.36678,-1.26103 0.87854,-3.02976 1.13723,-3.93049 0.2587,-0.90074 0.70615,-2.42846 0.99435,-3.39491 0.2882,-0.96647 0.524,-2.04477 0.524,-2.39622 0,-0.35145 0.16865,-0.95415 0.37481,-1.33932 0.38892,-0.72675 0.99094,-2.7111 1.76187,-5.80745 0.81546,-3.27516 1.21673,-4.73596 1.61954,-5.89574 1.51969,-4.37589 1.71641,-5.16534 1.41933,-5.6962 -0.28309,-0.50584 -0.92763,-0.53851 -7.08341,-0.35908 -3.72461,0.10857 -6.94617,0.0759 -7.15905,-0.0727 -0.57384,-0.40045 -0.69651,-34.12112 -0.12541,-34.47409 0.22214,-0.1373 3.15511,-0.34842 6.51772,-0.46915 7.96276,-0.28591 8.82105,-0.40869 9.08151,-1.2991 0.11284,-0.38576 0.83478,-2.02793 1.6043,-3.64927 0.76953,-1.62133 1.70135,-3.61114 2.07075,-4.4218 1.71733,-3.76895 2.85574,-6.24787 3.87652,-8.44138 0.60966,-1.31003 1.10844,-2.46684 1.10844,-2.57069 0,-0.10386 0.59966,-1.46401 1.3326,-3.02257 0.73293,-1.55857 1.46194,-3.12854 1.61998,-3.48884 0.15807,-0.3603 0.81126,-1.80062 1.45151,-3.20071 0.64027,-1.4001 1.16411,-2.63949 1.16411,-2.7542 0,-0.11471 0.53179,-1.32747 1.18177,-2.69503 0.64994,-1.36756 1.36594,-2.92865 1.5911,-3.4691 0.22515,-0.54044 0.73808,-1.71959 1.13981,-2.62033 0.40173,-0.90074 0.93857,-2.11673 1.19297,-2.70221 0.2544,-0.58548 0.6747,-1.54354 0.93399,-2.12903 1.42083,-3.2083 1.82136,-4.15711 1.82136,-4.31476 0,-0.096 0.52645,-1.32009 1.16994,-2.72019 1.91887,-4.1753 2.10547,-4.60113 2.10547,-4.80516 0,-0.10741 0.42092,-1.11689 0.93539,-2.24329 0.51447,-1.12641 1.495,-3.37456 2.17894,-4.99589 0.68397,-1.62133 1.49634,-3.53745 1.80531,-4.25804 0.30894,-0.72059 0.81322,-1.89974 1.12062,-2.62033 0.3074,-0.72059 0.75996,-1.75235 1.00571,-2.29279 0.46112,-1.0141 1.29995,-2.95635 2.26338,-5.24066 0.3039,-0.7206 0.76563,-1.70139 1.02603,-2.17956 0.26043,-0.47817 0.47349,-1.09264 0.47349,-1.36551 0,-0.27286 0.22109,-0.95025 0.49131,-1.50528 0.27023,-0.55505 0.71241,-1.4633 0.98263,-2.01834 0.27022,-0.55504 0.49131,-1.15919 0.49131,-1.34255 0,-0.18337 0.21188,-0.79784 0.47087,-1.36552 0.25896,-0.56766 0.85773,-1.99018 1.33061,-3.16114 0.47287,-1.17096 1.07165,-2.59348 1.3306,-3.16115 0.25899,-0.56766 0.47088,-1.19609 0.47088,-1.39649 0,-0.20041 0.13989,-0.62031 0.31083,-0.93313 0.62744,-1.14805 2.96458,-6.80487 2.96458,-7.17549 0,-0.21027 0.20308,-0.79959 0.45125,-1.30959 0.24822,-0.51001 0.66944,-1.44317 0.93606,-2.07369 0.26661,-0.63051 0.80051,-1.8258 1.18645,-2.6562 0.38591,-0.8304 0.70166,-1.66597 0.70166,-1.85682 0,-0.19086 0.20307,-0.76428 0.45125,-1.27429 0.78237,-1.60763 1.4494,-3.19656 1.62683,-3.87516 0.37046,-1.41674 1.26926,-3.62801 1.66421,-4.09427 0.22889,-0.27022 0.53507,-0.78609 0.68043,-1.14639 0.24927,-0.61799 0.27239,-0.62066 0.40803,-0.0471 0.0791,0.33439 -0.0173,0.7692 -0.21445,0.96624 -0.19705,0.19704 -0.35826,0.79242 -0.35826,1.32306 0,0.53064 -0.30386,2.30673 -0.67526,3.94687 -0.37137,1.64015 -0.87709,4.01384 -1.12383,5.27487 -0.24674,1.26104 -0.69275,3.43652 -0.99114,4.83442 -0.29842,1.39789 -0.67094,3.31402 -0.82783,4.25804 -0.36619,2.20324 -0.90866,4.84372 -1.46297,7.12085 -0.2412,0.99081 -0.61004,2.75954 -0.81966,3.9305 -0.20967,1.17096 -0.57396,3.08708 -0.80959,4.25804 -0.23564,1.17096 -0.59052,3.01338 -0.78866,4.09427 -0.37909,2.06815 -1.10627,5.55049 -1.84668,8.84362 -0.243,1.08089 -0.52803,2.55482 -0.63339,3.27542 -0.10537,0.72059 -0.39876,2.19453 -0.65198,3.27541 -0.51653,2.20479 -1.02428,4.87292 -1.52352,8.00569 -0.18493,1.16047 -0.46524,2.35097 -0.62292,2.64556 -0.15765,0.29459 -0.37795,1.33493 -0.48955,2.31187 -0.11155,0.97694 -0.40225,2.66061 -0.6459,3.7415 -0.24366,1.08088 -0.68646,3.43918 -0.984,5.24066 -0.29754,1.80148 -0.69472,4.08608 -0.88263,5.0769 -0.18792,0.99081 -0.53082,2.98063 -0.762,4.4218 -0.44227,2.7572 -0.90981,5.36805 -1.64232,9.17117 -0.66953,3.47605 -1.82945,9.97843 -2.57088,14.41183 -0.27114,1.62132 -0.64168,3.68484 -0.82344,4.58558 -0.36841,1.82586 -0.87823,4.6651 -1.49971,8.35231 -0.6709,3.98051 -1.18517,6.89115 -1.6494,9.33493 -0.70709,3.72224 -1.46231,8.08138 -1.67406,9.66248 -0.10859,0.81066 -0.40324,2.2008 -0.65479,3.0892 -0.25156,0.88841 -0.45738,2.24219 -0.45738,3.00844 0,0.76624 -0.16141,1.80809 -0.35866,2.31523 -0.19728,0.50713 -0.5693,2.2486 -0.82674,3.86993 -0.25746,1.62133 -0.67848,4.12702 -0.93563,5.56821 -0.25715,1.44118 -0.62881,3.57839 -0.82596,4.74935 -0.19711,1.17096 -0.56373,3.16078 -0.81466,4.42181 -0.25093,1.26104 -0.70405,3.76673 -1.00693,5.56821 -0.30284,1.80147 -0.82776,4.66228 -1.16644,6.35735 -0.33871,1.69506 -0.61581,3.44269 -0.61581,3.88363 0,0.44094 -0.21445,1.78085 -0.47654,2.97759 -0.54359,2.48206 -1.00893,5.33018 -1.63984,10.03688 -0.24149,1.80147 -0.59468,4.23347 -0.78489,5.40443 -0.1902,1.17096 -0.56821,3.60295 -0.84004,5.40443 -0.27183,1.80148 -0.66154,4.30718 -0.86599,5.56821 -0.20445,1.26104 -0.5651,3.69303 -0.80146,5.40443 -0.58905,4.2654 -1.09867,7.54289 -1.65517,10.64511 -0.25852,1.44117 -0.46992,3.07724 -0.46979,3.63569 0,1.41203 -1.01577,2.66696 -7.58327,9.36535 -15.43435,15.74193 -22.31688,22.53721 -22.8266,22.53721 -0.30819,0 -1.00176,-0.40534 -1.54128,-0.90074 z M 217.77169,785.8175 c -1.6998,-0.2667 -9.21433,-2.10217 -11.44665,-2.79592 -0.62103,-0.19298 -1.91072,-0.55193 -2.86599,-0.79763 -3.08813,-0.79432 -5.72085,-1.5453 -11.39937,-3.25185 -0.90074,-0.27067 -2.44837,-0.69442 -3.43918,-0.94177 -0.99081,-0.2472 -2.90693,-0.7635 -4.25804,-1.14713 -6.61965,-1.87965 -16.04305,-3.76545 -22.60037,-4.52265 l -2.12902,-0.24585 0.0997,-4.58557 c 0.0548,-2.52203 0.23914,-5.98583 0.40959,-7.69725 0.17041,-1.71135 0.45266,-5.83838 0.62714,-9.17115 0.17451,-3.3327 0.46694,-7.45973 0.64988,-9.17115 0.44667,-4.17885 1.40089,-19.19123 2.29017,-36.02955 0.418,-7.9149 0.42168,-22.8228 0.007,-28.82363 -0.56744,-8.21332 -1.29036,-16.45512 -1.64882,-18.79749 -0.2054,-1.34239 -0.22551,-2.37637 -0.0496,-2.5523 0.17589,-0.17592 0.94689,0.47176 1.90314,1.59873 0.8841,1.04191 1.88226,2.21611 2.21808,2.60929 0.57422,0.67224 1.58934,2.23818 3.68065,5.6778 0.49292,0.81066 1.72392,2.57939 2.7356,3.93052 1.01168,1.35105 2.08686,2.8485 2.38932,3.32753 0.30245,0.47895 0.88691,1.23975 1.29883,1.69065 0.41192,0.45082 0.97004,1.14232 1.24027,1.53675 0.42125,0.61485 2.41984,3.37785 4.48823,6.20482 2.6074,3.56378 8.3793,12.0021 9.00752,13.16873 0.30684,0.56985 0.68811,1.12275 0.84723,1.22865 0.15912,0.1059 0.71872,0.90225 1.24357,1.7697 0.52485,0.86745 1.10467,1.8255 1.28852,2.12902 1.11921,1.848 3.82739,6.06023 5.9963,9.32663 0.93182,1.40332 1.69424,2.6709 1.69424,2.81685 0,0.14595 0.44883,0.885 0.9974,1.64227 0.5486,0.75728 1.14047,1.70063 1.31534,2.09625 0.17484,0.3957 1.11708,1.97228 2.09387,3.50348 0.97683,1.53127 2.45345,3.88957 3.28142,5.2407 0.82795,1.35112 2.30533,3.56197 3.28308,4.9131 3.98631,5.50852 6.99274,9.92062 7.70013,11.30017 0.18474,0.3603 0.6263,1.09733 0.98125,1.6377 0.35493,0.54045 0.79796,1.35113 0.9845,1.8015 0.18657,0.45038 0.47955,1.11368 0.65108,1.47398 1.44593,3.03667 1.65019,4.4826 1.06435,7.53345 -0.2076,1.0809 -0.54428,3.14437 -0.7482,4.58557 -0.20397,1.4412 -0.56852,4.02053 -0.81015,5.73195 -0.99978,7.08075 -1.19946,8.43518 -1.49699,10.1538 -0.1715,0.99083 -0.46177,3.0543 -0.64503,4.58558 -0.18326,1.53127 -0.4753,3.21142 -0.64899,3.73372 -0.1737,0.5223 -0.31582,1.41405 -0.31582,1.98165 0,0.93818 -0.51588,1.88498 -0.96624,1.77345 -0.0991,-0.0248 -0.54864,-0.10237 -0.999,-0.1731 z m 241.41534,3.90255 c -0.18762,-0.67552 -0.3527,-1.8915 -0.36685,-2.70217 -0.0141,-0.81068 -0.16449,-2.28465 -0.33402,-3.2754 -0.16957,-0.99083 -0.51981,-3.57023 -0.77831,-5.73203 -0.43894,-3.67087 -0.59911,-4.84747 -1.50492,-11.05447 -0.1906,-1.30613 -0.47726,-3.729 -0.63704,-5.38433 -0.15977,-1.65525 -0.44598,-3.58702 -0.63605,-4.29292 -0.60261,-2.23785 -0.57942,-6.35123 0.043,-7.62053 0.30376,-0.61957 0.6412,-1.34752 0.74981,-1.61775 0.273,-0.67912 0.77696,-1.49092 2.30082,-3.7059 0.72059,-1.04745 1.45755,-2.15827 1.6377,-2.46855 0.18015,-0.31035 0.51621,-0.77992 0.74676,-1.04355 0.23059,-0.26355 0.96756,-1.22437 1.63771,-2.1351 0.67019,-0.91072 1.40263,-1.86877 1.62765,-2.12902 0.22505,-0.26025 0.92177,-1.06275 1.54823,-1.78335 0.62649,-0.7206 1.14246,-1.41015 1.14666,-1.5324 0.004,-0.12225 0.20225,-0.41708 0.44021,-0.65513 0.52397,-0.52417 5.05957,-6.51442 7.10113,-9.3786 0.81054,-1.13707 2.46918,-3.42172 3.68589,-5.0769 1.21669,-1.65517 2.42112,-3.30427 2.67645,-3.6645 0.25534,-0.3603 1.53462,-2.12902 2.84286,-3.93052 1.30823,-1.8015 3.02016,-4.1598 3.8043,-5.2407 0.7841,-1.08083 1.86934,-2.5548 2.41161,-3.2754 0.54231,-0.7206 2.46312,-3.3 4.26849,-5.73195 1.80541,-2.43203 3.56733,-4.73738 3.91537,-5.12303 0.34808,-0.38572 0.63284,-0.78502 0.63284,-0.88732 0,-0.1023 1.216,-1.74473 2.70222,-3.64988 1.48622,-1.90507 3.33873,-4.37887 4.11671,-5.49727 1.16146,-1.66973 3.85339,-4.8282 6.61027,-7.75605 0.27023,-0.28703 1.66242,-1.8447 3.09378,-3.46163 1.43133,-1.61692 3.14031,-3.52937 3.79768,-4.24996 3.72097,-4.07874 8.50046,-9.52775 9.09861,-10.37323 0.23753,-0.3357 0.56917,-0.52551 0.73697,-0.42178 0.18234,0.11271 0.30399,7.19903 0.30229,17.6108 -0.003,13.23787 0.1133,18.44497 0.48073,21.68032 0.49606,4.36755 0.84476,8.36048 1.63051,18.66983 0.24716,3.2427 0.53706,6.41167 0.64427,7.0422 0.10717,0.63052 0.34005,3.20985 0.51748,5.73195 0.17743,2.5221 0.46786,5.61735 0.64542,6.8784 0.17756,1.26097 0.48453,4.1352 0.68217,6.387 0.19764,2.25187 0.56187,6.01042 0.80936,8.35237 0.24749,2.34188 0.61453,5.87933 0.81564,7.86098 0.20111,1.98165 0.57831,4.67572 0.83818,5.98695 0.2599,1.31115 0.47254,3.18525 0.47254,4.16467 0,0.97943 0.23348,2.4684 0.5188,3.30878 0.43177,1.27177 0.44548,1.5966 0.0819,1.9365 -0.24028,0.22462 -2.35302,0.80947 -4.69494,1.2996 -2.34192,0.49012 -4.92132,1.08517 -5.73198,1.32232 -0.81066,0.23708 -2.28093,0.52688 -3.26723,0.64395 -0.98632,0.11715 -1.94438,0.33075 -2.12902,0.47475 -0.18467,0.14393 -0.999,0.3582 -1.80966,0.4761 -1.40113,0.20378 -3.87174,0.73245 -7.86102,1.6821 -0.99081,0.23588 -2.61214,0.59513 -3.60295,0.79838 -3.9381,0.8079 -7.09534,1.63012 -10.15379,2.64442 -0.63051,0.2091 -1.58858,0.52673 -2.12902,0.70575 -0.54044,0.17903 -1.5722,0.46808 -2.29279,0.64223 -0.72059,0.17422 -2.55745,0.75082 -4.08189,1.2813 -1.52444,0.53047 -3.07207,0.96547 -3.43918,0.96652 -0.36711,0 -1.06287,0.20835 -1.54613,0.46043 -0.48329,0.25215 -1.36765,0.55725 -1.96525,0.67807 -0.59763,0.12083 -1.67616,0.41393 -2.39676,0.65145 -0.72058,0.23745 -2.19452,0.68798 -3.27541,1.0011 -1.08089,0.31313 -2.48112,0.75398 -3.11164,0.97973 -0.63052,0.22567 -2.32555,0.73717 -3.76673,1.1367 -1.44119,0.39945 -3.10441,0.93217 -3.69598,1.1838 -0.59161,0.2517 -1.40227,0.45847 -1.80148,0.4596 -0.39924,0 -1.14803,0.22215 -1.66404,0.49132 -0.51601,0.2691 -1.35658,0.48923 -1.86797,0.48923 -0.79543,0 -0.97909,-0.17745 -1.27089,-1.22828 z m -146.59207,34.20322 c -1.62133,-0.77775 -5.30617,-2.56049 -8.18853,-3.96164 -6.34439,-3.08423 -13.70522,-6.62865 -16.37708,-7.88595 -1.08088,-0.50865 -3.66027,-1.72403 -5.73198,-2.7009 -4.79796,-2.26223 -7.4591,-3.46418 -10.64509,-4.80788 -0.72059,-0.3039 -1.70138,-0.7656 -2.17956,-1.026 -0.47815,-0.26047 -1.02426,-0.47347 -1.21358,-0.47347 -0.18928,0 -1.272,-0.42848 -2.40602,-0.95205 -1.13401,-0.52365 -2.57772,-1.13078 -3.20824,-1.34925 -0.63051,-0.21848 -1.73597,-0.62123 -2.45656,-0.8952 -2.90237,-1.10318 -8.57595,-3.08835 -9.5064,-3.32625 -0.54467,-0.13928 -1.30879,-0.42368 -1.69804,-0.63195 -0.38929,-0.20835 -0.92894,-0.37875 -1.19926,-0.37875 -0.27036,0 -0.90647,-0.1683 -1.4136,-0.37395 -1.32252,-0.53625 -6.69967,-2.4303 -9.76569,-3.43988 -2.24745,-0.74002 -4.41417,-1.5264 -7.60594,-2.76067 -0.69262,-0.26775 -0.71876,-0.41175 -0.54395,-2.99483 0.10101,-1.49242 0.39158,-3.8721 0.64572,-5.28817 0.2541,-1.416 0.46203,-3.32363 0.46203,-4.23915 0,-0.91553 0.21258,-2.99963 0.47235,-4.63133 0.44555,-2.79862 0.65344,-4.56697 1.65792,-14.10307 0.2277,-2.1618 0.60604,-5.6406 0.84076,-7.7307 0.45391,-4.04183 0.43668,-4.14428 -1.3441,-7.99133 -0.16678,-0.3603 -0.45587,-1.0236 -0.64241,-1.4739 -0.18653,-0.45037 -0.62956,-1.26105 -0.98452,-1.8015 -0.35493,-0.54045 -0.80517,-1.35082 -1.00054,-1.80082 -0.19535,-0.45 -1.92942,-3.14753 -3.85346,-5.99438 -5.21073,-7.70992 -8.90013,-13.56832 -11.24316,-17.8533 -0.42417,-0.77572 -0.9237,-1.66005 -1.11007,-1.96522 -0.18638,-0.30518 -0.66956,-1.14443 -1.07375,-1.86503 -0.40419,-0.7206 -0.98868,-1.70025 -1.29886,-2.1771 -0.31016,-0.47677 -1.56559,-2.54025 -2.78981,-4.58557 -1.22425,-2.04525 -2.40339,-4.01348 -2.62033,-4.37378 -0.21696,-0.36022 -0.56225,-0.76372 -0.76736,-0.89647 -0.20508,-0.13283 -0.4658,-0.61185 -0.57942,-1.06455 -0.11363,-0.4527 -0.35116,-0.82305 -0.52787,-0.82305 -0.17671,0 -0.32132,-0.17633 -0.32132,-0.3918 0,-0.21555 -0.34856,-0.91568 -0.7746,-1.5558 -0.42603,-0.6402 -3.07221,-4.6278 -5.88038,-8.86125 -2.80818,-4.23345 -5.84309,-8.72895 -6.74422,-9.99 -0.90116,-1.26105 -2.31572,-3.25088 -3.14348,-4.42185 -0.82776,-1.1709 -2.00754,-2.83659 -2.62174,-3.7014 -1.327,-1.86855 -5.93957,-7.94604 -6.60618,-8.7043 -0.25732,-0.2927 -2.50396,-3.11155 -4.99253,-6.26414 -6.66094,-8.43822 -7.74972,-9.55651 -9.53613,-9.7949 l -1.46229,-0.19511 -0.20091,-2.62034 c -0.56082,-7.31449 -1.00385,-11.71485 -1.41799,-14.08428 -0.25191,-1.44118 -0.70294,-4.09427 -1.00228,-5.89575 -0.29937,-1.80148 -0.74522,-4.30717 -0.99084,-5.56821 -0.65807,-3.37852 -1.71822,-9.49768 -2.09968,-12.11903 -0.18349,-1.26103 -0.4277,-2.69812 -0.54267,-3.19353 -0.1544,-0.66534 -0.0846,-0.90074 0.26698,-0.90074 0.60569,0 7.11892,6.77772 13.5347,14.08429 0.87003,0.99081 1.7387,1.96374 1.93041,2.1621 0.1917,0.19833 1.52769,1.65962 2.96886,3.24728 1.44119,1.58769 2.77533,3.04672 2.96472,3.24233 0.18941,0.19564 1.13382,1.24004 2.09865,2.32093 2.03214,2.27657 6.24867,6.97879 6.72813,7.50316 0.18015,0.19701 0.82848,0.9477 1.44072,1.6682 0.96956,1.14095 6.15084,6.82501 7.58073,8.31634 0.27795,0.28991 1.46663,1.63254 2.64145,2.98364 1.77934,2.04628 3.24083,3.87839 8.23037,10.31756 0.44506,0.57437 7.13661,9.34046 10.62613,13.9205 1.85294,2.43202 3.96731,5.1666 4.69865,6.07687 0.73134,0.9102 1.59828,2.08935 1.92654,2.62028 0.32826,0.53092 1.90671,2.6946 3.50764,4.80825 1.60096,2.11357 3.86885,5.17762 5.03981,6.80895 1.17096,1.63132 3.30817,4.54702 4.74936,6.47932 1.44118,1.9323 3.27584,4.46918 4.077,5.6376 0.80117,1.16843 1.54145,2.19803 1.64508,2.2881 0.1036,0.0901 0.83952,1.15868 1.63532,2.37473 0.79582,1.21597 1.56634,2.21085 1.71226,2.21085 0.14592,0 0.26527,0.15277 0.26527,0.33945 0,0.30682 0.86065,1.53345 4.41094,6.28695 0.63651,0.85222 1.15726,1.68742 1.15726,1.8561 0,0.1686 0.11055,0.35565 0.24566,0.41572 0.13511,0.06 0.68784,0.7725 1.22828,1.5831 0.54044,0.81068 1.09537,1.62135 1.23313,1.8015 1.33794,1.74938 2.5336,3.42983 2.5336,3.56085 0,0.16403 4.46239,6.8361 6.65263,9.94688 0.66461,0.94395 1.20836,1.8003 1.20836,1.90305 0,0.10275 0.47904,0.82822 1.06452,1.61235 0.58548,0.78397 1.65408,2.39325 2.37468,3.57615 0.72058,1.18282 1.42071,2.15385 1.55581,2.15775 0.13511,0.007 0.24566,0.156 0.24566,0.33802 0,0.18203 0.51588,1.06485 1.14639,1.96193 0.63052,0.897 1.1464,1.7121 1.1464,1.81132 0,0.21795 1.3819,2.21325 1.69913,2.45333 0.12384,0.0937 0.38731,0.53595 0.58548,0.98265 0.19819,0.4467 0.94135,1.69657 1.65149,2.7774 0.71014,1.0809 1.90672,2.997 2.65905,4.25805 0.75233,1.26105 1.7871,2.8299 2.29951,3.4863 0.51237,0.65647 0.93159,1.3461 0.93159,1.53247 0,0.18638 0.18424,0.53933 0.40942,0.78435 0.39872,0.43388 0.88034,1.20435 1.79824,2.87678 0.24716,0.45037 0.69907,1.21132 1.00424,1.6911 1.81357,2.8512 7.92451,13.41037 7.92451,13.69282 0,0.18593 0.13298,0.33803 0.29551,0.33803 0.16252,0 0.45803,0.40537 0.65672,0.90075 0.19865,0.49537 0.7441,1.56397 1.21213,2.37465 0.46803,0.81067 1.40482,2.50575 2.08182,3.76672 1.10382,2.05613 2.25624,4.18568 4.43127,8.18858 0.39155,0.7206 1.27008,2.34195 1.95225,3.60292 1.05017,1.94123 2.64152,4.76123 3.7892,6.7146 0.15876,0.27023 1.21704,2.01428 2.35171,3.8757 1.13467,1.86143 2.39249,3.9249 2.79515,4.58558 1.63983,2.69055 4.34477,8.33242 4.34477,9.06209 0,0.42915 0.14739,0.87143 0.32754,0.98273 0.4672,0.28875 0.40582,1.14675 -0.0819,1.14495 -0.22518,0 -1.73597,-0.6378 -3.3573,-1.41548 z m 32.27916,3.62783 c -0.66937,-1.45073 -3.21404,-6.08842 -4.26833,-7.77907 -0.16852,-0.27023 -0.69822,-1.302 -1.17712,-2.29283 -0.4789,-0.99082 -1.04496,-2.02252 -1.25789,-2.29275 -0.21297,-0.27022 -0.74689,-1.302 -1.18655,-2.29282 -0.43966,-0.99083 -0.8824,-1.87515 -0.98387,-1.96523 -0.41634,-0.36952 -2.52502,-4.18432 -5.78527,-10.46595 -0.79036,-1.5228 -1.55897,-2.92305 -1.70803,-3.11167 -0.14906,-0.18863 -0.82197,-1.37468 -1.49529,-2.63573 -0.67336,-1.26097 -2.07148,-3.76672 -3.1069,-5.56815 -1.03545,-1.8015 -2.45613,-4.28947 -3.15707,-5.52885 -0.70094,-1.23937 -1.49556,-2.58975 -1.76578,-3.00082 -0.27022,-0.41108 -1.22828,-1.95263 -2.12902,-3.42563 -0.90074,-1.473 -1.85879,-3.01777 -2.12902,-3.43282 -0.27022,-0.41505 -1.00719,-1.59705 -1.63771,-2.62665 -0.63051,-1.02968 -1.36748,-2.20883 -1.6377,-2.62035 -0.27023,-0.4116 -0.97552,-1.53795 -1.56732,-2.5032 -0.59181,-0.96518 -1.66634,-2.56553 -2.38782,-3.55635 -0.72147,-0.99083 -1.45542,-2.09625 -1.63105,-2.45655 -0.1756,-0.3603 -0.57503,-1.04453 -0.8876,-1.52055 -0.31258,-0.47595 -1.05223,-1.6551 -1.64364,-2.62035 -1.63074,-2.66123 -1.79054,-2.91165 -2.9371,-4.60125 -0.58548,-0.8628 -1.06451,-1.65285 -1.06451,-1.75575 0,-0.1029 -0.93107,-1.6152 -2.06908,-3.36068 -1.13801,-1.74547 -2.6953,-4.20532 -3.46067,-5.46637 -0.76533,-1.26105 -1.9681,-3.17715 -2.67277,-4.25805 -1.08321,-1.66148 -2.20258,-3.46823 -4.66651,-7.53218 -0.21802,-0.35955 -0.7843,-1.17022 -1.25845,-1.80142 -0.47412,-0.63128 -1.28479,-1.9116 -1.80148,-2.84513 -0.51667,-0.9336 -1.56585,-2.59642 -2.33148,-3.6951 -0.76562,-1.09875 -1.39204,-2.1282 -1.39204,-2.28772 0,-0.15945 -0.11346,-0.33908 -0.25218,-0.39915 -0.13872,-0.06 -0.81984,-0.99353 -1.51357,-2.07443 -0.69377,-1.08082 -1.6211,-2.48107 -2.06076,-3.1116 -0.43963,-0.63052 -1.78075,-2.62035 -2.98027,-4.42185 -1.19949,-1.80142 -2.25945,-3.34912 -2.35545,-3.43912 -0.096,-0.0901 -0.6163,-0.8271 -1.15625,-1.63778 -0.53992,-0.8106 -1.09638,-1.62127 -1.2365,-1.80142 -0.44618,-0.57353 -3.61698,-4.9782 -5.31342,-7.38105 -1.34462,-1.90463 -5.22657,-7.1559 -8.51607,-11.52008 -0.3603,-0.47797 -1.87109,-2.41462 -3.3573,-4.30357 -1.48623,-1.88895 -2.70222,-3.55965 -2.70222,-3.71265 0,-0.37583 20.42228,-20.73995 20.79915,-20.73995 0.16374,0 3.39961,3.07303 7.19084,6.82898 3.79126,3.75594 10.2662,10.16757 14.38877,14.24802 4.12256,4.08052 7.66916,7.41907 7.88127,7.41907 0.37543,0 1.81906,-1.71562 1.81906,-2.16172 0,-0.1227 0.28441,-0.82875 0.632,-1.56908 0.34762,-0.74032 0.99644,-2.1567 1.44187,-3.14752 0.44545,-0.99083 1.35379,-2.98065 2.01857,-4.42185 0.66478,-1.44113 1.57309,-3.43098 2.01847,-4.42179 0.44539,-0.99081 1.01181,-2.24366 1.25868,-2.7841 2.20161,-4.81931 2.9767,-6.49134 3.7984,-8.19393 0.52309,-1.08383 0.95105,-2.06679 0.95105,-2.18428 0,-0.11752 0.67716,-1.66273 1.50483,-3.43381 0.82763,-1.77108 1.8056,-3.8834 2.17326,-4.69407 0.36771,-0.81066 1.17405,-2.57939 1.79189,-3.93049 0.61787,-1.35111 1.32271,-2.89874 1.56637,-3.43919 1.04604,-2.3203 2.90863,-6.347 3.6384,-7.86571 0.43408,-0.9033 0.78921,-1.89303 0.78921,-2.19938 0,-0.64342 -0.98106,-1.24236 -2.62034,-1.59968 -0.63052,-0.13741 -2.17815,-0.56347 -3.43918,-0.94676 -1.26104,-0.38329 -3.02976,-0.89347 -3.9305,-1.13372 -2.94693,-0.7861 -5.22301,-1.43646 -6.22329,-1.77822 -0.54044,-0.18467 -2.23547,-0.65561 -3.76673,-1.04656 -1.53125,-0.39095 -3.33981,-0.91283 -4.019,-1.1597 -0.67919,-0.24683 -1.52172,-0.44883 -1.87226,-0.44883 -0.35053,0 -1.12137,-0.20402 -1.71294,-0.45341 -0.5916,-0.24939 -1.73892,-0.61712 -2.54958,-0.81715 -0.81067,-0.20007 -2.50569,-0.66845 -3.76673,-1.04083 -1.26103,-0.37241 -2.80867,-0.80926 -3.43918,-0.97077 -2.02621,-0.51902 -5.39196,-1.46352 -13.4292,-3.7685 -0.99082,-0.28413 -2.46476,-0.71967 -3.27543,-0.96781 -0.81066,-0.24815 -2.0635,-0.55453 -2.78409,-0.68087 -0.7206,-0.12633 -1.45757,-0.34188 -1.63771,-0.47902 -0.18015,-0.13715 -1.17247,-0.42263 -2.20517,-0.63442 -1.03271,-0.21179 -1.96263,-0.52256 -2.06646,-0.69059 -0.10387,-0.16802 -0.52381,-0.3055 -0.93321,-0.3055 -0.40939,0 -1.76407,-0.30186 -3.01043,-0.6708 -2.42263,-0.71719 -4.86468,-1.41485 -7.50673,-2.14465 -0.90074,-0.24883 -2.66946,-0.75933 -3.9305,-1.13454 -2.20199,-0.65514 -3.79162,-1.10673 -7.69722,-2.18663 -0.99082,-0.27395 -2.39105,-0.69229 -3.11164,-0.92962 -0.7206,-0.23731 -1.89975,-0.53246 -2.62034,-0.65584 -0.72059,-0.12338 -1.48075,-0.35921 -1.68926,-0.5241 -0.20852,-0.16489 -1.09288,-0.42525 -1.96525,-0.5786 -0.87238,-0.15336 -2.02834,-0.42967 -2.56878,-0.61404 -0.54044,-0.18438 -2.08807,-0.64631 -3.43918,-1.02652 -4.12663,-1.16133 -5.99421,-1.69542 -7.53346,-2.15444 -0.81066,-0.24176 -1.96289,-0.53667 -2.56049,-0.65535 -0.59763,-0.11869 -1.482,-0.4221 -1.96525,-0.67424 -1.09049,-0.5689 -1.84229,-0.58606 -2.28542,-0.0521 -0.38469,0.46353 -0.33275,0.55161 1.89971,3.2213 1.99099,2.38093 3.68524,4.07056 6.22162,6.20472 1.17096,0.98524 2.20272,1.86709 2.29279,1.95961 0.17798,0.18287 3.56077,2.95282 4.09427,3.35256 0.18015,0.13497 0.91711,0.75799 1.6377,1.38445 0.7206,0.62648 1.41021,1.14246 1.53244,1.14665 0.12224,0.005 0.42059,0.19185 0.66298,0.41703 0.24238,0.22518 1.39522,1.21492 2.56183,2.19941 3.39634,2.86612 5.14479,4.53232 15.54195,14.81077 5.40905,5.34728 11.512,11.37035 13.56211,13.38456 l 3.72752,3.66218 -9.94878,9.95278 c -5.4718,5.47402 -10.02336,9.95175 -10.11454,9.95053 -0.0912,0 -0.51431,-0.51404 -0.94031,-1.13955 -0.75642,-1.11079 -1.20545,-1.66512 -2.87339,-3.54721 -0.44952,-0.50723 -2.60713,-3.234 -4.79472,-6.05951 -2.18758,-2.8255 -4.14438,-5.28465 -4.34847,-5.4648 -0.20409,-0.18015 -1.97612,-2.39105 -3.93787,-4.91312 -1.96174,-2.52207 -3.71684,-4.75492 -3.90027,-4.9619 -0.55364,-0.62481 -1.98903,-2.41777 -4.33304,-5.41252 -2.6601,-3.39857 -8.20666,-10.17551 -9.5125,-11.62265 -0.51339,-0.5689 -2.10498,-2.33681 -3.53688,-3.92866 -1.43192,-1.59185 -3.57073,-3.92687 -4.7529,-5.18888 -1.18219,-1.26205 -3.54049,-3.90901 -5.24066,-5.88216 -1.7002,-1.97317 -3.31236,-3.8228 -3.58258,-4.11031 -1.48662,-1.58174 -6.34573,-6.96328 -7.68881,-8.51546 -1.58743,-1.83456 -5.83175,-6.58424 -6.72302,-7.52353 -0.27023,-0.28477 -1.44938,-1.61573 -2.62034,-2.9577 -1.17096,-1.34198 -2.71859,-3.10022 -3.43918,-3.90725 -1.32199,-1.48055 -12.17911,-12.3624 -18.62221,-18.66465 -2.2338,-2.18496 -3.48626,-3.6563 -3.48521,-4.09427 0,-0.376 -0.21313,-1.34692 -0.47559,-2.15758 -0.26246,-0.81067 -0.71653,-2.21091 -1.00909,-3.11165 -0.29256,-0.90074 -0.6523,-2.22728 -0.79946,-2.94787 -0.1472,-0.7206 -0.42007,-1.75235 -0.60641,-2.29279 -0.18634,-0.54045 -0.63907,-2.01439 -1.00601,-3.27542 -0.36695,-1.26103 -0.90575,-3.05195 -1.1973,-3.97982 -0.29154,-0.92786 -0.48106,-2.03331 -0.42112,-2.45656 0.093,-0.65756 0.25191,-0.7457 1.09154,-0.60576 2.50365,0.41727 6.56527,0.13914 8.43229,-0.57744 4.26848,-1.63826 6.71532,-3.9285 8.37131,-7.83559 0.86477,-2.04026 1.01043,-6.58058 0.25741,-8.02387 -0.25211,-0.48327 -0.5577,-1.33078 -0.67909,-1.88337 -0.12135,-0.55257 -0.34641,-1.00468 -0.50009,-1.00468 -0.15372,0 -0.3827,-0.33164 -0.5089,-0.73697 -0.29155,-0.93648 -2.95803,-4.30722 -4.62315,-5.84419 -1.42815,-1.31822 -3.71472,-2.95501 -6.16421,-4.41248 -3.8413,-2.28565 -10.66943,-4.2756 -15.55822,-4.53421 -1.35111,-0.0715 -2.56279,-0.14438 -2.69262,-0.16205 -0.20006,-0.0272 -1.04535,-1.71624 -2.22902,-4.4539 -0.15578,-0.3603 -0.58607,-1.34712 -0.95622,-2.19294 -0.37013,-0.84582 -0.67297,-1.73755 -0.67297,-1.98163 0,-0.24407 -0.13737,-0.58379 -0.3053,-0.75493 -0.16793,-0.17115 -0.83579,-1.6307 -1.48409,-3.24345 -0.6483,-1.61276 -1.45756,-3.52888 -1.79834,-4.25805 -0.34074,-0.72916 -0.95521,-2.21011 -1.36549,-3.291 -0.41024,-1.08089 -0.86382,-2.10527 -1.00797,-2.27641 -0.68421,-0.81231 -0.15427,-1.07442 2.60025,-1.28615 8.12982,-0.6249 12.85093,-4.10309 13.84299,-10.19857 0.32135,-1.9744 -0.25014,-5.90172 -1.14325,-7.85661 -0.2469,-0.54044 -0.71944,-1.5722 -1.05004,-2.29279 -1.87589,-4.08861 -8.34654,-11.20066 -14.17946,-15.58494 -1.89434,-1.42385 -3.59163,-2.70293 -3.77177,-2.84239 -2.62983,-2.03595 -10.37269,-6.30205 -11.43802,-6.30205 -0.21241,0 -0.52626,-0.13547 -0.6974,-0.30104 -0.17114,-0.16557 -1.18868,-0.46091 -2.26125,-0.6563 -1.07253,-0.19539 -2.09692,-0.5021 -2.27641,-0.68158 -0.17946,-0.17949 -0.86072,-0.32634 -1.5139,-0.32634 -1.39847,0 -2.05686,-0.63513 -3.39532,-3.27541 -0.50229,-0.99081 -1.46713,-2.83323 -2.14413,-4.09427 -0.67696,-1.26103 -2.04739,-3.84042 -3.04535,-5.73198 -0.99795,-1.89155 -2.18345,-4.10245 -2.63445,-4.91312 -0.45099,-0.81067 -1.88473,-3.53745 -3.18609,-6.05952 -1.30139,-2.52207 -3.3441,-6.05791 -4.5394,-7.85741 -1.19529,-1.79951 -2.32066,-3.52748 -2.50081,-3.83992 -0.18015,-0.31244 -0.95396,-1.46098 -1.71959,-2.55231 -0.76563,-1.09132 -1.39206,-2.09977 -1.39206,-2.24099 0,-0.14122 -0.92579,-1.57368 -2.05735,-3.18325 -1.13156,-1.60957 -2.4166,-3.51605 -2.8556,-4.23664 -0.43901,-0.7206 -0.91335,-1.45757 -1.05407,-1.63771 -0.3846,-0.49239 -2.2638,-3.39242 -3.37158,-5.20312 -0.53841,-0.88009 -1.20004,-1.93161 -1.47027,-2.33671 -0.27022,-0.40509 -1.080883,-1.64941 -1.801476,-2.76513 -0.720592,-1.11573 -2.19453,-3.36131 -3.275415,-4.99017 -3.557295,-5.36076 -6.708082,-10.24481 -6.931365,-10.74443 -0.120802,-0.27022 -0.65931,-1.05619 -1.196737,-1.74661 -1.084005,-1.39261 -1.408268,-2.59202 -1.874423,-6.93324 -0.417322,-3.88662 -1.189335,-10.69806 -1.651987,-14.57559 -0.375398,-3.14588 -0.973425,-8.58087 -1.603875,-14.5756 -0.18945,-1.80149 -0.564323,-4.52827 -0.833003,-6.05952 -0.618007,-3.52181 -0.665565,-10.15379 -0.07282,-10.15379 0.226268,0 0.594848,0.41449 0.819083,0.9211 0.224235,0.5066 0.68961,1.22367 1.034145,1.59347 0.646732,0.6942 0.925402,1.04974 6.394365,8.15834 1.790017,2.32663 3.45432,4.45132 3.698505,4.72154 0.244177,0.27023 0.990547,1.23644 1.658602,2.14716 0.668055,0.91072 1.397655,1.86878 1.621365,2.12903 0.22371,0.26024 1.02825,1.28383 1.78785,2.27464 1.684976,2.19777 1.674816,2.18507 2.885836,3.60296 0.53854,0.63051 1.38448,1.73597 1.87986,2.45656 0.4954,0.72059 1.44148,1.89974 2.10242,2.62034 0.66095,0.72058 1.61901,1.83666 2.12903,2.48016 0.51001,0.6435 1.14839,1.39496 1.41861,1.6699 0.27022,0.27495 1.22828,1.36399 2.12902,2.42009 0.90074,1.05611 3.6098,4.06319 6.02008,6.68241 2.41031,2.61922 5.20568,5.72028 6.21189,6.89124 1.00624,1.17096 2.71903,3.08745 3.80617,4.25886 1.08717,1.17141 3.67167,4.03307 5.74337,6.35923 2.0717,2.32616 3.99703,4.463 4.27848,4.74853 0.28146,0.28553 1.82342,1.99308 3.42661,3.79456 1.60315,1.80148 3.52401,3.93869 4.26855,4.74935 2.85069,3.10395 5.2555,5.75396 6.08602,6.70655 1.99925,2.29311 5.78051,6.72143 6.99727,8.19466 1.30407,1.57893 5.40764,6.28315 7.12402,8.1668 0.49542,0.54368 0.90075,1.08153 0.90075,1.19523 0,0.11369 0.38139,0.63357 0.84747,1.15529 0.46613,0.5217 1.16854,1.31705 1.56094,1.76742 3.98215,4.57043 5.25996,5.83045 6.64339,6.55083 0.86491,0.45036 3.67172,2.03485 6.23728,3.52107 2.5656,1.48622 4.72813,2.70222 4.80565,2.70222 0.0775,0 2.11006,1.14565 4.5168,2.5459 2.40675,1.40025 4.74438,2.72869 5.19475,2.95208 0.45037,0.2234 1.55582,0.84938 2.45656,1.39107 0.90074,0.54168 2.46933,1.41825 3.48576,1.94792 1.01643,0.52968 3.82506,2.11125 6.24137,3.51461 2.41634,1.40336 4.82737,2.79514 5.35789,3.09285 1.79912,1.00966 12.73298,6.44004 17.34159,8.61283 2.52207,1.18906 4.80667,2.30356 5.07689,2.47666 0.27022,0.17309 0.93349,0.5168 1.47394,0.7638 2.38863,1.09164 6.92177,3.24723 7.36968,3.50439 0.57808,0.33189 2.18451,1.1125 6.87837,3.34239 6.84815,3.25331 18.34181,8.83995 32.92759,16.00485 2.52737,1.24151 4.81935,2.25729 5.09327,2.25729 0.27393,0 0.63805,0.11794 0.80919,0.26208 0.36482,0.30728 3.03343,1.35469 6.04314,2.37189 1.17096,0.39576 2.59348,0.92307 3.16117,1.17181 0.56767,0.24874 1.20821,0.45226 1.4234,0.45226 0.21519,0 0.78249,0.21502 1.26064,0.47782 0.47818,0.2628 1.60637,0.79046 2.5071,1.17258 3.42792,1.45422 6.16112,3.02001 6.96734,3.99142 0.22377,0.26965 0.55282,1.64146 0.73123,3.04847 0.17838,1.40702 0.46357,3.01203 0.63373,3.56668 0.17019,0.55466 0.46009,2.18761 0.64431,3.62879 0.6975,5.45756 1.08737,7.91801 1.5345,9.68397 0.25384,1.00263 0.46153,2.35638 0.46153,3.00834 0,0.65196 0.21713,2.21753 0.48251,3.47904 0.26537,1.26152 0.52331,3.29781 0.57319,4.52511 0.0836,2.05615 0.0392,2.2278 -0.56439,2.18502 -0.68043,-0.0482 -2.23828,-0.55158 -3.93049,-1.26999 -0.54044,-0.22944 -1.94069,-0.74162 -3.11165,-1.13819 -1.17096,-0.39656 -2.4238,-0.85098 -2.7841,-1.00981 -1.54665,-0.68183 -9.15593,-3.43156 -10.80887,-3.90595 -1.10997,-0.31857 -3.59961,-1.18838 -4.58558,-1.60208 -0.83776,-0.35151 -3.08488,-1.17561 -9.00739,-3.3033 -2.61215,-0.93843 -5.26524,-1.90104 -5.89575,-2.13912 -0.63052,-0.2381 -3.2836,-1.19037 -5.89575,-2.11617 -2.61214,-0.92579 -5.19212,-1.87663 -5.73328,-2.11297 -0.54117,-0.23635 -1.49923,-0.54011 -2.12903,-0.67504 -0.62979,-0.13492 -1.29247,-0.36037 -1.47262,-0.50098 -0.18015,-0.14061 -0.84342,-0.4067 -1.47394,-0.5913 -0.63052,-0.18459 -1.95706,-0.65244 -2.94787,-1.03965 -1.99764,-0.78068 -4.71483,-1.76294 -6.7146,-2.42731 -1.40231,-0.46589 -7.23228,-2.79829 -9.66248,-3.86567 -0.81067,-0.35606 -1.76872,-0.77238 -2.12902,-0.92516 -4.9163,-2.08468 -6.21919,-2.61109 -6.46269,-2.61109 -0.25971,0 -1.53289,-0.52515 -4.34618,-1.79264 -1.40368,-0.63242 -8.5129,-3.58152 -10.6451,-4.41589 -0.99081,-0.38772 -2.09627,-0.83784 -2.45656,-1.00026 -1.61662,-0.72877 -3.22874,-1.30729 -3.64295,-1.30729 -0.57657,0 -0.5766,0.80395 -3e-5,1.91471 0.24817,0.47816 0.62288,1.53266 0.83267,2.34332 0.20976,0.81067 0.61008,2.21091 0.88954,3.11165 0.27946,0.90074 0.70562,2.30098 0.94705,3.11164 0.24141,0.81067 0.58418,1.91612 0.76173,2.45657 0.17754,0.54044 0.87222,2.75134 1.54374,4.91312 0.67152,2.16177 1.36408,4.33453 1.53899,4.82834 0.31499,0.88942 2.02777,2.2035 2.89992,2.22492 0.24896,0.006 1.04221,0.29589 1.7628,0.64396 0.72058,0.34808 1.55942,0.63786 1.86403,0.64397 0.30465,0.006 0.64159,0.15306 0.74883,0.32653 0.1072,0.17348 0.66861,0.45926 1.24761,0.63506 1.54976,0.47058 3.86247,1.31013 4.98315,1.80898 0.54044,0.24057 2.23547,0.91466 3.76672,1.49801 1.53126,0.58333 4.11065,1.57086 5.73198,2.19451 4.57543,1.75996 5.10713,1.96157 7.20591,2.73253 1.08089,0.39703 2.33374,0.90562 2.78411,1.13018 0.45036,0.22456 1.74383,0.7235 2.87433,1.10876 1.13052,0.38526 2.30967,0.82945 2.62034,0.9871 0.31067,0.15765 1.44921,0.61076 2.53009,1.00692 2.24704,0.82358 3.11581,1.15397 7.20592,2.74043 2.82649,1.09632 5.24531,2.02793 9.49871,3.65837 1.08088,0.41434 2.997,1.15735 4.25803,1.65115 1.26104,0.4938 2.80867,1.03137 3.43919,1.19459 0.63051,0.16323 1.44118,0.43324 1.80147,0.60002 0.9369,0.43368 3.4335,1.30495 4.58798,1.60113 0.54175,0.13898 1.27872,0.41304 1.63771,0.60902 0.62708,0.34235 3.17958,1.18733 5.23827,1.73411 0.54045,0.14355 2.67765,0.87136 4.74936,1.61737 2.07169,0.74601 4.2089,1.48406 4.74935,1.6401 1.57543,0.45488 7.1723,2.44889 7.56201,2.69412 0.19584,0.12326 0.93281,0.36713 1.63771,0.54194 0.7049,0.17482 2.68135,0.82483 4.39214,1.44446 3.4589,1.2528 3.16798,0.87254 3.93524,5.14333 0.21038,1.17096 0.57615,3.08708 0.81283,4.25805 0.23668,1.17096 0.60418,3.01338 0.81669,4.09426 0.21248,1.08089 0.61051,2.66667 0.88446,3.52397 0.70042,2.19169 0.44982,2.65062 -1.29005,2.36241 -0.76524,-0.12676 -1.67604,-0.38028 -2.02404,-0.56337 -0.34802,-0.18308 -1.37977,-0.51939 -2.2928,-0.74736 -0.91302,-0.22797 -2.10226,-0.57054 -2.6427,-0.76128 -0.54044,-0.19074 -2.08807,-0.6619 -3.43918,-1.04703 -1.35111,-0.38514 -2.75136,-0.81878 -3.11165,-0.96366 -0.66127,-0.26592 -3.86244,-1.26117 -6.87837,-2.13853 -4.34369,-1.26362 -6.3131,-1.88768 -7.29891,-2.31287 -0.5916,-0.25515 -1.37272,-0.46392 -1.73587,-0.46392 -0.36311,0 -1.05822,-0.20139 -1.54468,-0.44754 -0.48647,-0.24615 -1.45537,-0.55101 -2.15309,-0.67749 -0.69774,-0.12647 -1.5084,-0.35951 -1.80149,-0.51786 -0.29308,-0.15835 -1.63833,-0.59964 -2.98943,-0.98064 -1.35111,-0.381 -3.04614,-0.8839 -3.76673,-1.11754 -0.7206,-0.23364 -2.41562,-0.75833 -3.76673,-1.16596 -1.35111,-0.40763 -3.70384,-1.16534 -5.22829,-1.68379 -1.52444,-0.51845 -3.07207,-0.94354 -3.43918,-0.94466 -0.36711,-7.5e-4 -1.08963,-0.22219 -1.60564,-0.49131 -0.51598,-0.26911 -1.13415,-0.48929 -1.37368,-0.48929 -0.23949,0 -2.67342,-0.74045 -5.40873,-1.64543 -2.73526,-0.905 -5.50718,-1.77636 -6.15977,-1.93635 -0.6526,-0.16001 -1.62874,-0.44412 -2.16918,-0.63136 -0.54044,-0.18724 -2.75135,-0.87912 -4.91312,-1.5375 -2.16177,-0.65839 -4.52007,-1.39002 -5.24066,-1.62587 -0.7206,-0.23583 -2.41563,-0.74751 -3.76674,-1.13706 -1.3511,-0.38955 -2.7125,-0.84426 -3.02529,-1.01048 -0.31281,-0.16621 -0.79125,-0.3022 -1.0632,-0.3022 -0.27196,0 -1.37686,-0.30537 -2.45535,-0.6786 -2.50406,-0.86658 -3.47994,-0.76412 -3.35358,0.35212 0.52905,4.67383 1.33988,8.9 1.97793,10.30915 0.16495,0.36434 0.69756,1.90348 1.18361,3.42034 0.96136,3.00043 1.85677,4.94412 2.53579,5.50464 0.50268,0.41493 4.94699,1.89633 10.75093,3.58352 0.99081,0.28803 2.31735,0.70519 2.94787,0.92701 1.95019,0.68612 8.22673,2.67804 10.80887,3.43031 1.35111,0.39363 2.7125,0.85167 3.02534,1.01788 0.3128,0.16621 0.7897,0.3022 1.05976,0.3022 0.27006,0 2.00393,0.51479 3.85307,1.14397 1.8491,0.62917 3.58311,1.14596 3.85332,1.14841 0.27023,0.002 0.88673,0.21074 1.37001,0.46287 0.48326,0.25214 1.36762,0.55392 1.96525,0.67062 0.5976,0.11671 1.60244,0.40924 2.23295,0.65007 0.63052,0.24083 1.95706,0.67341 2.94788,0.96128 4.02306,1.16887 6.44077,1.94146 7.41921,2.37084 0.56766,0.24911 1.26277,0.45294 1.54468,0.45294 0.28195,0 0.99661,0.20035 1.58822,0.44524 1.04207,0.43134 3.41147,1.19547 7.13513,2.30106 0.99081,0.29419 3.12802,0.95665 4.74935,1.47215 1.62133,0.51549 4.05333,1.26868 5.40444,1.67377 1.35111,0.40507 2.97243,0.93042 3.60295,1.16745 0.63052,0.23701 2.25185,0.74501 3.60296,1.12887 1.35111,0.38386 2.97244,0.88981 3.60296,1.12434 0.63052,0.23453 1.95706,0.66207 2.94787,0.9501 2.25005,0.65409 5.97102,1.79647 7.69722,2.36315 0.7206,0.23656 1.68295,0.50866 2.13859,0.60467 1.01469,0.21383 0.49642,-0.24628 12.76691,11.33482 1.51527,1.43014 9.58,8.99366 9.95513,9.3364 0.19803,0.18097 1.61586,1.50751 3.15069,2.94788 1.53486,1.44036 4.55289,4.24018 6.7068,6.22181 2.15392,1.98163 5.83581,5.46602 8.18202,7.74308 2.34622,2.27707 4.76253,4.56168 5.36959,5.0769 0.60704,0.51522 1.56509,1.39637 2.12902,1.95807 1.70089,1.69434 2.2191,1.68055 4.03685,-0.10756 1.39136,-1.3687 4.9634,-4.72427 12.82754,-12.05015 1.16032,-1.0809 2.8016,-2.62853 3.64731,-3.43919 0.84571,-0.81067 2.33452,-2.20105 3.30843,-3.08977 2.73426,-2.49501 9.67895,-9.00359 12.47292,-11.68962 1.38248,-1.3291 3.87651,-3.66939 5.54232,-5.20065 1.66581,-1.53125 3.18777,-2.93841 3.38214,-3.127 4.06233,-3.94175 7.05933,-6.04416 8.61597,-6.04416 0.26515,0 0.9465,-0.20571 1.51419,-0.45713 0.56766,-0.25142 2.13757,-0.78483 3.48868,-1.18533 1.35111,-0.40052 2.97244,-0.91962 3.60296,-1.15356 0.63051,-0.23394 2.25185,-0.76079 3.60296,-1.17078 1.3511,-0.40998 2.61967,-0.86483 2.81902,-1.01076 0.19934,-0.14593 1.01,-0.3981 1.80147,-0.56037 1.35098,-0.277 2.04075,-0.49218 4.87821,-1.52178 1.41705,-0.51419 10.42758,-3.39431 13.75674,-4.39719 1.35111,-0.40701 2.97244,-0.92793 3.60296,-1.1576 1.5874,-0.57821 20.61949,-6.76709 25.2207,-8.2013 2.0717,-0.64575 4.2826,-1.365 4.91312,-1.59833 0.63052,-0.23333 2.25185,-0.76107 3.60299,-1.17276 1.35111,-0.41169 3.01227,-0.94772 3.69147,-1.19117 0.67922,-0.24345 1.63728,-0.44786 2.12901,-0.45424 0.49177,-0.007 1.26261,-0.22225 1.71298,-0.47971 0.45037,-0.25745 1.14535,-0.47332 1.54439,-0.4797 0.39901,-0.007 1.35707,-0.215 2.12902,-0.46358 0.77192,-0.24859 2.50894,-0.78309 3.86004,-1.18777 3.58459,-1.07366 8.50613,-2.96847 9.83107,-3.785 1.84913,-1.13957 1.604,-0.57526 3.97484,-9.15086 1.22141,-4.41797 1.64763,-5.90383 1.97318,-6.87837 0.18054,-0.54044 0.46825,-1.5722 0.63936,-2.29279 0.17111,-0.7206 0.54598,-1.93496 0.83307,-2.69859 0.67074,-1.7842 0.25113,-2.46751 -1.25079,-2.03676 -0.54853,0.15731 -1.16725,0.41983 -1.37498,0.58336 -0.20773,0.16355 -0.74617,0.37844 -1.19654,0.47755 -0.45037,0.0991 -2.51388,0.79255 -4.58558,1.54099 -2.07171,0.74845 -4.20891,1.48323 -4.74936,1.63284 -1.06536,0.29493 -3.53601,1.18712 -6.38706,2.30648 -0.99081,0.38901 -2.24366,0.82099 -2.7841,0.95995 -0.9823,0.2526 -9.28092,2.9694 -11.13644,3.64586 -0.54045,0.19702 -1.6459,0.55443 -2.45657,0.79423 -1.76394,0.52179 -3.39628,1.09719 -4.79884,1.69161 -0.56769,0.24057 -1.28235,0.43741 -1.58822,0.43741 -0.30586,0 -1.02052,0.19947 -1.58821,0.44327 -0.56766,0.24379 -2.21127,0.82719 -3.65245,1.29645 -3.19772,1.04119 -4.56482,1.50235 -6.05952,2.04408 -0.63052,0.22851 -2.91512,0.96225 -5.07689,1.63053 -2.16178,0.66828 -4.29899,1.36067 -4.74936,1.53864 -0.45036,0.17796 -1.48212,0.51213 -2.29278,0.74259 -0.81067,0.23047 -1.98982,0.60396 -2.62034,0.82999 -1.96361,0.70393 -3.35799,1.17524 -5.73198,1.93747 -1.26103,0.40489 -2.75724,0.94313 -3.32491,1.19609 -0.56769,0.25296 -1.19873,0.45993 -1.4024,0.45993 -0.37323,0 -3.88402,1.10288 -5.09893,1.60179 -0.3603,0.14795 -1.76054,0.60519 -3.11165,1.01609 -1.35111,0.41089 -2.97244,0.934 -3.60295,1.16247 -0.63052,0.22846 -2.17815,0.73252 -3.43919,1.12013 -1.26103,0.38761 -2.80867,0.89661 -3.43918,1.1311 -3.02557,1.12524 -3.26104,1.15815 -3.61069,0.5048 -0.22188,-0.4146 -0.21281,-1.60626 0.0278,-3.65756 0.19636,-1.67343 0.55662,-4.88502 0.80058,-7.13686 0.24392,-2.25185 0.62914,-4.65739 0.85603,-5.34564 0.51149,-1.55163 1.85732,-2.71819 3.66064,-3.17301 0.75744,-0.19104 1.74563,-0.50879 2.196,-0.70611 0.45037,-0.19733 1.26103,-0.47668 1.80148,-0.62079 0.54044,-0.14411 2.67765,-0.87239 4.74935,-1.6184 2.0717,-0.74601 4.20891,-1.48508 4.74935,-1.64237 1.80305,-0.52475 4.24667,-1.37103 5.29016,-1.83209 0.56769,-0.25082 1.16814,-0.45605 1.3344,-0.45605 0.27065,0 4.14105,-1.58677 6.85413,-2.81004 0.5677,-0.25596 1.18911,-0.46537 1.38096,-0.46537 0.19183,0 0.83283,-0.21105 1.42444,-0.469 2.86622,-1.24977 7.04434,-2.80641 7.53251,-2.80641 0.30061,0 0.63431,-0.14194 0.74151,-0.31542 0.10721,-0.17347 0.66865,-0.45436 1.24761,-0.62419 0.579,-0.16983 2.66999,-0.98596 4.6467,-1.81361 1.97669,-0.82765 3.72314,-1.50482 3.88098,-1.50482 0.15784,0 0.75144,-0.19909 1.31914,-0.44241 0.56766,-0.24332 1.91648,-0.77314 2.99737,-1.17736 1.08088,-0.40423 3.16994,-1.2369 4.64237,-1.85039 1.47243,-0.61348 2.88496,-1.11542 3.13896,-1.11542 0.25398,0 0.55666,-0.0949 0.67261,-0.21082 0.27035,-0.27037 3.88756,-1.74735 4.32017,-1.76403 0.18015,-0.007 0.91712,-0.29741 1.63772,-0.64549 0.72058,-0.34806 1.48245,-0.63786 1.69305,-0.64396 0.21058,-0.006 0.80016,-0.22048 1.31017,-0.47636 0.50999,-0.25588 1.55372,-0.69806 2.31932,-0.98262 1.62942,-0.60561 3.64767,-1.3984 5.48632,-2.15509 0.72059,-0.29657 1.89974,-0.77147 2.62034,-1.05536 2.87745,-1.13362 8.60651,-3.50948 10.40422,-4.31466 0.58286,-0.26106 2.09148,-0.87288 3.35252,-1.35963 1.26103,-0.48673 3.32454,-1.32753 4.58558,-1.86843 1.26103,-0.5409 2.80867,-1.19037 3.43918,-1.44328 2.91847,-1.17061 2.87789,-1.10676 4.75761,-7.48211 0.3187,-1.0809 0.98145,-3.2181 1.47284,-4.74936 0.49135,-1.53126 1.22248,-3.88956 1.62477,-5.24067 0.40228,-1.3511 0.92455,-2.91525 1.16061,-3.47589 0.23606,-0.56062 0.53488,-1.72389 0.66399,-2.58504 l 0.23482,-1.56571 -0.94493,0.23563 c -0.51971,0.12959 -1.3871,0.43539 -1.92754,0.67956 -0.91013,0.41117 -3.16106,1.34763 -10.31758,4.29246 -1.53125,0.63009 -3.07889,1.27647 -3.43919,1.43637 -0.36029,0.15991 -1.98162,0.82825 -3.60295,1.4852 -1.62133,0.65695 -3.61115,1.48884 -4.42181,1.84864 -0.81066,0.35981 -1.91612,0.85055 -2.45656,1.09053 -2.05025,0.91042 -5.33552,2.22594 -7.861,3.14777 -1.44118,0.52605 -2.91512,1.09895 -3.27541,1.27312 -0.93255,0.45081 -8.38664,3.2925 -9.17117,3.49628 -0.73546,0.19104 -5.97321,2.19058 -7.62644,2.91145 -0.59161,0.25795 -1.2326,0.46901 -1.42445,0.46901 -0.19184,0 -0.81325,0.20523 -1.38095,0.45607 -0.56766,0.25084 -2.57974,0.99993 -4.4713,1.66463 -3.63447,1.27719 -6.39937,2.29903 -8.02476,2.96575 -0.54045,0.2217 -1.94069,0.72811 -3.11166,1.12537 -1.17096,0.39726 -2.2764,0.84012 -2.45655,0.98414 -0.18015,0.14402 -0.83858,0.37131 -1.4632,0.50508 -0.62459,0.13379 -1.36156,0.37059 -1.63771,0.52623 -0.85449,0.48163 -7.61688,2.95747 -14.58634,5.34033 -1.44118,0.49274 -3.08478,1.10535 -3.65244,1.36137 -0.5677,0.25601 -1.23962,0.46548 -1.49323,0.46548 -0.25362,0 -0.74719,0.2164 -1.09691,0.4809 -0.34968,0.26448 -0.88109,0.48558 -1.18089,0.49131 -0.29979,0.006 -1.89692,0.52629 -3.54917,1.1568 -4.5049,1.71915 -5.13785,1.52879 -4.27864,-1.28691 0.16881,-0.55323 0.46767,-2.11133 0.66409,-3.46243 0.92567,-6.36646 2.21176,-14.25437 2.44824,-15.01571 0.0927,-0.29839 0.39996,-2.09015 0.68286,-3.9817 1.31705,-8.80717 1.1403,-8.23228 2.78447,-9.05806 1.60033,-0.80377 7.83901,-3.75325 10.96441,-5.18366 1.08089,-0.49469 3.73397,-1.75434 5.89575,-2.79921 2.16178,-1.04488 5.99401,-2.88755 8.51608,-4.09484 5.66123,-2.70996 21.76639,-10.57916 22.4366,-10.96284 0.7826,-0.44802 12.93461,-6.62277 14.99691,-7.62032 1.0293,-0.49789 2.09257,-1.03962 2.36279,-1.20384 0.27022,-0.16422 2.62852,-1.40279 5.24067,-2.75239 2.61214,-1.34958 5.41262,-2.82576 6.22329,-3.2804 0.81066,-0.45463 2.3583,-1.27469 3.43918,-1.82236 1.08089,-0.54766 3.0707,-1.60323 4.42181,-2.3457 2.50644,-1.37736 6.45581,-3.52011 8.51608,-4.62044 0.63052,-0.33673 1.66227,-0.92032 2.29279,-1.29686 0.63052,-0.37653 2.39924,-1.35413 3.93051,-2.17244 1.53126,-0.81832 3.29998,-1.80085 3.9305,-2.18341 0.63052,-0.38255 1.51488,-0.87351 1.96525,-1.091 0.45037,-0.2175 1.03994,-0.53802 1.31017,-0.71228 1.31645,-0.84891 5.96259,-3.61843 6.07029,-3.61843 0.0674,0 2.22984,-1.22835 4.8053,-2.72969 2.57542,-1.50133 4.90372,-2.82949 5.17394,-2.95147 0.27023,-0.12199 0.9335,-0.51333 1.47394,-0.86967 0.54044,-0.35632 1.20371,-0.74559 1.47394,-0.86503 0.27021,-0.11944 0.7124,-0.39935 0.98262,-0.62204 0.27022,-0.22268 1.22828,-0.80018 2.12902,-1.28334 0.90074,-0.48315 2.07989,-1.16303 2.62033,-1.51086 0.54044,-0.34782 1.35694,-0.81651 1.81445,-1.04154 0.45755,-0.22504 3.07181,-1.71789 5.80957,-3.31743 3.78331,-2.21043 5.31276,-3.30481 6.37406,-4.56086 0.76802,-0.90892 2.0301,-2.35234 2.80467,-3.20758 0.7746,-0.85525 1.88006,-2.13862 2.45656,-2.85192 0.57654,-0.7133 3.84874,-4.50638 7.27156,-8.42906 7.07722,-8.1108 10.55525,-12.11377 13.54233,-15.58625 1.14309,-1.32887 2.40769,-2.78461 2.81024,-3.23498 0.40255,-0.45037 1.86991,-2.1454 3.26077,-3.76673 1.39085,-1.62133 3.30762,-3.83224 4.25949,-4.91312 0.95187,-1.08089 2.59121,-2.99701 3.64298,-4.25804 1.0518,-1.26104 2.43959,-2.89589 3.08403,-3.633 0.64444,-0.73713 1.61386,-1.90695 2.1543,-2.59962 0.54045,-0.69267 1.43457,-1.78461 1.98697,-2.42652 0.55237,-0.64191 1.99355,-2.41995 3.20257,-3.95121 2.41968,-3.06452 4.48261,-5.61495 5.56867,-6.88457 0.70706,-0.8266 2.65112,-3.259 6.27775,-7.8548 1.06619,-1.35111 2.09106,-2.61572 2.27753,-2.81026 0.18644,-0.19453 1.04148,-1.29999 1.90004,-2.45656 2.61584,-3.52379 10.21392,-13.69073 12.91912,-17.28696 1.40361,-1.86593 2.74097,-3.7452 2.97189,-4.17615 0.23661,-0.44154 0.71796,-0.78356 1.10273,-0.78356 0.55826,0 0.64063,0.13442 0.45154,0.73697 -0.12721,0.40533 -0.42911,2.80048 -0.67096,5.32255 -0.24182,2.52207 -0.60189,5.98582 -0.80012,7.69722 -0.19827,1.71141 -0.57441,5.02777 -0.83586,7.36969 -0.26147,2.34192 -0.64057,5.73198 -0.84246,7.53346 -0.4221,3.76631 -1.08148,9.9282 -1.5948,14.90313 -0.19515,1.89156 -0.56842,5.28161 -0.82947,7.53346 -0.26105,2.25185 -0.5521,5.02982 -0.64677,6.17328 -0.17968,2.17024 -0.1845,2.17975 -3.47505,6.86273 -0.7974,1.13485 -1.67091,2.41197 -1.94114,2.83804 -0.79642,1.25576 -2.96602,4.51852 -3.71042,5.57992 -0.37903,0.54045 -2.22647,3.26723 -4.1054,6.05952 -1.87892,2.79229 -3.5421,5.12602 -3.69595,5.18608 -0.15385,0.0601 -0.27972,0.24716 -0.27972,0.4158 0,0.27108 -3.50918,5.55973 -6.72191,10.13052 -0.62652,0.89132 -1.13909,1.6884 -1.13909,1.77129 0,0.0829 -0.4259,0.78453 -0.9465,1.55919 -0.52056,0.77466 -1.36807,2.16315 -1.88336,3.08556 -0.88243,1.57965 -1.77518,3.13697 -4.17724,7.28701 -1.52509,2.63486 -2.21974,3.8764 -3.78117,6.75788 -0.78096,1.44119 -1.62093,2.85303 -1.86666,3.13744 -0.24568,0.28441 -0.44673,0.60442 -0.44673,0.71114 0,0.10671 -0.73697,1.47013 -1.6377,3.0298 -0.90075,1.55967 -1.63771,2.8913 -1.63771,2.95916 0,0.0679 -0.34032,0.62487 -0.75626,1.2378 -0.41595,0.61293 -1.15986,1.91213 -1.65317,2.88711 -0.9372,1.85235 -1.33709,2.10675 -4.61981,2.93893 -0.71352,0.18087 -1.45049,0.45152 -1.63771,0.60143 -0.18725,0.14991 -0.85633,0.38261 -1.48684,0.5171 -2.26938,0.48408 -8.42227,3.71709 -12.41442,6.52311 -0.91472,0.64295 -1.7472,1.16899 -1.84992,1.16899 -0.15873,0 -1.6659,1.07346 -3.7941,2.70222 -5.99697,4.58963 -11.32472,10.57291 -13.92655,15.64011 -2.03059,3.95472 -2.57064,5.95573 -2.57064,9.52501 0,3.75593 0.45561,4.86455 3.0352,7.38517 2.3843,2.32985 5.29902,3.29029 10.85829,3.57795 1.33627,0.0691 2.55823,0.2544 2.71551,0.41167 0.25179,0.25179 -0.27608,1.80798 -1.8546,5.46729 -0.23314,0.54045 -0.68961,1.6459 -1.01436,2.45657 -0.32479,0.81066 -0.85921,2.09227 -1.18764,2.84802 -0.32842,0.75574 -0.59714,1.51761 -0.59714,1.69304 0,0.17543 -0.21912,0.73625 -0.48692,1.24625 -0.47729,0.9089 -1.1122,2.40546 -2.2694,5.3491 -0.3187,0.81066 -0.78188,1.91612 -1.02927,2.45656 -0.24739,0.54044 -0.54306,1.38191 -0.65705,1.86993 -0.38384,1.64359 -0.81754,1.78429 -7.84016,2.54324 -1.80148,0.19469 -4.52827,0.56339 -6.05952,0.81931 -1.53126,0.25593 -3.37368,0.5599 -4.09427,0.67549 -0.7206,0.11559 -1.45756,0.32363 -1.63771,0.46231 -0.18014,0.13868 -0.80559,0.3427 -1.38983,0.45338 -0.58426,0.11067 -2.18984,0.75783 -3.5679,1.43814 -4.2153,2.0809 -9.03009,7.09626 -11.19243,11.65865 -2.47857,5.22965 -2.78364,6.96807 -1.70606,9.72206 0.70792,1.80923 2.55037,4.06379 3.77194,4.61563 0.36029,0.16276 0.87617,0.43432 1.14639,0.60348 1.40139,0.87725 3.09245,1.40873 6.34678,1.99472 4.19347,0.75511 8.09226,0.81286 10.82472,0.16036 1.06746,-0.25489 2.06236,-0.38834 2.2109,-0.29654 0.42574,0.26311 0.32197,1.14814 -0.40121,3.42196 -0.3692,1.1609 -0.90394,2.9214 -1.18831,3.91222 -0.28441,0.99081 -0.69852,2.39105 -0.92036,3.11164 -0.22182,0.72059 -0.73193,2.41562 -1.13359,3.76673 -1.34777,4.53345 -1.64396,5.00825 -5.96192,9.55625 -2.27893,2.40034 -4.71089,4.96951 -5.40443,5.70925 -0.6935,0.73974 -3.91402,4.12611 -7.15669,7.52525 -14.59234,15.29653 -14.50325,15.20007 -17.37091,18.80702 -1.81245,2.27969 -6.79878,8.26793 -8.45492,10.15379 -0.39552,0.45036 -1.674,1.98657 -2.8411,3.41373 -1.1671,1.4272 -2.93264,3.50286 -3.92346,4.61257 -0.99081,1.10975 -3.05432,3.54332 -4.58558,5.40801 -1.53126,1.86466 -3.07889,3.71773 -3.43919,4.11791 -0.36029,0.40017 -1.24465,1.43654 -1.96525,2.30305 -0.72059,0.86651 -1.83174,2.17025 -2.46927,2.89724 -1.72126,1.96289 -7.40381,8.82986 -9.63174,11.63935 -1.07143,1.3511 -2.10338,2.63569 -2.29323,2.85462 -0.40863,0.47133 -0.0475,0.0232 -4.95831,6.15277 -4.46803,5.57692 -6.48723,8.17501 -8.05478,10.36407 -1.29949,1.81471 -5.04109,6.8593 -5.43162,7.32316 -0.15169,0.18015 -0.37425,0.58548 -0.49462,0.90074 -0.12037,0.31526 -0.36095,0.5732 -0.53461,0.5732 -0.17366,0 -0.40933,0.29479 -0.52367,0.65508 -0.11435,0.3603 -0.42401,0.65509 -0.68811,0.65509 -0.67568,0 -19.12816,-18.50724 -19.12816,-19.18492 0,-0.3057 1.29968,-1.89935 2.8882,-3.54145 3.02553,-3.12759 6.9933,-7.30702 11.3781,-11.98507 1.43112,-1.52687 5.32887,-5.48255 8.66161,-8.79039 10.32417,-10.24711 27.02575,-26.68484 28.61796,-28.16592 3.10139,-2.88489 1.38756,-3.36638 -4.37986,-1.23044 -0.63051,0.2335 -2.03075,0.68056 -3.11164,0.99346 -1.08089,0.3129 -2.7522,0.84833 -3.71402,1.18986 -0.9618,0.34156 -2.02542,0.62099 -2.36358,0.62099 -0.33815,0 -1.09884,0.21153 -1.69044,0.47005 -1.4024,0.61286 -11.43782,3.7952 -11.95527,3.79113 -0.21906,-0.003 -0.88233,0.2075 -1.47393,0.46495 -0.59157,0.25744 -2.18107,0.79759 -3.53218,1.20034 -1.3511,0.40275 -3.70941,1.13106 -5.24066,1.61844 -1.53126,0.48742 -3.88956,1.21597 -5.24067,1.61904 -1.35111,0.40305 -2.9406,0.93805 -3.53217,1.18888 -0.59161,0.2508 -1.2877,0.45604 -1.54689,0.45604 -0.25918,0 -1.98604,0.49803 -3.83751,1.1067 -1.85142,0.6087 -5.13496,1.6546 -7.29674,2.32423 -2.16177,0.66966 -4.4862,1.42448 -5.16539,1.67741 -0.67922,0.25292 -1.48989,0.46078 -1.80148,0.46189 -0.31162,0 -0.98875,0.22218 -1.50476,0.49131 -0.51601,0.26912 -1.12065,0.48929 -1.3437,0.48929 -0.22303,0 -2.64539,0.73696 -5.38308,1.63771 -2.73766,0.90074 -5.18642,1.6377 -5.44168,1.6377 -0.25525,0 -0.94813,0.21065 -1.53974,0.46809 -0.59157,0.25745 -2.18107,0.79793 -3.53218,1.2011 -1.3511,0.40317 -4.40795,1.37056 -6.79294,2.14982 -2.38503,0.77922 -4.89072,1.55225 -5.56821,1.71785 -0.67752,0.16561 -1.674,0.44955 -2.21445,0.63105 -0.54044,0.18145 -2.75134,0.87653 -4.91312,1.54458 -2.16177,0.66809 -4.41454,1.41698 -5.00611,1.66421 -0.5916,0.24726 -1.3063,0.44955 -1.58821,0.44955 -0.28192,0 -1.01387,0.23789 -1.62661,0.52862 -1.46198,0.69377 -1.44754,1.48959 0.0814,4.49292 0.65747,1.29149 1.40377,2.79032 1.65847,3.33077 0.25467,0.54045 0.58912,1.20372 0.74319,1.47393 0.15408,0.27023 1.1202,2.18634 2.14694,4.25805 1.02671,2.0717 1.987,3.98781 2.13394,4.25804 0.79274,1.45778 2.93008,5.5871 6.52714,12.61034 2.21438,4.32354 4.45952,8.67166 4.98925,9.66247 0.52969,0.99082 1.32955,2.68582 1.77747,3.76672 0.44788,1.0809 1.02625,2.4297 1.28521,2.99737 0.25898,0.56768 0.47087,1.13235 0.47087,1.25483 0,0.7179 2.50726,5.03235 3.57898,6.1587 l 1.26948,1.33425 2.40701,-2.56043 c 1.32385,-1.4082 2.97411,-3.1665 3.66725,-3.90727 0.69314,-0.74085 2.90405,-3.04958 4.91312,-5.13053 2.00908,-2.08095 4.68463,-4.88955 5.94567,-6.24125 7.62288,-8.17091 9.4894,-10.10815 9.88569,-10.26023 0.27,-0.1036 4.33243,3.72945 10.42709,9.83829 5.49166,5.50437 9.98481,10.07284 9.98481,10.15204 0,0.21578 -1.38439,2.30348 -3.23621,4.88033 -0.90621,1.26105 -2.3241,3.25087 -3.15085,4.42177 -0.82675,1.17098 -2.24327,3.1608 -3.1478,4.42185 -0.90454,1.26105 -2.74559,3.9141 -4.09119,5.89575 -1.34558,1.98158 -3.02767,4.4136 -3.73794,5.40443 -1.56251,2.17965 -1.68232,2.35297 -3.05701,4.42177 -0.59852,0.90075 -2.36547,3.52575 -3.92657,5.83343 -1.56113,2.3076 -2.83838,4.26945 -2.83838,4.35952 0,0.0901 -0.47902,0.8061 -1.0645,1.5909 -0.58548,0.78488 -1.80149,2.63078 -2.70222,4.1019 -0.90075,1.4712 -2.11674,3.3171 -2.70222,4.1019 -0.58548,0.78488 -1.06451,1.5111 -1.06451,1.61385 0,0.10268 -0.48722,0.88538 -1.08272,1.73925 -0.59547,0.8538 -1.88006,2.87895 -2.85463,4.5003 -0.97456,1.62135 -2.59675,4.20075 -3.60482,5.73195 -1.00808,1.53128 -2.33972,3.64755 -2.95921,4.7028 -0.61948,1.05525 -1.38209,2.30805 -1.6947,2.78408 -0.31257,0.47602 -0.72547,1.16025 -0.91757,1.52055 -0.19211,0.3603 -0.70723,1.24462 -1.14473,1.96522 -0.43749,0.7206 -0.89448,1.53128 -1.01554,1.8015 -0.12106,0.27023 -0.40304,0.71243 -0.62665,0.98265 -0.22358,0.27023 -1.25652,2.03895 -2.29541,3.93045 -1.0389,1.89158 -2.01268,3.48833 -2.16401,3.5484 -0.15132,0.06 -0.27513,0.23903 -0.27513,0.3978 0,0.15878 -0.83683,1.731 -1.85961,3.4938 -1.02282,1.7628 -2.36957,4.16318 -2.99285,5.33415 -0.62328,1.17098 -1.69525,3.16073 -2.38221,4.42178 -0.68695,1.26105 -1.93256,3.61935 -2.76802,5.2407 -0.83546,1.62135 -2.30242,4.42177 -3.25992,6.22327 -0.95748,1.8015 -2.69105,5.11785 -3.85235,7.36965 -1.1613,2.25188 -3.36529,6.52628 -4.89776,9.49875 -1.53247,2.9724 -3.56369,6.87833 -4.51385,8.67983 -0.95013,1.8015 -3.09376,5.92852 -4.7636,9.17115 -1.66984,3.2427 -3.56545,6.91807 -4.21248,8.16749 -1.04836,2.02448 -1.63696,2.7843 -2.16918,2.80013 -0.0926,0 -0.52537,-0.76875 -0.96175,-1.71458 z m 30.77259,1.45672 c 0,-0.4812 2.15486,-4.9083 8.4015,-17.26057 0.18222,-0.3603 0.5919,-1.17097 0.91044,-1.8015 0.88148,-1.74495 5.38662,-10.34932 6.77401,-12.93787 0.67592,-1.26105 1.62906,-3.10343 2.11815,-4.09425 0.48911,-0.99083 1.21377,-2.31735 1.61039,-2.94788 0.70985,-1.12852 1.93322,-3.34785 4.51378,-8.18857 0.7203,-1.35113 1.41833,-2.60393 1.55114,-2.78408 0.13285,-0.18015 0.87195,-1.50667 1.64246,-2.94787 0.77047,-1.4412 1.77963,-3.20993 2.24258,-3.93053 0.46295,-0.7206 1.19864,-2.04712 1.63486,-2.94787 0.43621,-0.90075 0.88266,-1.71135 0.99208,-1.80143 0.28254,-0.23257 0.9487,-1.30875 1.52062,-2.45662 0.2693,-0.54045 0.6278,-1.20368 0.79668,-1.4739 0.16885,-0.27023 1.56011,-2.64218 3.09163,-5.271 1.53155,-2.6289 3.30728,-5.5734 3.94612,-6.54338 0.63884,-0.97005 1.1615,-1.88047 1.1615,-2.02327 0,-0.1428 0.40231,-0.88313 0.89405,-1.6452 0.49171,-0.762 1.04444,-1.63343 1.22828,-1.93643 0.18382,-0.303 1.29228,-2.13645 2.46325,-4.07437 1.17096,-1.93785 2.42381,-3.9948 2.7841,-4.57095 0.3603,-0.57615 1.17096,-1.89068 1.80148,-2.92118 0.63051,-1.0305 1.36749,-2.20635 1.6377,-2.61292 0.27023,-0.40658 0.92643,-1.45935 1.45822,-2.3394 0.5318,-0.88013 1.05475,-1.67385 1.16212,-1.76393 0.18084,-0.15172 1.19271,-1.7625 2.7841,-4.4319 0.3603,-0.60435 1.72369,-2.66715 3.02976,-4.584 1.30608,-1.91677 2.37468,-3.60975 2.37468,-3.762 0,-0.1524 0.18522,-0.47175 0.41162,-0.7098 0.34294,-0.3606 4.88394,-6.9723 5.97544,-8.7003 0.86176,-1.36417 5.7532,-8.64262 6.88086,-10.23862 0.70009,-0.99083 2.05493,-2.90693 3.01083,-4.25805 0.95586,-1.35105 2.13845,-3.04613 2.628,-3.76673 0.48954,-0.72052 1.52817,-2.15595 2.30808,-3.18975 0.77994,-1.0338 2.18847,-3.02355 3.13009,-4.42177 0.94165,-1.39823 2.29773,-3.29558 3.01351,-4.21628 0.71581,-0.92077 1.52254,-2.00812 1.79277,-2.41635 0.53405,-0.80677 11.39579,-15.21751 14.07485,-18.67373 2.78617,-3.59438 7.32789,-9.32573 7.5271,-9.49871 0.10373,-0.0901 0.84286,-0.97443 1.64249,-1.96524 0.79966,-0.99082 2.12417,-2.54526 2.94338,-3.45429 0.81922,-0.90906 1.98507,-2.2356 2.59083,-2.94788 0.60575,-0.7123 2.22793,-2.54791 3.60489,-4.07917 2.47827,-2.756 5.56879,-6.31801 6.7839,-7.8189 0.34589,-0.42722 1.07997,-1.23788 1.63129,-1.80148 0.92861,-0.94928 2.9926,-3.35308 6.20352,-7.22492 0.72059,-0.86889 1.53126,-1.80848 1.80148,-2.088 0.27022,-0.2795 0.86412,-0.97719 1.31973,-1.55036 0.70861,-0.89143 3.60227,-4.06983 8.17897,-8.98381 0.63052,-0.67699 2.38107,-2.57781 3.89012,-4.22403 1.50904,-1.64623 2.89141,-2.99315 3.07195,-2.99315 0.20782,0 0.24093,0.63078 0.0903,1.71959 -0.13089,0.94578 -0.43433,3.70941 -0.67435,6.14141 -0.63949,6.48034 -1.12003,10.32224 -1.64983,13.1902 -0.25855,1.39981 -0.47011,3.2628 -0.47011,4.13996 0,0.87718 -0.21039,2.75347 -0.46754,4.1695 -0.25718,1.41606 -0.63691,5.22773 -0.84385,8.47039 -0.20697,3.24266 -0.47559,6.77291 -0.59694,7.84501 l -0.2207,1.94923 -1.96525,0.36371 c -3.12566,0.57844 -3.83125,1.09399 -7.85906,5.74242 -0.53939,0.62249 -2.08703,2.40137 -3.43918,3.9531 -1.35219,1.5517 -2.82699,3.2556 -3.27735,3.78641 -0.98942,1.16612 -5.24438,6.02997 -7.80386,8.92055 -1.02226,1.15449 -2.49966,2.92324 -3.28314,3.93049 -0.78348,1.00733 -1.5292,1.90515 -1.65717,1.99523 -0.22345,0.15727 -12.79901,16.4913 -17.65219,22.92787 -1.29035,1.71143 -2.68044,3.55328 -3.08898,4.09305 -3.39147,4.4811 -6.80697,9.06848 -7.56081,10.155 -0.49995,0.7206 -1.7153,2.4156 -2.70081,3.76673 -0.98547,1.35112 -1.88945,2.67765 -2.00884,2.94787 -0.11939,0.27023 -0.66979,1.10085 -1.22307,1.84575 -0.55332,0.74498 -1.22711,1.68323 -1.49732,2.08508 -0.27023,0.40185 -0.73068,1.04512 -1.02321,1.42965 -0.29253,0.38445 -1.77302,2.54145 -3.28996,4.79332 -1.51697,2.2518 -3.33686,4.90493 -4.04422,5.89575 -0.70739,0.99083 -2.23384,3.20085 -3.39215,4.9113 -2.62583,3.87743 -3.43286,5.034 -3.65808,5.2425 -0.88584,0.81983 -3.43526,5.36858 -3.66762,6.54375 -0.36671,1.85483 -0.0184,8.61158 0.59695,11.5743 0.25492,1.22775 0.4635,2.68058 0.4635,3.22853 0,0.54795 0.21444,1.97542 0.47654,3.17212 0.2621,1.19678 0.64526,3.20768 0.85144,4.46873 0.20616,1.26097 0.57805,3.4719 0.82636,4.9131 0.24834,1.4412 0.61011,3.65205 0.80399,4.9131 0.19386,1.26105 0.52875,3.1035 0.7442,4.09425 0.21546,0.99082 0.39174,3.5616 0.39174,5.7129 l 0,3.9114 -2.03144,1.0188 c -1.11732,0.5604 -2.95974,1.43902 -4.09428,1.95255 -1.13457,0.51352 -3.13467,1.42702 -4.44467,2.03002 -1.31004,0.603 -2.4467,1.09635 -2.52597,1.09635 -0.12352,0 -2.59294,1.10348 -6.22859,2.78325 -0.54044,0.24975 -2.96108,1.28798 -5.37918,2.30715 -2.41811,1.01925 -4.62902,1.97535 -4.91313,2.12468 -0.28411,0.14925 -1.25353,0.58402 -2.15427,0.966 -0.90074,0.38205 -2.05499,0.90847 -2.56498,1.16985 -0.51001,0.26145 -1.12772,0.47535 -1.37269,0.47535 -0.24497,0 -1.7438,0.59812 -3.33077,1.32915 -3.1279,1.44082 -3.38914,1.55842 -5.83322,2.62545 -0.90074,0.39322 -3.03795,1.3755 -4.74935,2.18287 -1.71141,0.8073 -4.36449,2.0523 -5.89575,2.76653 -4.46433,2.08245 -7.23615,3.52139 -13.75674,7.14172 -1.71141,0.95017 -3.46317,2.00302 -3.8928,2.33962 -1.00415,0.78675 -2.00295,0.79755 -2.00295,0.0217 z"
       inkscape:connector-curvature="0" />
  </g>
</svg>
