<?xml version="1.0" encoding="UTF-8" standalone="no"?>
<!-- Generator: Adobe Illustrator 15.1.0, SVG Export Plug-In . SVG Version: 6.00 Build 0)  -->

<svg
   xmlns:dc="http://purl.org/dc/elements/1.1/"
   xmlns:cc="http://creativecommons.org/ns#"
   xmlns:rdf="http://www.w3.org/1999/02/22-rdf-syntax-ns#"
   xmlns:svg="http://www.w3.org/2000/svg"
   xmlns="http://www.w3.org/2000/svg"
   xmlns:sodipodi="http://sodipodi.sourceforge.net/DTD/sodipodi-0.dtd"
   xmlns:inkscape="http://www.inkscape.org/namespaces/inkscape"
   version="1.1"
   id="Livello_1"
   x="0px"
   y="0px"
   width="352.5625"
   height="84.0625"
   viewBox="0 0 352.56249 84.062503"
   enable-background="new 0 0 425.2 283.46"
   xml:space="preserve"
   inkscape:version="0.48.1 r9760"
   sodipodi:docname="rayna_01.svg"><metadata
   id="metadata25"><rdf:RDF><cc:Work
       rdf:about=""><dc:format>image/svg+xml</dc:format><dc:type
         rdf:resource="http://purl.org/dc/dcmitype/StillImage" /></cc:Work></rdf:RDF></metadata><defs
   id="defs23">
	
	
	
	
	
	
	
</defs><sodipodi:namedview
   pagecolor="#ffffff"
   bordercolor="#666666"
   borderopacity="1"
   objecttolerance="10"
   gridtolerance="10"
   guidetolerance="10"
   inkscape:pageopacity="0"
   inkscape:pageshadow="2"
   inkscape:window-width="1440"
   inkscape:window-height="832"
   id="namedview21"
   showgrid="false"
   inkscape:zoom="0.95251537"
   inkscape:cx="239.42107"
   inkscape:cy="48.357795"
   inkscape:window-x="0"
   inkscape:window-y="24"
   inkscape:window-maximized="1"
   inkscape:current-layer="Livello_1"
   fit-margin-top="0"
   fit-margin-left="0"
   fit-margin-right="0"
   fit-margin-bottom="0" />
<g
   id="g3"
   transform="translate(-32.28125,-108.125)">
</g>
<path
   style="fill-rule:evenodd"
   d="M 108.59374,0 C 97.257737,26.399 85.424987,52.28275 74.374987,78.96875 l 13.78125,0 c 1.655,-5.892 4.238,-10.87425 6.625,-16.03125 5.038,4.714 9.100003,10.42825 14.375003,14.90625 4.248,-5.139 8.23125,-10.50675 13.78125,-14.34375 1.949,5.414 4.38025,10.38375 6.65625,15.46875 4.421,-0.366 10.27825,0.7225 13.78125,-0.5625 C 131.45899,52.59225 120.56374,25.764 108.59374,0 z m 99.78125,0.875 0,78.25 13.125,0 c 0.364,-8.393 -0.7125,-18.23975 0.5625,-25.71875 3.464,3.795 7.50025,7.71875 12.03125,12.59375 3.383,3.643 7.69775,11.24975 12.59375,12.59375 4.419,1.212 8.84725,-0.869 14.78125,0 -7.852,-10.084 -19.5245,-22.38425 -29.5625,-33.40625 -4.903,-5.386 -12.95675,-9.19325 -9.84375,-18.03125 9.594,10.349 20.139,21.9265 30.625,32.8125 4.957,5.143 11.537,9.725 9.875,18.625 3.529,1.212 9.2635,0.21125 13.6875,0.53125 l 0,-78.25 -13.6875,0 0,51.4375 c -13.864,-14.772 -28.0875,-29.21 -41.0625,-44.875 l 0,-6.5625 c -4.377,0 -8.747,-0.001 -13.125,0 z m 110.4375,0.0625 c -12.778,26.695 -25.508,56.253 -36.375,83.125 15.236,-10.211 29.63175,-21.29325 45.71875,-30.65625 3.075,9.046 7.429,16.79475 10.375,25.96875 l 14.03125,0 c -10.811,-26.587 -22.986,-51.8055 -33.75,-78.4375 z M 125.46874,1.53125 c 6.644,11.149 15.06725,24.8545 22.90625,36.5625 2.642,3.945 6.90025,8.08875 7.65625,11.46875 2.104,9.402 -1.532,18.9945 0,30.5625 4.59,-0.321 10.4895,0.6505 14.1875,-0.5625 l 0,-31.09375 c 9.933,-15.894 21.0055,-30.6655 30.5625,-46.9375 l -15.84375,0 c -7.27,11.649 -14.068,23.79525 -22.375,34.40625 -6.64,-11.914 -14.42125,-22.71225 -21.28125,-34.40625 l -15.8125,0 z M 24.812487,1.8125 C 16.488331,1.8647 7.8288625,2.29475 -1.2512358e-5,2 l 0,12.125 C 7.4319875,23.211 17.973487,32.12675 23.687487,41.09375 l -6.0625,0 c -4.715,-3.578 -9.2337495,-10.0855 -13.2187495,-14.3125 -1.164,-1.237 -3.19725,-3.746 -4.406250012358,-2.75 l 0,56.15625 13.749999512358,0 c 0.366,-8.81 -0.7205,-19.07875 0.5625,-26.96875 l 21.46875,0 c 5.819,8.128 17.293,10.60575 14.875,26.96875 l 17.0625,0 0,-11.03125 c -5.479,-7.182 -12.775,-12.53175 -17.625,-20.34375 15.554,-4.311 18.40925,-28.49475 8.28125,-39.09375 C 51.656862,2.6875 38.68608,1.72549 24.812487,1.8125 z M 160.56249,2 c -1.89552,0.0144 -3.65938,0.14875 -5.09375,0.625 2.411,1.953 4.6075,4.1525 6.5625,6.5625 3.4,-1.69 5.8845,-4.30275 8.1875,-7.09375 C 167.26062,2.32 163.72169,1.976 160.56249,2.00005 z m 2.1875,11.5625 c -6.97343,0.22355 -5.46953,15.27469 4.71875,8.71875 0.774,-1.828 0.774,-5.26675 0,-7.09375 -1.87391,-1.20797 -3.42737,-1.6664 -4.71875,-1.625 z M 31.031237,14.53125 c 7.475088,-0.0614 14.33375,0.92063 17.40625,5.625 4.687,7.178 0.37375,17.46675 -7.15625,19.84375 -8.205,-7.943 -15.38225,-16.90525 -23.65625,-24.78125 4.220625,-0.23475 8.921197,-0.65066 13.40625,-0.6875 z m 74.062503,13.1875 c 3.673,5.233 5.39775,12.44725 8.59375,18.15625 -2.628,3.085 -4.85075,6.5925 -8.59375,8.5625 -2.064,-3.479 -5.650503,-5.46275 -7.562503,-9.09375 2.980003,-5.421 5.504503,-11.283 7.562503,-17.625 z m 217.65625,3.875 c 2.619,2.054 3.1115,6.24575 4.6875,9.34375 -2.828,4.097 -7.8915,5.96275 -11.9375,8.84375 2.196,-6.287 5.101,-11.8545 7.25,-18.1875 z"
   id="path7"
   inkscape:connector-curvature="0" />
</svg>