<?xml version="1.0" encoding="UTF-8" standalone="no"?>
<!-- Generator: Adobe Illustrator 15.1.0, SVG Export Plug-In . SVG Version: 6.00 Build 0)  -->

<svg
   xmlns:dc="http://purl.org/dc/elements/1.1/"
   xmlns:cc="http://creativecommons.org/ns#"
   xmlns:rdf="http://www.w3.org/1999/02/22-rdf-syntax-ns#"
   xmlns:svg="http://www.w3.org/2000/svg"
   xmlns="http://www.w3.org/2000/svg"
   xmlns:sodipodi="http://sodipodi.sourceforge.net/DTD/sodipodi-0.dtd"
   xmlns:inkscape="http://www.inkscape.org/namespaces/inkscape"
   version="1.1"
   id="Livello_1"
   x="0px"
   y="0px"
   width="425.2px"
   height="283.46px"
   viewBox="0 0 425.2 283.46"
   enable-background="new 0 0 425.2 283.46"
   xml:space="preserve"
   inkscape:version="0.48.1 r9760"
   sodipodi:docname="rayna_02.svg"><metadata
   id="metadata3184"><rdf:RDF><cc:Work
       rdf:about=""><dc:format>image/svg+xml</dc:format><dc:type
         rdf:resource="http://purl.org/dc/dcmitype/StillImage" /></cc:Work></rdf:RDF></metadata><defs
   id="defs3182">
	
	
	
	
	
</defs><sodipodi:namedview
   pagecolor="#ffffff"
   bordercolor="#666666"
   borderopacity="1"
   objecttolerance="10"
   gridtolerance="10"
   guidetolerance="10"
   inkscape:pageopacity="0"
   inkscape:pageshadow="2"
   inkscape:window-width="640"
   inkscape:window-height="480"
   id="namedview3180"
   showgrid="false"
   inkscape:zoom="0.95251537"
   inkscape:cx="212.60001"
   inkscape:cy="141.73"
   inkscape:window-x="0"
   inkscape:window-y="24"
   inkscape:window-maximized="0"
   inkscape:current-layer="Livello_1" />
<g
   id="g3166">
</g>
<path
   d="M 68.125 80.21875 L 68.125 165.71875 L 80.8125 165.71875 L 80.8125 93.375 L 92.78125 93.375 C 94.32525 93.375 95.77225 93.682 97.15625 94.25 C 98.53825 94.82 99.7545 95.5865 100.8125 96.5625 C 101.8685 97.5385 102.7025 98.68925 103.3125 100.03125 C 103.9225 101.37325 104.25 102.786 104.25 104.25 L 104.25 104.84375 C 104.25 108.25975 103.1765 111.15075 101.0625 113.46875 C 98.9465 115.78675 96.19725 116.9375 92.78125 116.9375 L 92.78125 129.625 L 104.25 129.625 L 104.25 165.71875 L 116.9375 165.71875 L 116.9375 116.9375 L 114.5 116.9375 C 115.394 115.0675 116.009 113.205 116.375 111.375 C 116.742 109.545 116.9375 107.58575 116.9375 105.46875 L 116.9375 104.84375 C 116.9375 101.59175 116.29125 98.47875 115.03125 95.46875 C 113.76925 92.46075 112.03975 89.83175 109.84375 87.59375 C 107.64775 85.35775 105.08425 83.56075 102.15625 82.21875 C 99.22825 80.87675 96.11525 80.21875 92.78125 80.21875 L 68.125 80.21875 z M 129.125 80.34375 L 129.125 165.71875 L 142.6875 165.71875 L 142.6875 132.4375 L 165.5 132.4375 L 165.5 165.71875 L 178.78125 165.71875 L 178.78125 104.5 C 178.78125 101.166 178.12325 98.02175 176.78125 95.09375 C 175.43925 92.16575 173.61975 89.60225 171.34375 87.40625 C 169.06575 85.21025 166.41425 83.48075 163.40625 82.21875 C 160.39625 80.95875 157.24025 80.34375 153.90625 80.34375 L 129.125 80.34375 z M 190.96875 80.34375 L 190.96875 103.5 L 190.96875 132.4375 L 190.96875 165.71875 L 203.4375 165.71875 L 203.4375 132.4375 L 215.875 132.4375 C 219.127 132.4375 222.22825 131.79325 225.15625 130.53125 C 228.08425 129.27125 230.64875 127.56225 232.84375 125.40625 C 235.03975 123.25225 236.738 120.70925 238 117.78125 C 239.26 114.85325 239.90625 111.74225 239.90625 108.40625 L 239.90625 80.34375 L 227.46875 80.34375 L 227.46875 108.3125 C 227.46875 109.9355 227.15 111.457 226.5 112.875 C 225.848 114.294 224.9945 115.51725 223.9375 116.53125 C 222.8785 117.54525 221.6095 118.307 220.1875 118.875 C 218.7635 119.443 217.34 119.75 215.875 119.75 L 203.4375 119.75 L 203.4375 103.4375 L 203.4375 80.34375 L 190.96875 80.34375 z M 252.09375 80.34375 L 252.09375 165.71875 L 265.40625 165.71875 L 265.40625 93.03125 L 276.875 93.03125 C 280.291 93.03125 283.06275 94.182 285.21875 96.5 C 287.37275 98.818 288.46875 101.535 288.46875 104.625 L 288.46875 165.71875 L 301.15625 165.71875 L 301.15625 104.625 C 301.15625 101.291 300.51 98.14675 299.25 95.21875 C 297.987 92.29075 296.2585 89.72725 294.0625 87.53125 C 291.8675 85.33525 289.2815 83.58325 286.3125 82.28125 C 283.3425 80.98125 280.208 80.34375 276.875 80.34375 L 252.09375 80.34375 z M 313.34375 80.34375 L 313.34375 165.71875 L 326.90625 165.71875 L 326.90625 132.4375 L 349.71875 132.4375 L 349.71875 165.71875 L 363 165.71875 L 363 104.5 C 363 101.166 362.343 98.02175 361 95.09375 C 359.658 92.16575 357.8385 89.60225 355.5625 87.40625 C 353.2835 85.21025 350.633 83.48075 347.625 82.21875 C 344.615 80.95875 341.459 80.34375 338.125 80.34375 L 313.34375 80.34375 z M 142.6875 93.03125 L 153.96875 93.03125 C 157.36575 93.03125 160.13625 94.096 162.28125 96.25 C 164.42425 98.406 165.5 101.209 165.5 104.625 L 165.5 119.75 L 142.6875 119.75 L 142.6875 93.03125 z M 326.90625 93.03125 L 338.1875 93.03125 C 341.5835 93.03125 344.355 94.096 346.5 96.25 C 348.643 98.406 349.71875 101.209 349.71875 104.625 L 349.71875 119.75 L 326.90625 119.75 L 326.90625 93.03125 z "
   transform="translate(-1.2512358e-5,0)"
   id="path3170" />
</svg>