<?xml version="1.0" encoding="UTF-8" standalone="no"?>
<!-- Generator: Adobe Illustrator 15.1.0, SVG Export Plug-In . SVG Version: 6.00 Build 0)  -->

<svg
   xmlns:dc="http://purl.org/dc/elements/1.1/"
   xmlns:cc="http://creativecommons.org/ns#"
   xmlns:rdf="http://www.w3.org/1999/02/22-rdf-syntax-ns#"
   xmlns:svg="http://www.w3.org/2000/svg"
   xmlns="http://www.w3.org/2000/svg"
   xmlns:sodipodi="http://sodipodi.sourceforge.net/DTD/sodipodi-0.dtd"
   xmlns:inkscape="http://www.inkscape.org/namespaces/inkscape"
   version="1.1"
   id="Livello_1"
   x="0px"
   y="0px"
   width="425.2px"
   height="283.46px"
   viewBox="0 0 425.2 283.46"
   enable-background="new 0 0 425.2 283.46"
   xml:space="preserve"
   inkscape:version="0.48.1 r9760"
   sodipodi:docname="wobble records_02.svg"><metadata
   id="metadata3289"><rdf:RDF><cc:Work
       rdf:about=""><dc:format>image/svg+xml</dc:format><dc:type
         rdf:resource="http://purl.org/dc/dcmitype/StillImage" /></cc:Work></rdf:RDF></metadata><defs
   id="defs3287">
	
	
	
	
	
	
	
	
	
	
	
	
	
</defs><sodipodi:namedview
   pagecolor="#ffffff"
   bordercolor="#666666"
   borderopacity="1"
   objecttolerance="10"
   gridtolerance="10"
   guidetolerance="10"
   inkscape:pageopacity="0"
   inkscape:pageshadow="2"
   inkscape:window-width="640"
   inkscape:window-height="480"
   id="namedview3285"
   showgrid="false"
   inkscape:zoom="0.95251537"
   inkscape:cx="212.60001"
   inkscape:cy="141.73"
   inkscape:window-x="0"
   inkscape:window-y="24"
   inkscape:window-maximized="0"
   inkscape:current-layer="Livello_1" />
<path
   d="M 108.15625 62.1875 L 101.65625 79.25 L 95.78125 64.71875 L 88 64.71875 L 97.90625 89.125 L 94.15625 98.96875 L 80.84375 64.71875 L 72.40625 64.71875 L 94.21875 119.3125 L 107.96875 82.90625 L 121.15625 119.25 L 144.09375 64.71875 L 135.6875 64.71875 L 129.4375 79.78125 L 124.78125 64.71875 L 117.21875 64.71875 L 125.125 90.15625 L 121.46875 98.96875 L 108.15625 62.1875 z M 175.53125 63.28125 C 168.13125 63.28125 161.78 65.87125 156.5 71.03125 C 151.22 76.27225 148.59375 82.4875 148.59375 89.6875 C 148.59375 97.8875 151.48125 104.51475 157.28125 109.59375 C 162.56125 114.15375 168.525 116.4375 175.125 116.4375 C 182.644 116.4375 189.0325 113.8475 194.3125 108.6875 C 199.5925 103.5685 202.21875 97.32875 202.21875 89.96875 C 202.21875 82.64875 199.615 76.366 194.375 71.125 C 189.134 65.885 182.85125 63.28125 175.53125 63.28125 z M 310.0625 64.90625 L 310.0625 84.53125 L 303.5625 84.53125 L 303.5625 91.78125 L 310.0625 91.78125 L 310.0625 116.4375 L 338.5 116.4375 L 338.5 109.125 L 317.84375 109.125 L 317.84375 91.96875 L 337.875 91.96875 L 337.875 84.53125 L 320.90625 84.53125 L 317.84375 84.53125 L 317.84375 72.15625 L 338.5 72.15625 L 338.5 64.90625 L 310.0625 64.90625 z M 206.3125 65.125 L 206.3125 116.4375 L 218.0625 116.4375 C 219.8225 116.4375 221.436 116.3465 222.875 116.1875 C 224.315 116.0275 225.62125 115.78875 226.78125 115.46875 C 227.86125 115.14875 228.8725 114.69375 229.8125 114.09375 C 230.7515 113.49375 231.65125 112.7775 232.53125 111.9375 C 235.37125 109.0965 236.78125 105.71 236.78125 101.75 C 236.78125 98.63 235.975 95.9285 234.375 93.6875 C 232.814 91.3685 230.68875 89.76375 227.96875 88.84375 C 230.76775 86.24475 232.15625 83.10975 232.15625 79.46875 C 232.15625 77.38975 231.72275 75.38875 230.84375 73.46875 C 230.00375 71.54875 228.8765 69.945 227.4375 68.625 C 226.0365 67.385 224.29775 66.46725 222.21875 65.90625 C 220.25775 65.38725 217.5415 65.125 214.0625 65.125 L 206.3125 65.125 z M 240.6875 65.125 L 240.6875 116.4375 L 252.4375 116.4375 C 254.1975 116.4375 255.811 116.3465 257.25 116.1875 C 258.69 116.0275 259.99625 115.78875 261.15625 115.46875 C 262.23625 115.14875 263.2475 114.69375 264.1875 114.09375 C 265.1265 113.49375 266.02625 112.7775 266.90625 111.9375 C 269.74625 109.0965 271.15625 105.71 271.15625 101.75 C 271.15625 98.63 270.38125 95.9285 268.78125 93.6875 C 267.22025 91.3685 265.06375 89.76375 262.34375 88.84375 C 265.14275 86.24475 266.5625 83.10975 266.5625 79.46875 C 266.5625 77.38975 266.09775 75.38875 265.21875 73.46875 C 264.37875 71.54875 263.2515 69.945 261.8125 68.625 C 260.4115 67.385 258.67275 66.46725 256.59375 65.90625 C 254.63275 65.38725 251.9165 65.125 248.4375 65.125 L 240.6875 65.125 z M 276.5625 65.125 L 276.5625 116.4375 L 299.375 116.4375 L 299.375 109.1875 L 284.3125 109.1875 L 284.3125 65.125 L 276.5625 65.125 z M 175.40625 70.53125 C 180.80625 70.53125 185.30625 72.405 188.90625 76.125 C 192.58625 79.885 194.4375 84.475 194.4375 89.875 C 194.4375 95.315 192.56375 99.87375 188.84375 103.59375 C 185.12275 107.31375 180.57775 109.1875 175.21875 109.1875 C 170.25875 109.1875 165.89375 107.35775 162.09375 103.71875 C 158.29275 100.03875 156.40625 95.39 156.40625 89.75 C 156.40625 84.35 158.22525 79.806 161.90625 76.125 C 165.54525 72.405 170.04525 70.53125 175.40625 70.53125 z M 214.0625 72.21875 L 216.75 72.21875 C 219.35 72.21875 221.349 72.845 222.75 74.125 C 224.109 75.365 224.78125 77.19375 224.78125 79.59375 C 224.78125 82.11375 224.1325 84.011 222.8125 85.25 C 221.4525 86.531 219.3175 87.15625 216.4375 87.15625 L 214.0625 87.15625 L 214.0625 72.21875 z M 248.4375 72.21875 L 251.125 72.21875 C 253.725 72.21875 255.724 72.845 257.125 74.125 C 258.484 75.365 259.15625 77.19375 259.15625 79.59375 C 259.15625 82.11375 258.5075 84.011 257.1875 85.25 C 255.8275 86.531 253.72375 87.15625 250.84375 87.15625 L 248.4375 87.15625 L 248.4375 72.21875 z M 175.59375 80.96875 C 174.35375 80.96875 173.205 81.19725 172.125 81.65625 C 171.045 82.11625 170.08125 82.7635 169.28125 83.5625 C 168.48025 84.3625 167.86525 85.295 167.40625 86.375 C 166.94525 87.455 166.71875 88.60375 166.71875 89.84375 C 166.71875 91.08375 166.94625 92.26375 167.40625 93.34375 C 167.86525 94.42375 168.48025 95.3675 169.28125 96.1875 C 170.08125 97.0075 171.045 97.63475 172.125 98.09375 C 173.205 98.55375 174.35375 98.8125 175.59375 98.8125 C 176.83275 98.8125 177.9825 98.55375 179.0625 98.09375 C 180.1425 97.63375 181.074 97.0075 181.875 96.1875 C 182.674 95.3675 183.3325 94.42375 183.8125 93.34375 C 184.2925 92.26375 184.53125 91.08375 184.53125 89.84375 C 184.53125 88.60375 184.2925 87.455 183.8125 86.375 C 183.3325 85.295 182.674 84.3635 181.875 83.5625 C 181.075 82.7625 180.1425 82.11625 179.0625 81.65625 C 177.9825 81.19725 176.83275 80.96875 175.59375 80.96875 z M 214.0625 93.625 L 217.9375 93.625 C 222.1375 93.625 225.05525 94.396 226.65625 95.875 C 228.29625 97.355 229.125 99.1975 229.125 101.4375 C 229.125 103.7585 228.25125 105.65375 226.53125 107.09375 C 224.89025 108.49375 222.32275 109.1875 218.84375 109.1875 L 214.0625 109.1875 L 214.0625 93.625 z M 248.4375 93.625 L 252.34375 93.625 C 256.54375 93.625 259.43025 94.396 261.03125 95.875 C 262.67125 97.355 263.5 99.1975 263.5 101.4375 C 263.5 103.7585 262.62625 105.65375 260.90625 107.09375 C 259.26525 108.49375 256.69775 109.1875 253.21875 109.1875 L 248.4375 109.1875 L 248.4375 93.625 z M 338.875 135.21875 C 334.475 135.21875 330.82525 136.5475 327.90625 139.1875 C 324.94525 141.7875 323.46875 145.00375 323.46875 148.84375 C 323.46875 154.52375 326.99125 158.8525 334.03125 161.8125 L 338.9375 163.90625 C 339.6175 164.18525 340.24125 164.471 340.78125 164.75 C 341.32125 165.029 341.8335 165.306 342.3125 165.625 C 343.2325 166.226 343.9615 166.8825 344.5625 167.5625 C 344.8415 167.9225 345.0915 168.27625 345.3125 168.65625 C 345.5325 169.03625 345.72375 169.46625 345.84375 169.90625 C 346.12275 170.70625 346.25 171.59475 346.25 172.59375 C 346.25 175.11375 345.44275 177.18125 343.84375 178.78125 C 342.28275 180.38025 340.28275 181.1875 337.84375 181.1875 C 334.76275 181.1875 332.46625 180.074 330.90625 177.875 C 330.02525 176.755 329.39125 174.665 329.03125 171.625 L 321.1875 173.3125 C 321.9085 178.0725 323.69125 181.78775 326.53125 184.46875 C 329.45125 187.10875 333.1235 188.4375 337.5625 188.4375 C 342.2425 188.4375 346.175 186.8915 349.375 183.8125 C 352.495 180.6915 354.0625 176.806 354.0625 172.125 C 354.0625 168.567 353.1075 165.5875 351.1875 163.1875 C 349.3075 160.7865 346.2625 158.721 342.0625 157 L 336.96875 154.90625 C 333.20775 153.42525 331.3125 151.40475 331.3125 148.84375 C 331.3125 147.04275 332.02975 145.54275 333.46875 144.34375 C 334.90975 143.14375 336.6915 142.53125 338.8125 142.53125 C 340.6115 142.53125 342.045 142.8825 343.125 143.5625 C 343.644 143.8845 344.189 144.37125 344.75 145.03125 C 345.31 145.69125 345.8755 146.55375 346.4375 147.59375 L 352.75 143.84375 C 349.429 138.08475 344.797 135.21875 338.875 135.21875 z M 161.09375 135.28125 C 152.69375 135.28125 145.82775 138.4085 140.46875 144.6875 C 136.14875 149.8085 133.96875 155.63625 133.96875 162.15625 C 133.96875 169.43625 136.55875 175.6525 141.71875 180.8125 C 146.83875 185.9315 153.1 188.5 160.5 188.5 C 165.379 188.5 170.00525 187.23875 174.40625 184.71875 L 174.40625 175.40625 C 173.12525 176.44725 171.9315 177.365 170.8125 178.125 C 169.6525 178.926 168.57125 179.50625 167.53125 179.90625 C 165.73125 180.78525 163.424 181.25 160.625 181.25 C 155.384 181.25 150.93 179.39875 147.25 175.71875 C 143.61 172.03875 141.78125 167.49375 141.78125 162.09375 C 141.78125 156.61475 143.61 152.01 147.25 148.25 C 150.85 144.49 155.2825 142.59375 160.5625 142.59375 C 165.3625 142.59375 169.96625 144.4675 174.40625 148.1875 L 174.40625 139.0625 C 170.12625 136.5425 165.69375 135.28025 161.09375 135.28125 z M 206.28125 135.28125 C 198.88125 135.28125 192.53 137.87125 187.25 143.03125 C 181.97 148.27125 179.34375 154.4875 179.34375 161.6875 C 179.34375 169.8875 182.23125 176.51475 188.03125 181.59375 C 193.31025 186.15475 199.275 188.4375 205.875 188.4375 C 213.394 188.4375 219.7815 185.8475 225.0625 180.6875 C 230.3415 175.5685 232.96875 169.32875 232.96875 161.96875 C 232.96875 154.64975 230.365 148.366 225.125 143.125 C 219.885 137.885 213.60125 135.28125 206.28125 135.28125 z M 101.15625 136.90625 L 101.15625 156.53125 L 94.6875 156.53125 L 94.6875 163.78125 L 101.15625 163.78125 L 101.15625 188.4375 L 129.59375 188.4375 L 129.59375 181.125 L 108.96875 181.125 L 108.96875 163.96875 L 129 163.96875 L 129 156.53125 L 112.03125 156.53125 L 108.96875 156.53125 L 108.96875 144.15625 L 129.59375 144.15625 L 129.59375 136.90625 L 101.15625 136.90625 z M 56.9375 137.125 L 56.9375 188.4375 L 64.6875 188.4375 L 64.6875 167.4375 L 66.0625 167.4375 L 80.75 188.4375 L 90.1875 188.4375 L 77.28125 170.625 L 74.46875 166.53125 C 77.82875 165.81325 80.5225 164.1635 82.5625 161.5625 C 84.6415 158.9635 85.6875 155.8285 85.6875 152.1875 C 85.6875 147.5485 84.0065 143.80975 80.6875 140.96875 C 77.7265 138.40975 72.84 137.125 66 137.125 L 56.9375 137.125 z M 237.96875 137.125 L 237.96875 188.4375 L 245.6875 188.4375 L 245.6875 167.4375 L 247.09375 167.4375 L 261.78125 188.4375 L 271.1875 188.4375 L 258.3125 170.625 L 255.46875 166.53125 C 258.82975 165.81325 261.55475 164.1635 263.59375 161.5625 C 265.67375 158.9635 266.6875 155.8285 266.6875 152.1875 C 266.6875 147.5485 265.03775 143.80975 261.71875 140.96875 C 258.75775 138.40975 253.87125 137.125 247.03125 137.125 L 237.96875 137.125 z M 275.875 137.125 L 275.875 188.4375 L 286.5 188.4375 C 291.7 188.4375 295.7215 187.96 298.5625 187 C 301.6015 186.039 304.49 184.36775 307.25 181.96875 C 312.769 177.04775 315.53125 170.6525 315.53125 162.8125 C 315.53125 154.9725 312.904 148.63 307.625 143.75 C 306.305 142.59 304.90875 141.57975 303.46875 140.71875 C 302.02975 139.85875 300.515 139.1675 298.875 138.6875 C 295.835 137.6485 291.7665 137.125 286.6875 137.125 L 275.875 137.125 z M 206.15625 142.53125 C 211.55625 142.53125 216.05625 144.406 219.65625 148.125 C 223.33625 151.886 225.1875 156.476 225.1875 161.875 C 225.1875 167.315 223.31475 171.87375 219.59375 175.59375 C 215.87475 179.31375 211.32775 181.1875 205.96875 181.1875 C 201.00775 181.1875 196.64375 179.35875 192.84375 175.71875 C 189.04275 172.03975 187.15625 167.39 187.15625 161.75 C 187.15625 156.35 188.97525 151.807 192.65625 148.125 C 196.29525 144.406 200.79525 142.53125 206.15625 142.53125 z M 64.6875 144.40625 L 67.4375 144.40625 C 74.5565 144.40625 78.125 147.01 78.125 152.25 C 78.125 157.011 75.489 159.74875 70.25 160.46875 L 64.6875 152.4375 L 64.6875 144.40625 z M 245.6875 144.40625 L 248.46875 144.40625 C 255.58775 144.40625 259.125 147.01 259.125 152.25 C 259.125 157.011 256.52125 159.74875 251.28125 160.46875 L 245.6875 152.4375 L 245.6875 144.40625 z M 283.625 144.40625 L 287.09375 144.40625 C 293.77375 144.40625 298.77375 145.966 302.09375 149.125 C 305.85375 152.605 307.75 157.1715 307.75 162.8125 C 307.75 164.7725 307.51125 166.60125 307.03125 168.28125 L 283.625 144.875 L 283.625 144.40625 z M 206.34375 152.96875 C 205.10375 152.96875 203.954 153.19825 202.875 153.65625 C 201.795 154.11625 200.83125 154.7625 200.03125 155.5625 C 199.23025 156.3625 198.61525 157.295 198.15625 158.375 C 197.69525 159.455 197.46875 160.60475 197.46875 161.84375 C 197.46875 163.08375 197.69625 164.26375 198.15625 165.34375 C 198.61525 166.42375 199.23025 167.3685 200.03125 168.1875 C 200.83125 169.0075 201.795 169.63475 202.875 170.09375 C 203.955 170.55475 205.10375 170.8125 206.34375 170.8125 C 207.58375 170.8125 208.7325 170.55475 209.8125 170.09375 C 210.8925 169.63475 211.85525 169.0075 212.65625 168.1875 C 213.45525 167.3675 214.0825 166.42375 214.5625 165.34375 C 215.0415 164.26375 215.28125 163.08375 215.28125 161.84375 C 215.28125 160.60475 215.0415 159.455 214.5625 158.375 C 214.0815 157.295 213.45525 156.3635 212.65625 155.5625 C 211.85625 154.7625 210.8925 154.11625 209.8125 153.65625 C 208.7325 153.19725 207.58375 152.96875 206.34375 152.96875 z M 283.625 155.3125 L 303.34375 175.0625 C 303.14375 175.2625 302.93775 175.47875 302.71875 175.71875 C 302.49975 175.95875 302.27025 176.175 302.03125 176.375 C 300.15025 178.095 298.0935 179.33475 295.8125 180.09375 C 293.4525 180.81475 290.53275 181.1875 287.09375 181.1875 L 283.625 181.1875 L 283.625 155.3125 z "
   transform="translate(-1.2512358e-5,0)"
   id="path3259" />
</svg>