<?xml version="1.0" encoding="UTF-8" standalone="no"?>
<!-- Generator: Adobe Illustrator 15.1.0, SVG Export Plug-In . SVG Version: 6.00 Build 0)  -->

<svg
   xmlns:dc="http://purl.org/dc/elements/1.1/"
   xmlns:cc="http://creativecommons.org/ns#"
   xmlns:rdf="http://www.w3.org/1999/02/22-rdf-syntax-ns#"
   xmlns:svg="http://www.w3.org/2000/svg"
   xmlns="http://www.w3.org/2000/svg"
   xmlns:sodipodi="http://sodipodi.sourceforge.net/DTD/sodipodi-0.dtd"
   xmlns:inkscape="http://www.inkscape.org/namespaces/inkscape"
   version="1.1"
   id="Livello_1"
   x="0px"
   y="0px"
   width="425.2px"
   height="283.46px"
   viewBox="0 0 425.2 283.46"
   enable-background="new 0 0 425.2 283.46"
   xml:space="preserve"
   inkscape:version="0.48.1 r9760"
   sodipodi:docname="wobble records_03.svg"><metadata
   id="metadata3324"><rdf:RDF><cc:Work
       rdf:about=""><dc:format>image/svg+xml</dc:format><dc:type
         rdf:resource="http://purl.org/dc/dcmitype/StillImage" /></cc:Work></rdf:RDF></metadata><defs
   id="defs3322">
	
	
	
	
	
	
	
	
	
	
	
	
	
</defs><sodipodi:namedview
   pagecolor="#ffffff"
   bordercolor="#666666"
   borderopacity="1"
   objecttolerance="10"
   gridtolerance="10"
   guidetolerance="10"
   inkscape:pageopacity="0"
   inkscape:pageshadow="2"
   inkscape:window-width="640"
   inkscape:window-height="480"
   id="namedview3320"
   showgrid="false"
   inkscape:zoom="0.95251537"
   inkscape:cx="212.60001"
   inkscape:cy="141.73"
   inkscape:window-x="0"
   inkscape:window-y="24"
   inkscape:window-maximized="0"
   inkscape:current-layer="Livello_1" />
<path
   d="M 162.53125 70.15625 C 158.80025 70.15625 155.55425 70.7655 152.78125 71.9375 C 149.98825 73.1095 147.766 74.793 146.125 77 C 144.445 79.188 143.4605 81.594 143.1875 84.25 C 142.8945 86.516 142.73775 90.359 142.71875 95.75 L 147.21875 100.0625 L 159.84375 114.09375 L 159.84375 97.46875 L 159.09375 96.71875 L 156.65625 93.71875 L 154.875 91.25 L 154 87.25 L 157.1875 88.46875 L 159.0625 91.09375 L 159.84375 92.03125 L 159.84375 87.8125 C 159.84375 84.5305 160.0745 82.55125 160.5625 81.90625 C 161.0315 81.22325 161.727 80.875 162.625 80.875 C 163.66 80.875 164.34775 81.305 164.71875 82.125 C 165.05075 83.004 165.21875 84.9025 165.21875 87.8125 L 165.21875 99.65625 L 165.5625 100.1875 L 168.53125 103.1875 L 169.78125 104.25 L 171.6875 108.0625 L 172.71875 109.84375 L 166.09375 105.46875 L 165.21875 104.75 L 165.21875 116.9375 C 165.21875 118.2455 165.2065 119.17275 165.1875 119.71875 L 165.9375 120.5 L 171.4375 127.125 L 173.9375 130.96875 L 167.5625 127.375 L 171.4375 132.625 L 165.125 127.65625 L 163.6875 125.28125 C 163.3945 125.43725 162.988 125.5 162.5 125.5 C 161.328 125.5 160.61675 125.07875 160.34375 124.21875 C 160.10975 123.63275 159.9765 122.516 159.9375 120.875 L 158.78125 119.9375 C 157.29625 117.8865 156.0595 116.19175 155.0625 114.84375 C 154.0655 113.49575 153.04625 112.174 152.03125 110.875 C 151.01525 109.576 150.2335 108.6295 149.6875 108.0625 C 148.5745 106.9685 146.66025 105.51225 143.90625 103.65625 L 142.71875 102.78125 L 142.71875 108.625 C 142.71875 115.246 142.8755 119.82375 143.1875 122.34375 C 143.5385 125.03875 144.58225 127.4345 146.28125 129.5625 C 147.98125 131.8085 150.21925 133.4885 153.03125 134.5625 C 155.84325 135.6755 159.01525 136.21875 162.53125 136.21875 C 166.30025 136.21875 169.5585 135.64075 172.3125 134.46875 C 175.1055 133.29675 177.32775 131.6255 178.96875 129.4375 C 180.58975 127.2695 181.57325 124.83225 181.90625 122.15625 C 182.21825 119.57825 182.375 115.07 182.375 108.625 L 182.375 97.78125 C 182.375 96.66825 182.36275 95.60975 182.34375 94.59375 C 182.32475 93.57875 182.3125 92.61675 182.3125 91.71875 C 181.0045 89.66775 180.03125 88.29675 179.40625 87.59375 C 178.29325 86.42175 176.94475 85.09 175.34375 83.625 C 173.87875 82.414 172.84725 81.26925 172.28125 80.15625 C 171.69525 79.06225 170.25025 77.16375 167.90625 74.46875 L 163.78125 70.1875 C 163.50825 70.1685 163.07725 70.15625 162.53125 70.15625 z M 69 71.5 L 70.34375 82.8125 C 71.04775 84.1995 71.6975 85.7015 72.3125 87.3125 C 72.9275 88.9235 73.21875 89.88675 73.21875 90.21875 C 73.21875 91.48875 73.781 93.02325 74.875 94.78125 C 75.344 95.60125 76.59525 97.0315 78.65625 99.0625 C 80.71725 101.0945 81.90225 102.30875 82.15625 102.71875 C 82.39025 103.12875 82.742 103.4435 83.25 103.6875 C 83.758 103.9315 84.32025 104.43425 84.90625 105.15625 C 85.47225 105.87925 86.31575 107.7925 87.46875 110.9375 C 87.01875 110.3325 86.5975 109.7545 86.1875 109.1875 C 85.7775 108.6205 84.6955 107.637 82.9375 106.25 L 82 104.65625 C 81.512 104.93025 81.2465 105.449 81.1875 106.25 C 81.0315 107.715 81.3945 108.95375 82.3125 109.96875 C 82.7805 110.55475 83.3325 111.15275 83.9375 111.71875 C 84.5425 112.28575 85.1205 112.996 85.6875 113.875 C 86.2545 114.774 86.5805 115.60175 86.6875 116.34375 C 86.7945 117.08675 87.05875 117.76125 87.46875 118.40625 C 87.87875 119.05125 88.9215 119.96525 90.5625 121.15625 C 93.7855 124.24325 95.711 126.35575 96.375 127.46875 C 96.57 127.85975 96.84775 128.39075 97.21875 129.09375 C 97.58875 129.79675 98.0075 130.56725 98.4375 131.40625 C 99.7265 122.65725 100.70325 115.816 101.40625 110.875 C 100.89825 110.25 100.3415 109.60925 99.6875 108.90625 C 99.0325 108.20325 98.4455 107.72625 97.9375 107.53125 C 97.2935 107.29625 96.234 106.88625 94.75 106.28125 L 96.78125 98.46875 L 100 101.09375 C 100.957 101.58175 101.6525 102.30425 102.0625 103.28125 C 102.1205 103.43825 102.218 103.688 102.375 104 C 102.433 103.59 102.49125 103.2035 102.53125 102.8125 C 102.57025 102.4225 102.6285 102.0395 102.6875 101.6875 C 102.7465 102.3515 102.81825 103.01125 102.90625 103.65625 C 102.99425 104.30125 103.07825 104.94875 103.15625 105.59375 C 103.40925 106.10275 103.74625 106.6675 104.15625 107.3125 C 105.83625 110.6525 106.94175 112.4805 107.46875 112.8125 C 107.97575 113.1645 108.9995 115.0395 110.5625 118.4375 L 112.71875 121.125 C 108.83275 118.294 106.35525 116.40675 105.28125 115.46875 C 104.92925 115.21575 104.64025 114.93025 104.40625 114.65625 C 105.46125 122.09725 106.625 128.85225 107.875 134.90625 L 118.21875 134.90625 C 117.14475 131.80025 116.21975 129.04925 115.46875 126.65625 C 114.71775 124.26425 114.234 122.47225 114 121.28125 C 113.707 119.91425 113.13125 117.47475 112.28125 113.96875 C 111.43225 110.46375 110.42425 106.41025 109.28125 101.78125 C 108.13825 97.15225 106.92175 92.168 105.59375 86.875 C 104.26475 81.582 102.98 76.461 101.75 71.5 L 93.875 71.5 C 91.336 89.546999 89.7925 104.062 89.1875 115 L 87.375 93.625 L 85.625 71.5 L 69 71.5 z M 107.625 71.5 C 108.484 74.411 109.41925 77.51125 110.40625 80.78125 C 111.39225 84.05325 112.41375 87.38325 113.46875 90.78125 C 112.54975 79.94225 111.95275 73.512 111.71875 71.5 L 107.625 71.5 z M 121.15625 71.5 C 121.72325 72.399 122.047 72.89075 122.125 72.96875 C 122.477 73.43775 122.80075 73.943 123.09375 74.5 C 123.38675 75.057 123.91325 75.7615 124.65625 76.5625 C 125.39825 77.3825 125.86875 77.807 126.09375 77.875 C 126.31775 77.944 126.871 78.27775 127.75 78.84375 C 128.609 79.42975 130.074 81.57125 132.125 85.28125 L 131.53125 87.5625 C 129.71425 85.5315 128.60975 84.31625 128.21875 83.90625 C 127.80875 83.49625 126.5465 82.48825 124.4375 80.90625 C 122.7775 78.56325 121.80075 77.0825 121.46875 76.4375 C 121.23475 76.0465 120.94925 75.7115 120.65625 75.4375 C 120.36325 75.1645 120.062 74.86425 119.75 74.53125 C 119.593 75.56725 119.4595 76.599 119.3125 77.625 C 119.1655 78.651 119.02325 79.68375 118.90625 80.71875 C 119.39425 80.99275 119.961 81.34225 120.625 81.78125 C 121.288 82.22125 121.84 82.66475 122.25 83.09375 C 122.875 83.79675 123.99175 85.07475 125.59375 86.96875 C 124.85175 87.77075 124.30075 88.08225 123.96875 87.90625 C 123.61675 87.73125 123.208 87.38175 122.75 86.84375 C 122.291 86.30575 121.8945 85.9965 121.5625 85.9375 C 121.1335 85.8785 120.10975 85.3005 118.46875 84.1875 C 117.76575 89.8125 117.152 95.508 116.625 101.25 C 118.577 107.735 120.416 113.91225 122.125 119.78125 C 123.834 125.65125 125.13325 130.47225 126.03125 134.28125 C 126.05025 134.41725 126.1095 134.63325 126.1875 134.90625 L 129.28125 134.90625 L 133.09375 103 C 132.48775 102.492 131.828 101.9275 131.125 101.3125 C 130.422 100.6975 129.844 100.18 129.375 99.75 C 128.555 99.008 127.7015 98.41875 126.8125 97.96875 C 125.9235 97.51975 125.05775 96.77375 124.21875 95.71875 C 123.33975 94.70375 123.472 93.875 124.625 93.25 C 125.778 92.625 126.55875 92.0975 126.96875 91.6875 C 127.35975 91.2975 127.92425 91.284 128.65625 91.625 C 129.38925 91.967 130.28875 92.32775 131.34375 92.71875 C 132.18375 93.08975 133.0855 93.81225 134.0625 94.90625 L 136.875 71.5 L 121.15625 71.5 z M 190.15625 71.5 L 193.8125 76.59375 L 199.25 82.625 L 205.40625 90.71875 L 205.40625 82.34375 C 207.14425 82.38375 208.3125 82.4925 208.9375 82.6875 C 209.5425 82.9025 210.0465 83.41775 210.4375 84.21875 C 210.8085 84.99975 211 86.383 211 88.375 C 211 92.125 210.7615 94.41775 210.3125 95.21875 C 210.0975 95.55075 209.832 95.7815 209.5 95.9375 L 228.125 119.09375 L 228.125 114.125 C 228.125 110.004 227.43725 106.96075 226.03125 104.96875 C 224.62425 102.99575 221.93375 101.55425 217.96875 100.65625 C 221.50375 99.91425 223.895 98.78525 225.125 97.28125 C 226.063 96.16825 226.62875 94.281 226.84375 91.625 L 226.625 91.28125 C 226.253 89.81625 225.51925 88.51925 224.40625 87.40625 C 223.29225 86.31225 220.6365 84.02825 216.4375 80.53125 L 212 73.34375 L 209.5 71.59375 C 208.211 71.53475 206.82775 71.5 205.34375 71.5 L 190.15625 71.5 z M 235.90625 71.5 L 239.59375 76.59375 L 245 82.625 L 251.15625 90.71875 L 251.15625 82.34375 C 252.89425 82.38375 254.0625 82.4925 254.6875 82.6875 C 255.2925 82.9025 255.7965 83.41775 256.1875 84.21875 C 256.5585 84.99975 256.75 86.383 256.75 88.375 C 256.75 92.125 256.5115 94.41775 256.0625 95.21875 C 255.8475 95.55075 255.582 95.7815 255.25 95.9375 L 273.90625 119.09375 L 273.90625 114.125 C 273.90625 110.004 273.18725 106.96075 271.78125 104.96875 C 270.37425 102.99575 267.68375 101.55425 263.71875 100.65625 C 267.25375 99.91425 269.645 98.78525 270.875 97.28125 C 271.813 96.16825 272.37875 94.281 272.59375 91.625 L 272.40625 91.28125 C 272.03425 89.81625 271.26925 88.51925 270.15625 87.40625 C 269.04225 86.31225 266.3865 84.02825 262.1875 80.53125 L 257.78125 73.34375 L 255.25 71.59375 C 253.961 71.53475 252.57775 71.5 251.09375 71.5 L 235.90625 71.5 z M 279.75 71.5 L 279.75 85.5625 C 280.199 86.7345 280.50025 87.551 280.65625 88 C 280.91025 88.879 281.449 90.07075 282.25 91.59375 C 283.051 93.11675 283.86875 94.61875 284.71875 96.09375 C 285.56875 97.56875 286.64075 99.3945 287.96875 101.5625 C 290.17575 102.2265 291.773 103.285 292.75 104.75 C 293.356 105.688 294.01575 107.8005 294.71875 111.0625 C 295.42175 114.3245 296.133 117.52 296.875 120.625 L 296.875 71.5 L 279.75 71.5 z M 313.1875 71.5 L 313.1875 97.21875 L 313.78125 98.125 L 321.34375 112.1875 L 325.09375 118.53125 L 328.25 125.15625 L 329.28125 129 L 324.25 125.40625 L 326.21875 130.65625 L 321.6875 125.6875 L 320.46875 120.71875 L 318.15625 117.96875 C 317.41425 115.91775 316.78825 114.223 316.28125 112.875 C 315.77425 111.527 315.25575 110.20525 314.71875 108.90625 C 314.18175 107.60725 313.727 106.692 313.375 106.125 C 313.336 106.086 313.32025 106.01775 313.28125 105.96875 C 313.24225 105.92075 313.2075 105.8715 313.1875 105.8125 L 313.1875 134.90625 L 342.90625 134.90625 L 342.90625 122.21875 L 330.3125 122.21875 L 330.3125 108.28125 L 341.03125 108.28125 L 341.03125 96.21875 L 331.5625 96.21875 L 332.09375 98.21875 L 334 101.21875 L 334.84375 102.28125 L 335.34375 106.125 L 335.78125 107.875 L 330.71875 103.5 L 328.96875 101.5625 L 328.90625 97.875 L 326.90625 94.75 L 325.53125 91.75 L 324.65625 89.28125 L 325.28125 85.28125 L 327.96875 86.5 L 328.9375 89.125 L 330.3125 92.1875 L 330.3125 84.1875 L 341.78125 84.1875 L 341.78125 71.5 L 313.1875 71.5 z M 215.6875 72.25 L 220 76.125 L 224.6875 82.1875 L 226.5625 84.28125 C 226.1715 81.43025 225.43775 79.207 224.34375 77.625 C 222.60575 75.145 220.379 73.51975 217.625 72.71875 C 217.136 72.58275 216.4885 72.426 215.6875 72.25 z M 261.4375 72.25 L 265.78125 76.125 L 270.46875 82.1875 L 272.34375 84.28125 C 271.95275 81.43025 271.219 79.207 270.125 77.625 C 268.387 75.145 266.129 73.51975 263.375 72.71875 C 262.886 72.58275 262.2385 72.426 261.4375 72.25 z M 173.15625 72.34375 L 174.46875 74.03125 L 176.625 77.21875 L 178.53125 80.75 L 180.875 83.9375 C 181.129 84.2885 181.492 84.80475 182 85.46875 C 181.961 85.07775 181.934 84.62075 181.875 84.09375 C 181.542 81.45675 180.5115 79.0205 178.8125 76.8125 C 177.3285 74.9185 175.44125 73.43775 173.15625 72.34375 z M 188.21875 80.28125 L 188.21875 134.90625 L 208.0625 134.90625 C 214.9575 134.90625 219.523 134.54325 221.75 133.78125 C 223.957 133.03925 225.55875 131.6325 226.59375 129.5625 C 227.60875 127.5125 228.125 124.32825 228.125 120.03125 L 228.125 119.84375 L 198.875 93.125 L 194.75 87.375 L 188.21875 80.28125 z M 234 80.28125 L 234 134.90625 L 253.8125 134.90625 C 260.7075 134.90625 265.273 134.54325 267.5 133.78125 C 269.707 133.03925 271.34 131.6325 272.375 129.5625 C 273.39 127.5125 273.875 124.32825 273.875 120.03125 L 273.875 119.84375 L 244.625 93.125 L 240.53125 87.375 L 234 80.28125 z M 72.21875 98.34375 L 76.625 134.90625 L 97.90625 134.90625 C 97.92525 134.73025 97.93975 134.561 97.96875 134.375 C 97.99875 134.19 98.05375 133.97625 98.09375 133.78125 C 97.50775 133.25425 96.8705 132.6525 96.1875 131.9375 C 95.5035 131.2245 94.96475 130.5895 94.59375 130.0625 C 93.94975 129.1835 91.73775 126.76525 87.96875 122.78125 L 85.375 121.96875 C 81.976 122.18375 80.0315 122.28125 79.5625 122.28125 C 79.0745 122.28125 78.74975 121.477 78.59375 119.875 C 79.33575 116.887 79.395 115.11725 78.75 114.53125 C 78.106 113.96525 77.387 113.24625 76.625 112.40625 L 76.96875 106.75 L 75.84375 103.03125 C 75.53175 101.91825 74.9415 101.16 74.0625 100.75 C 73.5935 100.556 72.98075 99.74975 72.21875 98.34375 z M 279.75 99.21875 L 279.75 134.90625 L 296.9375 134.90625 C 296.1175 133.01225 295.384 131.31875 294.75 129.84375 C 294.116 128.36875 293.63325 127.20375 293.28125 126.34375 C 292.50025 124.44975 291.453 122.3205 290.125 119.9375 C 288.797 117.5545 287.47525 115.2225 286.15625 112.9375 C 284.83725 110.6525 283.651 108.5625 282.625 106.6875 C 281.599 104.8125 281.01975 103.45375 280.84375 102.59375 C 280.70675 101.98875 280.336 100.85975 279.75 99.21875 z M 205.40625 106.3125 C 207.94525 106.4105 209.52 106.7465 210.125 107.3125 C 210.711 107.8795 211 109.50475 211 112.21875 L 211 118.15625 C 211 120.73425 210.664 122.34375 210 122.96875 C 209.296 123.65275 207.76925 123.99225 205.40625 124.03125 L 205.40625 106.3125 z M 251.15625 106.3125 C 253.69525 106.4105 255.27 106.7465 255.875 107.3125 C 256.461 107.8795 256.75 109.50475 256.75 112.21875 L 256.75 118.15625 C 256.75 120.73425 256.414 122.34375 255.75 122.96875 C 255.046 123.65275 253.51925 123.99225 251.15625 124.03125 L 251.15625 106.3125 z M 297.28125 122.21875 C 297.63225 123.66475 297.97175 124.93725 298.34375 126.03125 C 298.71475 127.12525 299.0855 127.906 299.4375 128.375 C 299.8285 128.921 300.32025 129.77775 300.90625 130.96875 C 301.49225 132.16075 302.105 133.48125 302.75 134.90625 L 307.3125 134.90625 L 307.3125 122.21875 L 297.28125 122.21875 z M 155.21875 142.15625 C 151.62475 142.19525 148.3945 142.79675 145.5625 143.96875 C 144.1565 144.59375 142.94125 145.28925 141.90625 146.03125 L 143.625 146.71875 L 145.40625 149.46875 L 146.84375 151.75 L 150.46875 156.75 L 152.59375 160.0625 C 152.59375 157.2305 152.78525 155.32075 153.15625 154.34375 C 153.52625 153.36675 154.41775 152.875 155.84375 152.875 C 157.07475 152.875 157.89025 153.29275 158.28125 154.09375 C 158.63225 154.89475 158.8125 156.902 158.8125 160.125 L 158.8125 166.53125 L 159.6875 167.65625 L 162.78125 171.125 L 172 171.125 C 171.473 170.422 170.88375 169.648 170.21875 168.75 L 164.15625 156.25 L 155.21875 142.15625 z M 201.625 142.15625 C 197.894 142.15625 194.648 142.7655 191.875 143.9375 C 189.082 145.1095 186.85975 146.793 185.21875 149 C 183.53875 151.188 182.55425 153.594 182.28125 156.25 C 181.98825 158.515 181.8315 162.359 181.8125 167.75 L 186.28125 172.09375 L 198.9375 186.125 L 198.9375 169.46875 L 198.15625 168.71875 L 195.71875 165.71875 L 193.96875 163.25 L 193.09375 159.25 L 196.25 160.46875 L 198.15625 163.09375 L 198.9375 164.03125 L 198.9375 159.8125 C 198.9375 156.5305 199.16825 154.55125 199.65625 153.90625 C 200.12525 153.22325 200.82075 152.875 201.71875 152.875 C 202.75375 152.875 203.4415 153.305 203.8125 154.125 C 204.1445 155.004 204.3125 156.9025 204.3125 159.8125 L 204.3125 171.65625 L 204.625 172.1875 L 207.625 175.1875 L 208.84375 176.25 L 210.75 180.0625 L 211.8125 181.84375 L 205.15625 177.46875 L 204.3125 176.75 L 204.3125 188.9375 C 204.3125 190.2455 204.30125 191.17175 204.28125 191.71875 L 205 192.5 L 210.53125 199.125 L 213 202.96875 L 206.65625 199.375 L 210.53125 204.625 L 204.1875 199.65625 L 202.75 197.28125 C 202.457 197.43725 202.08175 197.5 201.59375 197.5 C 200.42175 197.5 199.67925 197.07775 199.40625 196.21875 C 199.17225 195.63275 199.039 194.516 199 192.875 L 197.875 191.9375 C 196.39 189.8865 195.15325 188.19175 194.15625 186.84375 C 193.15925 185.49575 192.14 184.175 191.125 182.875 C 190.109 181.576 189.32725 180.6285 188.78125 180.0625 C 187.66825 178.9685 185.72275 177.51125 182.96875 175.65625 L 181.8125 174.78125 L 181.8125 180.625 C 181.8125 187.246 181.96925 191.82375 182.28125 194.34375 C 182.63225 197.03875 183.64475 199.4335 185.34375 201.5625 C 187.04375 203.8085 189.313 205.4885 192.125 206.5625 C 194.937 207.6755 198.109 208.21875 201.625 208.21875 C 205.394 208.21875 208.65225 207.64075 211.40625 206.46875 C 214.19925 205.29675 216.4215 203.6255 218.0625 201.4375 C 219.6835 199.2695 220.63675 196.83225 220.96875 194.15625 C 221.28175 191.57825 221.4375 187.07 221.4375 180.625 L 221.4375 169.78125 C 221.4375 168.66825 221.4565 167.60975 221.4375 166.59375 C 221.4185 165.57775 221.40625 164.61675 221.40625 163.71875 C 220.09825 161.66775 219.125 160.29675 218.5 159.59375 C 217.387 158.42175 216.0395 157.12125 214.4375 155.65625 C 212.9725 154.44525 211.941 153.26925 211.375 152.15625 C 210.789 151.06225 209.31275 149.16375 206.96875 146.46875 L 202.84375 142.1875 C 202.57075 142.1685 202.171 142.15625 201.625 142.15625 z M 337.21875 142.1875 L 343.25 147.53125 L 347.90625 153.625 L 354.71875 161.21875 L 354.71875 160.1875 C 354.71875 155.1295 354.2035 151.57 353.1875 149.5 C 352.1525 147.391 350.09375 145.637 346.96875 144.25 C 344.19475 143.039 340.92975 142.3445 337.21875 142.1875 z M 158.6875 142.3125 C 159.2155 143.0935 159.621 143.695 159.875 144.125 C 160.48 145.199 161.51725 146.822 163.03125 149 C 164.54425 151.179 166.14025 153.44825 167.78125 155.78125 C 169.42225 158.11425 170.949 160.30375 172.375 162.34375 C 173.8 164.38475 174.7375 165.79275 175.1875 166.59375 C 175.3635 166.94575 175.6045 167.35125 175.9375 167.78125 L 175.9375 165.125 C 175.9375 159.168 175.4525 154.793 174.4375 152 C 173.3825 149.246 171.1995 146.90275 167.9375 144.96875 C 165.3395 143.52375 162.2615 142.6455 158.6875 142.3125 z M 331.78125 142.375 C 329.26225 142.687 327.05125 143.2425 325.15625 144.0625 C 322.28525 145.3315 320.19525 147.09775 318.90625 149.34375 C 317.61725 151.57075 317 155.10575 317 159.96875 C 317 163.40575 317.457 166.17225 318.375 168.28125 C 319.274 170.46825 320.39425 172.184 321.78125 173.375 C 323.01225 174.488 325.836 176.4605 330.25 179.3125 C 334.488 181.9885 337.16825 183.9105 338.28125 185.0625 C 339.33625 186.2145 339.875 188.645 339.875 192.375 C 339.875 194.055 339.6095 195.33975 339.0625 196.21875 C 338.5155 197.07775 337.652 197.5 336.5 197.5 C 335.368 197.5 334.56275 197.15275 334.09375 196.46875 C 333.64475 195.78575 333.4375 194.26925 333.4375 191.90625 L 333.4375 184.1875 L 317.5 184.1875 L 317.5 186.46875 L 326.875 191.875 L 331.4375 196.40625 L 337.78125 201.4375 L 344.15625 207.4375 C 345.48425 207.1445 346.797 206.6875 348.125 206.0625 C 351.269 204.6365 353.406 202.82425 354.5 200.65625 C 355.613 198.52725 356.15625 195.2185 356.15625 190.6875 C 356.15625 184.4765 355.14825 179.9805 353.15625 177.1875 C 351.14425 174.3945 346.35925 170.7925 338.78125 166.4375 C 336.08625 164.9145 334.45325 163.64875 333.90625 162.59375 C 333.32025 161.51875 333.03125 159.91025 333.03125 157.78125 C 333.03125 156.14025 333.31675 154.926 333.84375 154.125 C 334.37075 153.305 335.14025 152.875 336.15625 152.875 C 337.11325 152.875 337.7775 153.17625 338.1875 153.78125 C 338.5975 154.40625 338.8125 155.80075 338.8125 157.96875 L 338.8125 162.6875 L 349.8125 162.6875 C 349.8125 162.5905 349.714 162.18175 349.5 161.46875 C 349.285 160.75575 348.66 159.89875 347.625 158.84375 C 346.512 157.74975 343.844 155.4335 339.625 151.9375 L 335.25 144.78125 L 331.78125 142.375 z M 57.125 143.5 L 61.65625 147.53125 L 66.34375 153.625 L 72.875 160.9375 L 72.875 154.34375 C 74.827 154.34375 76.20675 154.65625 76.96875 155.28125 C 77.73075 155.92525 78.09375 157.258 78.09375 159.25 L 78.09375 162.71875 C 78.09375 164.16375 78.0075 165.29275 77.8125 166.09375 L 83.96875 172.0625 L 85.4375 173.71875 C 88.6995 173.30875 90.9095 172.312 92.0625 170.75 C 92.8045 169.773 93.3545 168.19925 93.6875 166.03125 L 93.40625 165.71875 L 91.65625 163.25 L 90.78125 159.25 L 93.90625 160.46875 L 94 160.5625 C 93.96 155.2895 93.05825 151.441 91.28125 149 C 89.50425 146.558 87.17125 145 84.28125 144.375 C 81.41025 143.789 75.941 143.5 67.875 143.5 L 57.125 143.5 z M 99.875 143.5 L 99.875 169.21875 L 100.46875 170.125 L 108.03125 184.1875 L 111.78125 190.53125 L 114.9375 197.15625 L 115.96875 201 L 110.9375 197.40625 L 112.90625 202.65625 L 108.375 197.6875 L 107.15625 192.71875 L 104.84375 189.96875 C 104.10075 187.91775 103.47675 186.223 102.96875 184.875 C 102.46075 183.527 101.94325 182.20625 101.40625 180.90625 C 100.86825 179.60725 100.4145 178.691 100.0625 178.125 C 100.0235 178.086 100.00775 178.01775 99.96875 177.96875 C 99.92875 177.92075 99.894 177.8715 99.875 177.8125 L 99.875 206.90625 L 129.59375 206.90625 L 129.59375 194.21875 L 117 194.21875 L 117 180.28125 L 127.71875 180.28125 L 127.71875 168.21875 L 118.25 168.21875 L 118.78125 170.21875 L 120.6875 173.21875 L 121.5625 174.28125 L 122.03125 178.125 L 122.46875 179.875 L 117.40625 175.5 L 115.65625 173.5625 L 115.59375 169.875 L 113.59375 166.75 L 112.21875 163.75 L 111.34375 161.28125 L 111.96875 157.28125 L 114.65625 158.5 L 115.625 161.125 L 117 164.1875 L 117 156.1875 L 128.46875 156.1875 L 128.46875 143.5 L 99.875 143.5 z M 228.6875 143.5 L 233.21875 147.53125 L 237.90625 153.625 L 244.4375 160.9375 L 244.4375 154.34375 C 246.3905 154.34375 247.76925 154.65625 248.53125 155.28125 C 249.29325 155.92525 249.65625 157.258 249.65625 159.25 L 249.65625 162.71875 C 249.65625 164.16375 249.57 165.29275 249.375 166.09375 L 255.53125 172.0625 L 257.03125 173.71875 C 260.29325 173.30875 262.473 172.312 263.625 170.75 C 264.367 169.773 264.918 168.19925 265.25 166.03125 L 264.96875 165.71875 L 263.21875 163.25 L 262.34375 159.25 L 265.46875 160.46875 L 265.5625 160.5625 C 265.5235 155.2895 264.62075 151.442 262.84375 149 C 261.06675 146.558 258.73475 145 255.84375 144.375 C 252.97275 143.789 247.5035 143.5 239.4375 143.5 L 228.6875 143.5 z M 271.4375 143.5 L 271.4375 175.0625 C 272.2775 175.9995 273.27775 177.09375 274.46875 178.34375 C 276.79275 178.53975 278.59375 179.23875 279.84375 180.46875 C 280.44875 181.09375 281.244 182.48475 282.25 184.59375 C 283.256 186.70275 284.291 188.963 285.375 191.375 C 286.459 193.787 287.54875 196.04725 288.59375 198.15625 C 289.63875 200.26525 290.49575 201.61375 291.21875 202.21875 C 292.05875 202.96075 293.3435 204.512 295.0625 206.875 C 298.1295 206.836 300.531 206.621 302.25 206.25 C 304.301 205.82 306.008 205.06275 307.375 203.96875 C 308.722 202.93375 309.69525 201.453 310.28125 199.5 C 310.84825 197.547 311.125 193.7265 311.125 188.0625 L 311.125 171.28125 L 307.25 167.34375 L 305.8125 160.75 C 305.9685 159.285 305.71525 157.988 305.03125 156.875 C 304.32825 155.781 302.50025 153.496 299.53125 150 L 298.0625 144.0625 C 294.9375 143.6915 290.324 143.5 284.25 143.5 L 271.4375 143.5 z M 212.25 144.34375 L 213.53125 146.03125 L 215.71875 149.21875 L 217.59375 152.75 L 219.9375 155.9375 C 220.1915 156.2885 220.58575 156.80475 221.09375 157.46875 C 221.05475 157.07775 220.9965 156.5895 220.9375 156.0625 C 220.6055 153.4255 219.60525 151.0195 217.90625 148.8125 C 216.42225 146.9185 214.535 145.43775 212.25 144.34375 z M 304.90625 146.0625 L 307.1875 151.65625 L 311 158.84375 C 310.863 156.51975 310.70725 154.805 310.53125 153.75 C 310.14025 151.7 309.1915 149.8475 307.6875 148.1875 C 306.8865 147.3475 305.96125 146.6485 304.90625 146.0625 z M 55.75 148.125 L 55.75 178.53125 C 57.723 182.28125 59.924 186.71675 62.375 191.84375 C 64.825 196.97075 67.20275 201.98425 69.46875 206.90625 L 72.875 206.90625 L 72.875 178.3125 C 75.219 178.3125 76.683 178.73025 77.25 179.53125 C 77.817 180.37125 78.09375 182.46475 78.09375 185.84375 L 78.09375 206.90625 L 94 206.90625 L 94 190.1875 L 94 190 L 94 189.8125 C 92.906 188.3275 91.56075 186.51425 89.96875 184.40625 C 88.37675 182.29725 87.1995 180.8435 86.4375 180.0625 C 85.3245 178.9685 83.4215 177.51125 80.6875 175.65625 L 72.125 169.3125 L 68.28125 162.6875 C 67.91025 161.2225 67.18775 159.95675 66.09375 158.84375 C 64.98075 157.74975 62.31275 155.4335 58.09375 151.9375 L 55.75 148.125 z M 227.3125 148.125 L 227.3125 178.53125 C 229.2855 182.28125 231.4865 186.71675 233.9375 191.84375 C 236.3885 196.97075 238.76525 201.98425 241.03125 206.90625 L 244.4375 206.90625 L 244.4375 178.3125 C 246.7815 178.3125 248.2465 178.73025 248.8125 179.53125 C 249.3795 180.37125 249.65625 182.46475 249.65625 185.84375 L 249.65625 206.90625 L 265.5625 206.90625 L 265.5625 190.1875 L 265.5625 190 L 265.5625 189.8125 C 264.4695 188.3275 263.12325 186.51525 261.53125 184.40625 C 259.93925 182.29725 258.762 180.8435 258 180.0625 C 256.887 178.9685 254.984 177.51125 252.25 175.65625 L 243.6875 169.3125 L 239.84375 162.6875 C 239.47275 161.2225 238.75025 159.95675 237.65625 158.84375 C 236.54325 157.74975 233.87525 155.4335 229.65625 151.9375 L 227.3125 148.125 z M 137.375 151.28125 C 136.652 152.66825 136.1715 154.10975 135.9375 155.59375 C 135.6445 157.81975 135.48775 160.75425 135.46875 164.40625 L 144 172.65625 L 152.59375 182.1875 L 152.59375 167.53125 L 143.28125 159 L 139.21875 152.65625 L 137.375 151.28125 z M 288.5625 154.34375 C 290.3795 154.34375 291.652 154.53525 292.375 154.90625 C 293.019 155.27725 293.4535 155.8675 293.6875 156.6875 C 293.8825 157.6055 294 159.44575 294 162.21875 L 294 186.875 C 294 191.075 293.691 193.648 293.125 194.625 C 292.539 195.562 291.0235 196.03125 288.5625 196.03125 L 288.5625 154.34375 z M 135.46875 172.375 L 135.46875 184.375 C 135.46875 190.586 135.97625 195.23875 137.03125 198.34375 C 138.08625 201.42975 140.26925 203.867 143.53125 205.625 C 146.73425 207.363 150.8585 208.21875 155.9375 208.21875 C 160.7425 208.21875 164.804 207.20725 168.125 205.15625 C 168.125 205.13725 168.13625 205.125 168.15625 205.125 L 161.875 200.21875 L 158.875 195.28125 L 158.53125 195 C 158.41425 195.527 158.29675 195.87875 158.21875 196.09375 C 157.82775 197.03075 157.02 197.5 155.75 197.5 C 154.402 197.5 153.52725 197.03175 153.15625 196.09375 C 152.78525 195.19575 152.59375 193.1875 152.59375 190.0625 L 152.59375 188.4375 C 151.49875 186.9725 150.3775 185.44925 149.1875 183.90625 C 147.9965 182.36325 147.07375 181.28125 146.46875 180.65625 C 145.35575 179.54325 143.4415 178.05475 140.6875 176.21875 L 135.46875 172.375 z M 168.15625 205.125 C 168.99625 204.598 169.777 204.0425 170.5 203.4375 L 164.375 199.96875 L 168.15625 205.125 z M 85.84375 174.15625 L 93.84375 183.03125 C 93.78475 181.99525 93.6795 181.2615 93.5625 180.8125 C 93.3085 179.7385 92.59725 178.4885 91.40625 177.0625 C 90.37125 175.8915 88.51975 174.91825 85.84375 174.15625 z M 257.40625 174.15625 L 265.40625 183.03125 C 265.34725 181.99525 265.242 181.2615 265.125 180.8125 C 264.871 179.7385 264.15975 178.4885 262.96875 177.0625 C 261.93375 175.8915 260.08225 174.91825 257.40625 174.15625 z M 158.8125 181.53125 L 158.8125 188.96875 L 162.71875 193.0625 L 168.21875 199.6875 L 170.59375 203.375 C 172.48775 201.734 173.80825 199.9105 174.53125 197.9375 C 174.96025 196.6485 175.266 195.0625 175.5 193.1875 L 175.15625 192.65625 L 168.65625 186.71875 L 163.96875 181.53125 L 158.8125 181.53125 z M 171.96875 181.53125 L 173.59375 183.09375 L 175.9375 184.78125 L 175.9375 184.40625 L 175.9375 184 L 175.9375 181.53125 L 171.96875 181.53125 z M 271.4375 185.71875 L 271.4375 189.3125 L 272.28125 189.90625 L 275.1875 194.46875 L 279.71875 199.46875 L 284.875 206.90625 L 288.59375 206.90625 C 287.75375 205.73425 287.02 204.69925 286.375 203.78125 C 285.73 202.86325 285.2035 202.11725 284.8125 201.53125 C 283.2305 199.20725 281.1035 196.555 278.4375 193.625 C 275.7715 190.695 273.4495 188.06275 271.4375 185.71875 z M 55.75 189.6875 L 55.75 206.90625 L 64.5 206.90625 C 62.742 203.44925 61.1045 200.2055 59.5625 197.1875 C 58.0195 194.1695 56.746 191.6795 55.75 189.6875 z M 227.3125 189.6875 L 227.3125 206.90625 L 236.0625 206.90625 C 234.3055 203.44925 232.668 200.2055 231.125 197.1875 C 229.582 194.1695 228.3085 191.6795 227.3125 189.6875 z M 317.71875 193 C 317.95275 195.675 318.38625 197.78175 319.03125 199.34375 C 320.02725 201.94175 322.16425 204.09 325.40625 205.75 C 328.19925 207.176 331.555 207.96125 335.5 208.15625 L 334.15625 206.875 L 325.96875 200.53125 L 320.0625 194.59375 L 317.71875 193 z M 271.4375 202 L 271.4375 206.90625 L 275.34375 206.90625 L 274.09375 204.90625 L 271.4375 202 z "
   transform="translate(-1.2512358e-5,0)"
   id="path3294" />
</svg>