<?xml version="1.0" encoding="UTF-8" standalone="no"?>
<!-- Generator: Adobe Illustrator 15.1.0, SVG Export Plug-In . SVG Version: 6.00 Build 0)  -->

<svg
   xmlns:dc="http://purl.org/dc/elements/1.1/"
   xmlns:cc="http://creativecommons.org/ns#"
   xmlns:rdf="http://www.w3.org/1999/02/22-rdf-syntax-ns#"
   xmlns:svg="http://www.w3.org/2000/svg"
   xmlns="http://www.w3.org/2000/svg"
   xmlns:sodipodi="http://sodipodi.sourceforge.net/DTD/sodipodi-0.dtd"
   xmlns:inkscape="http://www.inkscape.org/namespaces/inkscape"
   version="1.1"
   id="Livello_1"
   x="0px"
   y="0px"
   width="425.2px"
   height="283.46px"
   viewBox="0 0 425.2 283.46"
   enable-background="new 0 0 425.2 283.46"
   xml:space="preserve"
   inkscape:version="0.48.1 r9760"
   sodipodi:docname="yodha_02.svg"><metadata
   id="metadata3446"><rdf:RDF><cc:Work
       rdf:about=""><dc:format>image/svg+xml</dc:format><dc:type
         rdf:resource="http://purl.org/dc/dcmitype/StillImage" /></cc:Work></rdf:RDF></metadata><defs
   id="defs3444" /><sodipodi:namedview
   pagecolor="#ffffff"
   bordercolor="#666666"
   borderopacity="1"
   objecttolerance="10"
   gridtolerance="10"
   guidetolerance="10"
   inkscape:pageopacity="0"
   inkscape:pageshadow="2"
   inkscape:window-width="640"
   inkscape:window-height="480"
   id="namedview3442"
   showgrid="false"
   inkscape:zoom="0.95251537"
   inkscape:cx="212.60001"
   inkscape:cy="141.73"
   inkscape:window-x="0"
   inkscape:window-y="24"
   inkscape:window-maximized="0"
   inkscape:current-layer="Livello_1" />
<g
   id="g3430">
</g>
<path
   d="M 289.4375 109.1875 C 289.2495 109.1875 289.08525 109.321 289.03125 109.5 L 269.6875 171.34375 C 269.6485 171.47575 269.67 171.60675 269.75 171.71875 C 269.83 171.83075 269.95775 171.90625 270.09375 171.90625 L 308.75 171.90625 C 308.888 171.90625 309.01075 171.83075 309.09375 171.71875 C 309.17275 171.60775 309.19825 171.47575 309.15625 171.34375 L 289.84375 109.5 C 289.78475 109.321 289.6225 109.1875 289.4375 109.1875 z M 136.1875 109.3125 C 120.6995 109.3125 120.53125 124.81175 120.53125 124.96875 L 120.53125 155.46875 C 120.53125 155.62575 120.6995 171.125 136.1875 171.125 L 143.8125 171.125 C 159.3005 171.125 159.46875 155.62575 159.46875 155.46875 L 159.46875 124.96875 C 159.46875 124.81175 159.3005 109.3125 143.8125 109.3125 L 136.1875 109.3125 z M 171.03125 109.6875 C 170.79825 109.6875 170.59375 109.893 170.59375 110.125 L 170.59375 113.9375 L 170.59375 171.09375 C 170.59375 171.32875 170.79825 171.53125 171.03125 171.53125 L 193.875 171.53125 C 209.365 171.53125 209.5625 148.45175 209.5625 148.21875 L 209.5625 132.96875 C 209.5635 132.73575 209.365 109.6875 193.875 109.6875 L 174.84375 109.6875 L 171.03125 109.6875 z M 220.4375 109.6875 C 220.2015 109.6875 220.03125 109.892 220.03125 110.125 L 220.03125 140.6875 L 220.03125 171.25 C 220.03225 171.488 220.2015 171.65625 220.4375 171.65625 L 258.65625 171.65625 C 258.89225 171.65625 259.0625 171.488 259.0625 171.25 L 259.0625 144.5 L 259.0625 140.6875 L 259.0625 110.125 C 259.0625 109.892 258.89325 109.6875 258.65625 109.6875 C 258.42225 109.6875 258.21875 109.892 258.21875 110.125 L 258.21875 140.25 L 254.84375 140.25 L 220.875 140.25 L 220.875 110.125 C 220.875 109.892 220.6695 109.6875 220.4375 109.6875 z M 77.375 109.90625 C 77.223 109.90625 77.075 109.989 77 110.125 C 76.924 110.261 76.917 110.4335 77 110.5625 L 96 140.9375 L 96 171.3125 C 96 171.5485 96.2015 171.75 96.4375 171.75 C 96.6685 171.75 96.84375 171.5495 96.84375 171.3125 L 96.84375 140.9375 L 115.84375 110.5625 C 115.92475 110.4335 115.91675 110.261 115.84375 110.125 C 115.76975 109.989 115.62375 109.90625 115.46875 109.90625 L 77.375 109.90625 z "
   transform="translate(-1.2512358e-5,0)"
   id="path3432" />




</svg>