<?xml version="1.0" encoding="UTF-8" standalone="no"?>
<!-- Generator: Adobe Illustrator 15.1.0, SVG Export Plug-In . SVG Version: 6.00 Build 0)  -->

<svg
   xmlns:dc="http://purl.org/dc/elements/1.1/"
   xmlns:cc="http://creativecommons.org/ns#"
   xmlns:rdf="http://www.w3.org/1999/02/22-rdf-syntax-ns#"
   xmlns:svg="http://www.w3.org/2000/svg"
   xmlns="http://www.w3.org/2000/svg"
   xmlns:sodipodi="http://sodipodi.sourceforge.net/DTD/sodipodi-0.dtd"
   xmlns:inkscape="http://www.inkscape.org/namespaces/inkscape"
   version="1.1"
   id="Livello_1"
   x="0px"
   y="0px"
   width="425.2px"
   height="283.46px"
   viewBox="0 0 425.2 283.46"
   enable-background="new 0 0 425.2 283.46"
   xml:space="preserve"
   inkscape:version="0.48.1 r9760"
   sodipodi:docname="yodha_01.svg"><metadata
   id="metadata3427"><rdf:RDF><cc:Work
       rdf:about=""><dc:format>image/svg+xml</dc:format><dc:type
         rdf:resource="http://purl.org/dc/dcmitype/StillImage" /></cc:Work></rdf:RDF></metadata><defs
   id="defs3425">
	
	

	
	
	

	
	
	
	

	
	
	
	

	
	

		
	
		
		
	
		
		
	
		
	
		
	
		
	
		
	
		
	
		
	
		
	
		
	
		
	
		
	
		
	
		
		
	
			
		
			
			
		
			
		
			
		
			
		
			
		
				
			
				
			</defs><sodipodi:namedview
   pagecolor="#ffffff"
   bordercolor="#666666"
   borderopacity="1"
   objecttolerance="10"
   gridtolerance="10"
   guidetolerance="10"
   inkscape:pageopacity="0"
   inkscape:pageshadow="2"
   inkscape:window-width="640"
   inkscape:window-height="480"
   id="namedview3423"
   showgrid="false"
   inkscape:zoom="0.95251537"
   inkscape:cx="212.60001"
   inkscape:cy="141.73"
   inkscape:window-x="0"
   inkscape:window-y="24"
   inkscape:window-maximized="0"
   inkscape:current-layer="Livello_1" />
<g
   id="g3327">
</g>
<path
   style="fill:#000000"
   d="M 80.5 89.15625 C 74.361 89.15625 69.375 93.98725 69.375 99.90625 C 69.375 105.82625 74.361 110.65625 80.5 110.65625 C 86.637 110.65625 91.625 105.82625 91.625 99.90625 C 91.625 93.98625 86.637 89.15625 80.5 89.15625 z M 80.5 96.71875 C 82.482 96.71875 84.09375 98.13725 84.09375 99.90625 C 84.09375 101.67325 82.482 103.125 80.5 103.125 C 78.515 103.125 76.90625 101.67225 76.90625 99.90625 C 76.90625 98.13725 78.516 96.71875 80.5 96.71875 z M 252.09375 108.53125 C 248.85975 108.53125 246.25 111.141 246.25 114.375 L 246.25 165.34375 C 246.25 168.57875 248.86075 171.1875 252.09375 171.1875 C 255.33175 171.1875 257.96975 168.57875 257.96875 165.34375 L 257.96875 145.71875 L 287.34375 145.71875 L 287.34375 165.34375 C 287.34375 168.57875 289.9545 171.1875 293.1875 171.1875 C 296.4195 171.1875 299.03225 168.57875 299.03125 165.34375 L 299.03125 140.46875 C 299.05121 140.27199 299.03131 140.04575 299.03125 139.84375 C 299.03125 139.64144 299.05126 139.44702 299.03125 139.25 L 299.03125 114.375 C 299.03125 111.141 296.4185 108.53125 293.1875 108.53125 C 289.9545 108.53125 287.34375 111.141 287.34375 114.375 L 287.34375 134 L 257.96875 134 L 257.96875 114.375 C 257.96875 111.141 255.33075 108.53125 252.09375 108.53125 z M 338.28125 109.25 C 338.02947 109.26766 337.78195 109.29257 337.53125 109.34375 C 337.45714 109.35863 337.38593 109.38854 337.3125 109.40625 C 337.26055 109.419 337.20803 109.42326 337.15625 109.4375 C 337.05962 109.46363 336.97015 109.50023 336.875 109.53125 C 336.76094 109.56887 336.64402 109.61115 336.53125 109.65625 C 336.47022 109.68041 336.40396 109.69254 336.34375 109.71875 C 336.24024 109.76408 336.13328 109.82315 336.03125 109.875 C 335.96858 109.90686 335.90531 109.93461 335.84375 109.96875 C 335.73057 110.03133 335.63867 110.11857 335.53125 110.1875 C 335.4682 110.22805 335.40532 110.26945 335.34375 110.3125 C 335.06387 110.50773 334.79856 110.7338 334.5625 110.96875 C 334.5095 111.02191 334.45737 111.06957 334.40625 111.125 C 334.34407 111.19197 334.27745 111.24297 334.21875 111.3125 C 334.18504 111.35258 334.15774 111.39637 334.125 111.4375 C 334.03999 111.544 333.95199 111.63834 333.875 111.75 C 333.84022 111.80051 333.81462 111.85438 333.78125 111.90625 C 333.71064 112.01551 333.62549 112.13662 333.5625 112.25 C 333.52963 112.30949 333.4998 112.37644 333.46875 112.4375 C 333.41557 112.54191 333.35927 112.64275 333.3125 112.75 L 313.4375 151.90625 C 313.34754 152.07192 313.26142 152.23139 313.1875 152.40625 L 307.625 163.3125 C 306.161 166.1925 307.33575 169.69325 310.21875 171.15625 C 311.06375 171.58725 311.95375 171.8125 312.84375 171.8125 C 314.97175 171.8125 317.0285 170.62375 318.0625 168.59375 L 322.15625 160.53125 L 355.21875 160.53125 L 359.3125 168.59375 C 360.3465 170.62375 362.40325 171.8125 364.53125 171.8125 C 365.42225 171.8125 366.31325 171.58725 367.15625 171.15625 C 370.03925 169.69325 371.215 166.1925 369.75 163.3125 L 364.1875 152.40625 C 364.11338 152.23139 364.02769 152.07192 363.9375 151.90625 L 343.90625 112.4375 C 343.81469 112.25763 343.70069 112.07239 343.59375 111.90625 C 343.58619 111.89451 343.57015 111.88669 343.5625 111.875 C 343.40855 111.63976 343.24424 111.42499 343.0625 111.21875 C 342.9657 111.10909 342.85567 111.00903 342.75 110.90625 C 342.65144 110.81049 342.57313 110.71297 342.46875 110.625 C 342.12829 110.33679 341.75899 110.08558 341.34375 109.875 C 341.18416 109.79393 341.0068 109.72144 340.84375 109.65625 C 340.58789 109.5549 340.33006 109.47083 340.0625 109.40625 C 339.98842 109.38807 339.9181 109.35893 339.84375 109.34375 C 339.72135 109.31916 339.59269 109.29801 339.46875 109.28125 C 339.44797 109.27842 339.42704 109.28385 339.40625 109.28125 C 339.30253 109.26832 339.19825 109.25736 339.09375 109.25 C 339.00955 109.24409 338.92784 109.25224 338.84375 109.25 C 338.65528 109.24482 338.47064 109.23671 338.28125 109.25 z M 56.90625 109.4375 C 55.790584 109.47581 54.6885 109.82663 53.71875 110.53125 C 51.12775 112.41725 50.5555 116.032 52.4375 118.625 L 74.71875 149.3125 L 74.71875 165.65625 C 74.71875 168.86225 77.298 171.4375 80.5 171.4375 C 83.7 171.4375 86.3125 168.86325 86.3125 165.65625 L 86.3125 149.25 L 108.59375 118.625 C 110.47675 116.032 109.9025 112.41725 107.3125 110.53125 C 104.7245 108.65125 101.10075 109.2195 99.21875 111.8125 L 80.5 137.53125 L 61.8125 111.8125 C 60.635625 110.19188 58.765693 109.37365 56.90625 109.4375 z M 185.53125 109.46875 C 182.30025 109.46875 179.6875 112.0845 179.6875 115.3125 L 179.6875 166.15625 C 179.6875 169.38525 182.30125 172 185.53125 172 L 208.34375 172 C 208.4068 172 208.46831 172.00038 208.53125 172 C 208.73281 172 208.92867 171.9887 209.125 171.96875 C 225.55382 171.55733 237.84375 158.29342 237.84375 140.75 C 237.84375 123.21575 225.56936 109.9275 209.15625 109.5 C 209.00114 109.48424 208.84594 109.47212 208.6875 109.46875 C 208.64561 109.46829 208.60444 109.46904 208.5625 109.46875 L 185.53125 109.46875 z M 140.78125 109.65625 C 123.74025 109.65625 109.90625 123.5235 109.90625 140.5625 C 109.90625 157.40023 123.42494 171.11383 140.1875 171.4375 C 140.20725 171.43972 140.23019 171.43549 140.25 171.4375 C 140.43026 171.44061 140.60026 171.4375 140.78125 171.4375 C 140.96914 171.4375 141.15665 171.44086 141.34375 171.4375 C 141.36357 171.43549 141.3865 171.43972 141.40625 171.4375 C 158.16094 171.10364 171.6875 157.39376 171.6875 140.5625 C 171.6875 123.5235 157.82325 109.65625 140.78125 109.65625 z M 140.78125 120.5625 C 151.80625 120.5625 160.78125 129.5375 160.78125 140.5625 C 160.78125 151.5845 151.80625 160.53125 140.78125 160.53125 C 129.75625 160.53125 120.8125 151.5845 120.8125 140.5625 C 120.8125 129.5375 129.75625 120.5625 140.78125 120.5625 z M 191.375 121.15625 L 208.5625 121.15625 C 218.7732 121.27299 226.15625 129.48816 226.15625 140.75 C 226.15625 152.092 218.66875 160.3125 208.34375 160.3125 L 191.375 160.3125 L 191.375 121.15625 z M 338.6875 128 L 349.28125 148.84375 L 328.09375 148.84375 L 338.6875 128 z "
   transform="translate(-1.2512358e-5,0)"
   id="path3335" />




</svg>