# Blender v2.64 (sub 0) OBJ File: 'shapes.blend'
# www.blender.org
o Plane.003
v -60.820145 0.000000 4.000000
v -68.820145 0.000000 4.000000
v -60.820145 0.000000 -4.000000
v -68.820145 0.000000 -4.000000
v -59.896149 10.561308 4.000001
v -67.774612 11.950494 4.000001
v -59.896149 10.561308 -3.999999
v -67.774612 11.950494 -3.999998
v -57.152237 20.801716 4.000003
v -64.669785 23.537878 4.000003
v -57.152237 20.801716 -3.999997
v -64.669785 23.537878 -3.999997
v -52.671787 30.410074 4.000004
v -59.599995 34.410076 4.000004
v -52.671787 30.410074 -3.999996
v -59.599995 34.410076 -3.999995
v -46.590927 39.094437 4.000006
v -52.719288 44.236740 4.000006
v -46.590927 39.094437 -3.999995
v -52.719288 44.236740 -3.999994
v -39.094429 46.590935 4.000007
v -44.236732 52.719292 4.000007
v -39.094429 46.590935 -3.999993
v -44.236732 52.719292 -3.999993
v -30.410065 52.671791 4.000008
v -34.410065 59.599995 4.000008
v -30.410065 52.671791 -3.999992
v -34.410065 59.599995 -3.999992
v -20.801704 57.152237 4.000008
v -23.537868 64.669777 4.000009
v -20.801704 57.152237 -3.999992
v -23.537868 64.669777 -3.999991
v -10.561295 59.896145 4.000009
v -11.950485 67.774605 4.000010
v -10.561295 59.896145 -3.999991
v -11.950485 67.774605 -3.999991
v 0.000015 60.820137 4.000009
v 0.000008 68.820137 4.000010
v 0.000015 60.820137 -3.999991
v 0.000008 68.820137 -3.999991
v 10.561325 59.896137 4.000009
v 11.950500 67.774605 4.000010
v 10.561325 59.896137 -3.999991
v 11.950500 67.774605 -3.999991
v 20.801727 57.152225 4.000009
v 23.537888 64.669777 4.000010
v 20.801727 57.152225 -3.999992
v 23.537888 64.669777 -3.999992
v 30.410080 52.671772 4.000008
v 34.410080 59.599987 4.000009
v 30.410080 52.671772 -3.999992
v 34.410080 59.599987 -3.999992
v 46.675217 38.993774 4.000005
v 52.814651 44.122833 4.000006
v 46.675217 38.993774 -3.999995
v 52.814651 44.122833 -3.999994
v 52.737312 30.296305 4.000004
v 59.674133 34.281342 4.000004
v 52.737312 30.296305 -3.999996
v 59.674133 34.281342 -3.999995
v 57.197006 20.678295 4.000003
v 64.720444 23.398224 4.000003
v 57.197006 20.678295 -3.999997
v 64.720444 23.398224 -3.999997
v 59.918808 10.431988 4.000002
v 67.800247 11.804163 4.000001
v 59.918808 10.431988 -3.999998
v 67.800247 11.804163 -3.999998
v 60.820000 -0.131294 4.000000
v 68.819992 -0.148560 4.000000
v 60.820000 -0.131294 -4.000000
v 68.819992 -0.148560 -4.000000
v 59.873207 -10.690582 3.999999
v 67.748657 -12.096764 3.999998
v 59.873207 -10.690582 -4.000001
v 67.748657 -12.096764 -4.000001
v 57.107201 -20.925041 3.999998
v 64.618820 -23.677425 3.999997
v 57.107201 -20.925041 -4.000002
v 64.618820 -23.677425 -4.000003
v 52.606018 -30.523705 3.999996
v 59.525574 -34.538643 3.999996
v 52.606018 -30.523697 -4.000003
v 59.525574 -34.538643 -4.000004
v 46.506424 -39.194920 3.999995
v 52.623665 -44.350433 3.999994
v 46.506424 -39.194920 -4.000004
v 52.623665 -44.350426 -4.000006
v 38.993759 -46.675224 3.999995
v 44.122826 -52.814659 3.999994
v 38.993759 -46.675217 -4.000006
v 44.122818 -52.814659 -4.000007
v 30.296280 -52.737316 3.999994
v 34.281326 -59.674133 3.999993
v 30.296280 -52.737316 -4.000007
v 34.281326 -59.674126 -4.000008
v 20.678276 -57.197010 3.999993
v 23.398209 -64.720451 3.999992
v 20.678276 -57.197002 -4.000007
v 23.398209 -64.720451 -4.000009
v 10.431976 -59.918804 3.999993
v 11.804153 -67.800247 3.999992
v 10.431976 -59.918804 -4.000008
v 11.804153 -67.800247 -4.000010
v -21.093315 -51.985332 3.689672
v -23.867828 -58.823235 3.689671
v -21.093315 -51.985332 -3.689687
v -23.867828 -58.823235 -3.689687
v -29.800018 -47.532738 3.689673
v -33.719772 -53.784973 3.689672
v -29.800018 -47.532730 -3.689686
v -33.719769 -53.784973 -3.689687
v -37.601265 -41.635895 3.689674
v -42.547153 -47.112488 3.689673
v -37.601265 -41.635887 -3.689685
v -42.547150 -47.112480 -3.689686
v -44.260010 -34.473953 3.689675
v -50.081768 -39.008495 3.689674
v -44.260010 -34.473946 -3.689684
v -50.081768 -39.008495 -3.689684
v -49.573944 -26.264542 3.689676
v -56.094673 -29.719273 3.689675
v -49.573944 -26.264542 -3.689683
v -56.094673 -29.719265 -3.689683
v -53.381592 -17.257103 3.689678
v -60.403152 -19.527023 3.689677
v -53.381592 -17.257103 -3.689681
v -60.403152 -19.527023 -3.689682
v -55.567268 -7.725311 3.689679
v -62.876328 -8.741459 3.689678
v -55.567268 -7.725311 -3.689680
v -62.876328 -8.741459 -3.689680
v -56.064560 2.041210 3.689680
v -63.439034 2.309692 3.689680
v -56.064568 2.041203 -3.689679
v -63.439034 2.309692 -3.689679
v -54.858368 11.745714 3.689682
v -62.074173 13.290684 3.689682
v -54.858368 11.745714 -3.689677
v -62.074173 13.290684 -3.689678
v -51.985313 21.093332 3.689683
v -58.823227 23.867836 3.689683
v -51.985313 21.093328 -3.689676
v -58.823227 23.867836 -3.689676
v -47.532722 29.800032 3.689684
v -53.784966 33.719780 3.689685
v -47.532722 29.800032 -3.689675
v -53.784966 33.719776 -3.689675
v -41.635872 37.601269 3.689685
v -47.112473 42.547169 3.689686
v -41.635864 37.601265 -3.689674
v -47.112473 42.547169 -3.689674
v -34.473946 44.260014 3.689687
v -39.008484 50.081772 3.689687
v -34.473946 44.260014 -3.689673
v -39.008484 50.081772 -3.689673
v 58.047211 -42.466389 4.730182
v 65.682465 -48.052216 4.730181
v 58.047211 -42.466389 -4.730194
v 65.682480 -48.052216 -4.730194
v 49.791122 -51.901016 4.730181
v 56.340424 -58.727837 4.730180
v 49.791115 -51.901016 -4.730195
v 56.340424 -58.727833 -4.730196
v 40.022171 -59.758667 4.730179
v 45.286514 -67.619041 4.730178
v 40.022171 -59.758667 -4.730196
v 45.286499 -67.619034 -4.730196
v 29.037155 -65.800568 4.730180
v 32.856567 -74.455673 4.730178
v 29.037155 -65.800568 -4.730196
v 32.856567 -74.455673 -4.730197
v 17.169861 -69.843163 4.730179
v 19.428314 -79.030022 4.730176
v 17.169861 -69.843163 -4.730197
v 19.428314 -79.030022 -4.730198
v 4.780876 -71.763603 4.730179
v 5.409737 -81.203049 4.730176
v 4.780876 -71.763603 -4.730196
v 5.409737 -81.203049 -4.730199
v -7.753376 -71.503540 4.730179
v -8.773224 -80.908783 4.730177
v -7.753372 -71.503540 -4.730196
v -8.773216 -80.908783 -4.730198
v -20.052048 -69.070877 4.730178
v -22.689590 -78.156151 4.730177
v -20.052036 -69.070892 -4.730196
v -22.689583 -78.156151 -4.730198
v -31.741451 -64.539543 4.730180
v -35.916565 -73.028763 4.730178
v -31.741451 -64.539543 -4.730196
v -35.916561 -73.028763 -4.730198
v -42.466408 -58.047184 4.730181
v -48.052223 -65.682457 4.730180
v -42.466400 -58.047184 -4.730195
v -48.052219 -65.682457 -4.730196
v -51.901031 -49.791096 4.730182
v -58.727848 -56.340412 4.730182
v -51.901028 -49.791096 -4.730194
v -58.727837 -56.340416 -4.730195
v -59.758667 -40.022152 4.730183
v -67.619057 -45.286488 4.730182
v -59.758659 -40.022137 -4.730193
v -67.619057 -45.286488 -4.730195
v -65.800575 -29.037148 4.730185
v -74.455681 -32.856556 4.730185
v -65.800568 -29.037148 -4.730191
v -74.455673 -32.856556 -4.730193
v -16.238770 70.065521 4.730197
v -18.374741 79.281593 4.730198
v -16.238770 70.065521 -4.730178
v -18.374756 79.281601 -4.730177
v -3.825317 71.820877 4.730198
v -4.328487 81.267868 4.730199
v -3.825314 71.820877 -4.730177
v -4.328484 81.267876 -4.730176
v 8.704361 71.394012 4.730197
v 9.849281 80.784866 4.730198
v 8.704361 71.394028 -4.730178
v 9.849289 80.784859 -4.730176
v 20.969559 68.797890 4.730198
v 23.727814 77.847244 4.730199
v 20.969559 68.797890 -4.730178
v 23.727814 77.847244 -4.730176
v 32.597626 64.111359 4.730197
v 36.885368 72.544273 4.730197
v 32.597626 64.111359 -4.730179
v 36.885368 72.544289 -4.730178
v 43.235222 57.476852 4.730196
v 48.922165 65.037094 4.730196
v 43.235222 57.476852 -4.730179
v 48.922165 65.037094 -4.730179
v 52.559128 49.095924 4.730195
v 59.472511 55.553772 4.730196
v 52.559128 49.095932 -4.730180
v 59.472504 55.553772 -4.730179
v 60.286057 39.223251 4.730193
v 68.215805 44.382507 4.730195
v 60.286041 39.223267 -4.730182
v 68.215790 44.382511 -4.730181
v 66.181229 28.158804 4.730192
v 74.886383 31.862673 4.730193
v 66.181229 28.158804 -4.730183
v 74.886398 31.862680 -4.730184
v 70.065506 16.238737 4.730191
v 79.281601 18.374731 4.730191
v 70.065506 16.238745 -4.730185
v 79.281601 18.374731 -4.730185
v 71.820877 3.825283 4.730189
v 81.267868 4.328466 4.730190
v 71.820862 3.825292 -4.730187
v 81.267868 4.328481 -4.730186
v 71.394012 -8.704381 4.730187
v 80.784866 -9.849315 4.730187
v 71.393997 -8.704383 -4.730188
v 80.784866 -9.849315 -4.730190
v 68.797867 -20.969574 4.730186
v 77.847244 -23.727825 4.730186
v 68.797867 -20.969570 -4.730190
v 77.847214 -23.727818 -4.730191
v -71.447418 -8.254807 4.730186
v -80.845253 -9.340607 4.730186
v -71.447418 -8.254807 -4.730189
v -80.845261 -9.340622 -4.730189
v -71.795372 4.277312 4.730189
v -81.239014 4.839928 4.730189
v -71.795372 4.277320 -4.730186
v -81.239021 4.839935 -4.730186
v -69.961891 16.679462 4.730189
v -79.164375 18.873396 4.730190
v -69.961906 16.679472 -4.730186
v -79.164368 18.873402 -4.730185
v -66.002663 28.574820 4.730193
v -74.684349 32.333435 4.730193
v -66.002663 28.574820 -4.730183
v -74.684349 32.333435 -4.730182
v -60.037960 39.601959 4.730194
v -67.935081 44.811020 4.730193
v -60.037960 39.601959 -4.730182
v -67.935089 44.811020 -4.730182
v -52.249039 49.425804 4.730195
v -59.121647 55.927025 4.730195
v -52.249039 49.425804 -4.730180
v -59.121647 55.927025 -4.730180
v -42.872562 57.747864 4.730196
v -48.511806 65.343742 4.730197
v -42.872562 57.747864 -4.730179
v -48.511814 65.343735 -4.730178
v -32.193420 64.315292 4.730197
v -36.428005 72.775024 4.730198
v -32.193439 64.315277 -4.730178
v -36.428009 72.775009 -4.730177
vn 0.000000 -1.000000 0.000000
vn 0.965926 -0.258819 0.000000
vn -0.000000 -0.000000 1.000000
vn -0.000000 0.000000 -1.000000
vn -0.996195 0.087156 0.000000
vn 0.996195 -0.087156 0.000000
vn 0.906308 -0.422618 0.000000
vn -0.965926 0.258819 0.000000
vn -0.819152 0.573577 0.000000
vn -0.906308 0.422618 0.000000
vn 0.819152 -0.573577 0.000000
vn -0.707107 0.707107 0.000000
vn 0.707107 -0.707107 0.000000
vn -0.573576 0.819152 0.000000
vn 0.573576 -0.819152 0.000000
vn 0.258819 -0.965926 0.000000
vn -0.422618 0.906308 0.000000
vn 0.422618 -0.906308 0.000000
vn -0.087156 0.996195 0.000000
vn -0.258819 0.965926 0.000000
vn 0.087156 0.996195 0.000000
vn 0.087155 -0.996195 0.000000
vn -0.087156 -0.996195 0.000000
vn 0.258819 0.965926 0.000000
vn -0.258819 -0.965926 0.000000
vn 0.866026 -0.499999 0.000000
vn 0.422618 0.906308 0.000000
vn -0.422619 -0.906308 0.000000
vn -0.641133 0.767430 0.000000
vn -0.907218 -0.420660 0.000000
vn 0.820388 0.571807 0.000000
vn -0.820388 -0.571807 0.000000
vn -0.966482 -0.256734 0.000000
vn 0.907218 0.420661 0.000000
vn 0.996380 0.085006 0.000000
vn 0.966482 0.256733 0.000000
vn -0.996381 -0.085005 0.000000
vn 0.996004 -0.089307 0.000000
vn -0.996004 0.089306 0.000000
vn 0.965365 -0.260903 0.000000
vn -0.965365 0.260903 0.000000
vn -0.817912 0.575344 0.000000
vn 0.905393 -0.424574 0.000000
vn -0.905393 0.424574 0.000000
vn 0.705579 -0.708631 -0.000001
vn 0.817912 -0.575344 -0.000000
vn 0.571806 -0.820389 -0.000001
vn -0.705579 0.708632 0.000000
vn -0.571806 0.820389 0.000000
vn 0.420662 -0.907218 -0.000000
vn -0.420660 0.907218 0.000000
vn -0.985180 -0.171522 0.000000
vn 0.256732 -0.966483 0.000000
vn -0.256734 0.966482 0.000000
vn 0.926627 -0.375983 0.000000
vn 0.603000 0.797741 0.000001
vn -0.455313 -0.890331 -0.000000
vn 0.455314 0.890331 0.000000
vn 0.732367 0.680911 0.000001
vn -0.603001 -0.797741 -0.000001
vn -0.839478 -0.543393 -0.000000
vn -0.732366 -0.680911 -0.000001
vn 0.839478 0.543393 0.000000
vn -0.921085 -0.389362 -0.000000
vn 0.921084 0.389363 0.000000
vn -0.974703 -0.223504 0.000000
vn 0.974703 0.223503 0.000000
vn 0.992364 -0.123343 -0.000000
vn -0.998706 -0.050852 0.000000
vn 0.998706 0.050853 -0.000001
vn -0.955869 0.293792 0.000000
vn -0.992364 0.123344 0.000000
vn -0.890331 0.455313 -0.000000
vn 0.955869 -0.293793 0.000000
vn 0.890331 -0.455314 0.000000
vn -0.797741 0.603000 -0.000000
vn 0.797740 -0.603002 0.000001
vn 0.788925 0.614490 0.000000
vn -0.680911 0.732367 0.000000
vn 0.680912 -0.732366 0.000001
vn 0.590445 0.807078 0.000000
vn -0.626760 0.779213 0.000000
vn 0.752546 -0.658540 0.000000
vn -0.752545 0.658540 0.000000
vn -0.481927 0.876211 0.000000
vn 0.626759 -0.779213 -0.000001
vn 0.322455 -0.946585 0.000000
vn 0.481928 -0.876211 -0.000001
vn -0.322454 0.946585 0.000000
vn 0.153181 -0.988198 0.000000
vn -0.153182 0.988198 0.000000
vn -0.020743 -0.999785 -0.000000
vn 0.020744 0.999785 0.000000
vn 0.361439 0.932396 -0.000001
vn -0.194039 -0.980994 -0.000000
vn 0.194039 0.980994 -0.000001
vn -0.517856 -0.855468 -0.000000
vn -0.361440 -0.932396 -0.000000
vn -0.658539 -0.752546 -0.000000
vn 0.517858 0.855467 0.000000
vn 0.658540 0.752545 0.000000
vn -0.779213 -0.626759 -0.000000
vn 0.779214 0.626759 0.000001
vn -0.403727 0.914880 -0.000000
vn -0.876211 -0.481927 -0.000000
vn 0.876211 0.481929 0.000001
vn -0.974178 -0.225782 0.000001
vn -0.034048 -0.999420 -0.000001
vn -0.140016 0.990149 0.000001
vn 0.140015 -0.990149 0.000000
vn -0.207078 -0.978324 -0.000001
vn 0.034048 0.999420 0.000000
vn 0.373817 0.927503 0.000001
vn 0.207078 0.978324 -0.000000
vn -0.373817 -0.927502 0.000000
vn 0.529197 0.848499 0.000001
vn -0.529196 -0.848500 0.000000
vn 0.668498 0.743714 -0.000000
vn -0.668498 -0.743714 -0.000000
vn -0.882547 -0.470224 0.000000
vn 0.787486 0.616333 -0.000001
vn -0.787486 -0.616332 -0.000000
vn 0.950793 0.309827 0.000001
vn 0.882548 0.470223 0.000000
vn 0.990149 0.140016 0.000000
vn -0.950793 -0.309826 -0.000000
vn -0.990149 -0.140015 0.000001
vn 0.999420 -0.034048 -0.000000
vn -0.999420 0.034049 0.000002
vn -0.291558 -0.956553 -0.000000
vn 0.978324 -0.207080 -0.000002
vn -0.978324 0.207079 0.000001
vn 0.114775 -0.993392 0.000001
vn 0.989248 -0.146246 -0.000001
vn -0.999615 -0.027757 0.000001
vn 0.999615 0.027754 0.000000
vn 0.948824 -0.315806 -0.000001
vn -0.989248 0.146246 0.000000
vn -0.879570 0.475769 0.000000
vn -0.948824 0.315805 -0.000000
vn 0.879570 -0.475769 0.000000
vn -0.783590 0.621278 0.000000
vn 0.783591 -0.621277 0.000000
vn -0.663802 0.747908 -0.000000
vn 0.663803 -0.747908 0.000000
vn -0.523846 0.851813 -0.000001
vn 0.523846 -0.851813 0.000000
vn 0.894228 0.447612 -0.000002
s off
f 3//1 1//1 2//1 4//1
f 5//2 7//2 11//2 9//2
f 2//3 1//3 5//3 6//3
f 3//4 4//4 8//4 7//4
f 4//5 2//5 6//5 8//5
f 1//6 3//6 7//6 5//6
f 9//7 11//7 15//7 13//7
f 9//3 10//3 6//3 5//3
f 7//4 8//4 12//4 11//4
f 8//8 6//8 10//8 12//8
f 16//9 14//9 18//9 20//9
f 13//3 14//3 10//3 9//3
f 11//4 12//4 16//4 15//4
f 12//10 10//10 14//10 16//10
f 19//4 20//4 24//4 23//4
f 13//11 15//11 19//11 17//11
f 17//3 18//3 14//3 13//3
f 15//4 16//4 20//4 19//4
f 23//4 24//4 28//4 27//4
f 20//12 18//12 22//12 24//12
f 17//13 19//13 23//13 21//13
f 21//3 22//3 18//3 17//3
f 29//3 30//3 26//3 25//3
f 24//14 22//14 26//14 28//14
f 21//15 23//15 27//15 25//15
f 25//3 26//3 22//3 21//3
f 29//16 31//16 35//16 33//16
f 27//4 28//4 32//4 31//4
f 28//17 26//17 30//17 32//17
f 25//18 27//18 31//18 29//18
f 36//19 34//19 38//19 40//19
f 33//3 34//3 30//3 29//3
f 31//4 32//4 36//4 35//4
f 32//20 30//20 34//20 36//20
f 40//21 38//21 42//21 44//21
f 33//22 35//22 39//22 37//22
f 37//3 38//3 34//3 33//3
f 35//4 36//4 40//4 39//4
f 43//4 44//4 48//4 47//4
f 37//23 39//23 43//23 41//23
f 41//3 42//3 38//3 37//3
f 39//4 40//4 44//4 43//4
f 49//3 50//3 46//3 45//3
f 44//24 42//24 46//24 48//24
f 41//25 43//25 47//25 45//25
f 45//3 46//3 42//3 41//3
f 51//26 52//26 50//26 49//26
f 47//4 48//4 52//4 51//4
f 48//27 46//27 50//27 52//27
f 45//28 47//28 51//28 49//28
f 55//29 53//29 54//29 56//29
f 57//30 59//30 63//30 61//30
f 57//3 58//3 54//3 53//3
f 55//4 56//4 60//4 59//4
f 56//31 54//31 58//31 60//31
f 53//32 55//32 59//32 57//32
f 61//33 63//33 67//33 65//33
f 61//3 62//3 58//3 57//3
f 59//4 60//4 64//4 63//4
f 60//34 58//34 62//34 64//34
f 68//35 66//35 70//35 72//35
f 65//3 66//3 62//3 61//3
f 63//4 64//4 68//4 67//4
f 64//36 62//36 66//36 68//36
f 71//4 72//4 76//4 75//4
f 65//37 67//37 71//37 69//37
f 69//3 70//3 66//3 65//3
f 67//4 68//4 72//4 71//4
f 75//4 76//4 80//4 79//4
f 72//38 70//38 74//38 76//38
f 69//39 71//39 75//39 73//39
f 73//3 74//3 70//3 69//3
f 81//3 82//3 78//3 77//3
f 76//40 74//40 78//40 80//40
f 73//41 75//41 79//41 77//41
f 77//3 78//3 74//3 73//3
f 81//42 83//42 87//42 85//42
f 79//4 80//4 84//4 83//4
f 80//43 78//43 82//43 84//43
f 77//44 79//44 83//44 81//44
f 88//45 86//45 90//45 92//45
f 85//3 86//3 82//3 81//3
f 83//4 84//4 88//4 87//4
f 84//46 82//46 86//46 88//46
f 92//47 90//47 94//47 96//47
f 85//48 87//48 91//48 89//48
f 89//3 90//3 86//3 85//3
f 87//4 88//4 92//4 91//4
f 95//4 96//4 100//4 99//4
f 89//49 91//49 95//49 93//49
f 93//3 94//3 90//3 89//3
f 91//4 92//4 96//4 95//4
f 101//3 102//3 98//3 97//3
f 96//50 94//50 98//50 100//50
f 93//51 95//51 99//51 97//51
f 97//3 98//3 94//3 93//3
f 103//52 104//52 102//52 101//52
f 99//4 100//4 104//4 103//4
f 100//53 98//53 102//53 104//53
f 97//54 99//54 103//54 101//54
f 107//55 105//55 106//55 108//55
f 109//56 111//56 115//56 113//56
f 109//3 110//3 106//3 105//3
f 107//4 108//4 112//4 111//4
f 108//57 106//57 110//57 112//57
f 105//58 107//58 111//58 109//58
f 113//59 115//59 119//59 117//59
f 113//3 114//3 110//3 109//3
f 111//4 112//4 116//4 115//4
f 112//60 110//60 114//60 116//60
f 120//61 118//61 122//61 124//61
f 117//3 118//3 114//3 113//3
f 115//4 116//4 120//4 119//4
f 116//62 114//62 118//62 120//62
f 123//4 124//4 128//4 127//4
f 117//63 119//63 123//63 121//63
f 121//3 122//3 118//3 117//3
f 119//4 120//4 124//4 123//4
f 127//4 128//4 132//4 131//4
f 124//64 122//64 126//64 128//64
f 121//65 123//65 127//65 125//65
f 125//3 126//3 122//3 121//3
f 133//3 134//3 130//3 129//3
f 128//66 126//66 130//66 132//66
f 125//67 127//67 131//67 129//67
f 129//3 130//3 126//3 125//3
f 133//68 135//68 139//68 137//68
f 131//4 132//4 136//4 135//4
f 132//69 130//69 134//69 136//69
f 129//70 131//70 135//70 133//70
f 140//71 138//71 142//71 144//71
f 137//3 138//3 134//3 133//3
f 135//4 136//4 140//4 139//4
f 136//72 134//72 138//72 140//72
f 144//73 142//73 146//73 148//73
f 137//74 139//74 143//74 141//74
f 141//3 142//3 138//3 137//3
f 139//4 140//4 144//4 143//4
f 147//4 148//4 152//4 151//4
f 141//75 143//75 147//75 145//75
f 145//3 146//3 142//3 141//3
f 143//4 144//4 148//4 147//4
f 153//3 154//3 150//3 149//3
f 148//76 146//76 150//76 152//76
f 145//77 147//77 151//77 149//77
f 149//3 150//3 146//3 145//3
f 155//78 156//78 154//78 153//78
f 151//4 152//4 156//4 155//4
f 152//79 150//79 154//79 156//79
f 149//80 151//80 155//80 153//80
f 159//81 157//81 158//81 160//81
f 161//82 163//82 167//82 165//82
f 161//3 162//3 158//3 157//3
f 159//4 160//4 164//4 163//4
f 160//83 158//83 162//83 164//83
f 157//84 159//84 163//84 161//84
f 165//85 167//85 171//85 169//85
f 165//3 166//3 162//3 161//3
f 163//4 164//4 168//4 167//4
f 164//86 162//86 166//86 168//86
f 172//87 170//87 174//87 176//87
f 169//3 170//3 166//3 165//3
f 167//4 168//4 172//4 171//4
f 168//88 166//88 170//88 172//88
f 175//4 176//4 180//4 179//4
f 169//89 171//89 175//89 173//89
f 173//3 174//3 170//3 169//3
f 171//4 172//4 176//4 175//4
f 179//4 180//4 184//4 183//4
f 176//90 174//90 178//90 180//90
f 173//91 175//91 179//91 177//91
f 177//3 178//3 174//3 173//3
f 185//3 186//3 182//3 181//3
f 180//92 178//92 182//92 184//92
f 177//93 179//93 183//93 181//93
f 181//3 182//3 178//3 177//3
f 185//94 187//94 191//94 189//94
f 183//4 184//4 188//4 187//4
f 184//95 182//95 186//95 188//95
f 181//96 183//96 187//96 185//96
f 192//97 190//97 194//97 196//97
f 189//3 190//3 186//3 185//3
f 187//4 188//4 192//4 191//4
f 188//98 186//98 190//98 192//98
f 196//99 194//99 198//99 200//99
f 189//100 191//100 195//100 193//100
f 193//3 194//3 190//3 189//3
f 191//4 192//4 196//4 195//4
f 199//4 200//4 204//4 203//4
f 193//101 195//101 199//101 197//101
f 197//3 198//3 194//3 193//3
f 195//4 196//4 200//4 199//4
f 205//3 206//3 202//3 201//3
f 200//102 198//102 202//102 204//102
f 197//103 199//103 203//103 201//103
f 201//3 202//3 198//3 197//3
f 207//104 208//104 206//104 205//104
f 203//4 204//4 208//4 207//4
f 204//105 202//105 206//105 208//105
f 201//106 203//106 207//106 205//106
f 211//107 209//107 210//107 212//107
f 213//108 215//108 219//108 217//108
f 213//3 214//3 210//3 209//3
f 211//4 212//4 216//4 215//4
f 212//109 210//109 214//109 216//109
f 209//110 211//110 215//110 213//110
f 217//111 219//111 223//111 221//111
f 217//3 218//3 214//3 213//3
f 215//4 216//4 220//4 219//4
f 216//112 214//112 218//112 220//112
f 224//113 222//113 226//113 228//113
f 221//3 222//3 218//3 217//3
f 219//4 220//4 224//4 223//4
f 220//114 218//114 222//114 224//114
f 227//4 228//4 232//4 231//4
f 221//115 223//115 227//115 225//115
f 225//3 226//3 222//3 221//3
f 223//4 224//4 228//4 227//4
f 231//4 232//4 236//4 235//4
f 228//116 226//116 230//116 232//116
f 225//117 227//117 231//117 229//117
f 229//3 230//3 226//3 225//3
f 237//3 238//3 234//3 233//3
f 232//118 230//118 234//118 236//118
f 229//119 231//119 235//119 233//119
f 233//3 234//3 230//3 229//3
f 237//120 239//120 243//120 241//120
f 235//4 236//4 240//4 239//4
f 236//121 234//121 238//121 240//121
f 233//122 235//122 239//122 237//122
f 244//123 242//123 246//123 248//123
f 241//3 242//3 238//3 237//3
f 239//4 240//4 244//4 243//4
f 240//124 238//124 242//124 244//124
f 248//125 246//125 250//125 252//125
f 241//126 243//126 247//126 245//126
f 245//3 246//3 242//3 241//3
f 243//4 244//4 248//4 247//4
f 251//4 252//4 256//4 255//4
f 245//127 247//127 251//127 249//127
f 249//3 250//3 246//3 245//3
f 247//4 248//4 252//4 251//4
f 257//3 258//3 254//3 253//3
f 252//128 250//128 254//128 256//128
f 249//129 251//129 255//129 253//129
f 253//3 254//3 250//3 249//3
f 259//130 260//130 258//130 257//130
f 255//4 256//4 260//4 259//4
f 256//131 254//131 258//131 260//131
f 253//132 255//132 259//132 257//132
f 263//133 261//133 262//133 264//133
f 265//134 267//134 271//134 269//134
f 265//3 266//3 262//3 261//3
f 263//4 264//4 268//4 267//4
f 264//135 262//135 266//135 268//135
f 261//136 263//136 267//136 265//136
f 269//137 271//137 275//137 273//137
f 269//3 270//3 266//3 265//3
f 267//4 268//4 272//4 271//4
f 268//138 266//138 270//138 272//138
f 276//139 274//139 278//139 280//139
f 273//3 274//3 270//3 269//3
f 271//4 272//4 276//4 275//4
f 272//140 270//140 274//140 276//140
f 279//4 280//4 284//4 283//4
f 273//141 275//141 279//141 277//141
f 277//3 278//3 274//3 273//3
f 275//4 276//4 280//4 279//4
f 283//4 284//4 288//4 287//4
f 280//142 278//142 282//142 284//142
f 277//143 279//143 283//143 281//143
f 281//3 282//3 278//3 277//3
f 289//3 290//3 286//3 285//3
f 284//144 282//144 286//144 288//144
f 281//145 283//145 287//145 285//145
f 285//3 286//3 282//3 281//3
f 287//4 288//4 292//4 291//4
f 288//146 286//146 290//146 292//146
f 285//147 287//147 291//147 289//147
f 289//148 291//148 292//148 290//148
