# Blender v2.64 (sub 0) OBJ File: 'pandaparty_fluxus.blend'
# www.blender.org
o Cube.003_Cube.005
v 0.000000 60.067902 -0.000001
v 0.000000 59.251293 -0.000001
v 51.376369 -22.144028 51.376369
v 50.699982 -21.858978 50.699982
v 51.376369 -22.144028 -51.376369
v 50.699982 -21.858978 -50.699982
v -51.376369 -22.144028 -51.376369
v -50.699982 -21.858978 -50.699982
v -51.376369 -22.144028 51.376369
v -50.699982 -21.858978 50.699982
v -50.527798 -22.001507 50.527798
v -50.527798 -22.001507 -50.527798
v 50.527798 -22.001507 -50.527798
v 50.527798 -22.001507 50.527798
v -0.559095 58.765049 -0.000001
v -50.809929 -21.636307 -50.250832
v -50.809929 -21.636307 50.250832
v 0.000000 58.765049 -0.559096
v 50.250832 -21.636307 -50.809929
v -50.250832 -21.636307 -50.809929
v 0.559095 58.765049 -0.000001
v 50.809929 -21.636307 50.250832
v 50.809929 -21.636307 -50.250832
v 0.000000 58.765049 0.559095
v -50.250832 -21.636307 50.809929
v 50.250832 -21.636307 50.809929
v -0.000000 84.930313 -0.000001
v -0.000000 83.814644 -0.000001
v 70.191360 -27.389154 70.191360
v 69.267265 -26.999716 69.267265
v 70.191360 -27.389154 -70.191360
v 69.267265 -26.999716 -69.267265
v -70.191360 -27.389154 -70.191360
v -69.267265 -26.999716 -69.267265
v -70.191360 -27.389154 70.191360
v -69.267265 -26.999716 69.267265
v -97.958710 17.237604 0.000007
v -99.265579 17.627043 0.000008
v 0.000008 17.237617 97.958710
v 0.000008 17.627056 99.265579
v 97.958710 17.237617 -0.000009
v 99.265579 17.627056 -0.000009
v -0.000008 17.237604 -97.958710
v -0.000008 17.627043 -99.265579
v 0.000004 -93.576759 0.000005
v 0.000004 -94.692429 0.000005
v -69.032021 -27.194439 69.032021
v -69.032021 -27.194439 -69.032021
v 69.032021 -27.194439 -69.032021
v 69.032021 -27.194439 69.032021
v -0.763847 83.150330 -0.000001
v -69.417480 -26.695496 -68.653633
v -69.417480 -26.695496 68.653633
v -0.000000 83.150330 -0.763847
v 68.653633 -26.695496 -69.417480
v -68.653633 -26.695496 -69.417480
v 0.763847 83.150330 -0.000001
v 69.417480 -26.695496 68.653633
v 69.417480 -26.695496 -68.653633
v -0.000000 83.150330 0.763846
v -68.653633 -26.695496 69.417480
v 68.653633 -26.695496 69.417480
v -97.626022 17.432323 0.000007
v 0.000008 17.432337 97.626022
v 97.626022 17.432337 -0.000009
v -0.000008 17.432323 -97.626022
v -0.540117 -92.912430 0.540126
v -0.540113 16.933395 97.631020
v -97.631020 16.933382 0.540128
v 0.540125 -92.912430 0.540126
v 97.631020 16.933395 0.540112
v 0.540129 16.933395 97.631020
v 0.540125 -92.912430 -0.540116
v 0.540113 16.933382 -97.631020
v 97.631020 16.933395 -0.540130
v -0.540117 -92.912430 -0.540116
v -97.631020 16.933382 -0.540113
v -0.540129 16.933382 -97.631020
vn -0.883152 0.380391 0.274491
vn 0.580166 -0.660510 0.476585
vn 0.000000 -0.986187 -0.165634
vn 0.000000 0.770325 -0.637651
vn -0.165634 -0.986187 0.000000
vn -0.637651 0.770325 0.000000
vn 0.000000 -0.986187 0.165634
vn 0.000000 0.770325 0.637651
vn 0.165634 -0.986187 0.000000
vn 0.637651 0.770325 0.000000
vn 0.896653 0.442735 0.000000
vn -0.667456 0.744649 0.000000
vn 0.580166 -0.660510 -0.476585
vn -0.883152 0.380391 -0.274491
vn -0.476589 -0.660510 0.580163
vn -0.274488 0.380393 -0.883152
vn 0.000000 0.442735 0.896653
vn 0.000000 0.744649 -0.667456
vn 0.476589 -0.660510 0.580163
vn 0.274488 0.380393 -0.883152
vn -0.580163 -0.660510 -0.476589
vn 0.883152 0.380391 -0.274491
vn -0.896653 0.442735 0.000000
vn 0.667456 0.744649 0.000000
vn -0.580163 -0.660510 0.476589
vn 0.883152 0.380391 0.274491
vn 0.476585 -0.660510 -0.580166
vn 0.274491 0.380391 0.883152
vn 0.000000 0.442735 -0.896653
vn 0.000000 0.744649 0.667456
vn -0.476585 -0.660510 -0.580166
vn -0.274491 0.380391 0.883152
vn -0.883153 0.380391 0.274489
vn 0.580156 -0.660510 0.476597
vn 0.000000 0.770333 -0.637641
vn -0.637641 0.770333 0.000000
vn 0.000000 0.770333 0.637641
vn 0.637641 0.770333 0.000000
vn 0.896650 0.442740 0.000000
vn -0.667457 0.744648 0.000000
vn 0.580156 -0.660510 -0.476597
vn -0.883153 0.380391 -0.274489
vn -0.476597 -0.660510 0.580156
vn -0.274489 0.380391 -0.883153
vn 0.000000 0.442740 0.896650
vn 0.000000 0.744648 -0.667457
vn 0.476597 -0.660510 0.580156
vn 0.274489 0.380391 -0.883153
vn -0.580156 -0.660510 -0.476597
vn 0.883153 0.380391 -0.274489
vn -0.896650 0.442740 0.000000
vn 0.667457 0.744648 0.000000
vn -0.580156 -0.660510 0.476597
vn 0.883153 0.380391 0.274489
vn 0.476597 -0.660510 -0.580156
vn 0.274489 0.380391 0.883153
vn 0.000000 0.442740 -0.896650
vn 0.000000 0.744648 0.667457
vn -0.476597 -0.660510 -0.580156
vn -0.274489 0.380391 0.883153
vn 0.450871 -0.770344 -0.450871
vn 0.117123 0.986187 -0.117123
vn -0.450871 -0.770344 -0.450871
vn -0.117123 0.986187 -0.117123
vn -0.450871 -0.770344 0.450871
vn -0.117123 0.986187 0.117123
vn 0.450871 -0.770344 0.450871
vn 0.117123 0.986187 0.117123
vn 0.073246 0.660509 -0.747236
vn -0.818579 -0.380388 0.430386
vn 0.634028 -0.442737 -0.634028
vn -0.471963 -0.744648 0.471963
vn 0.747237 0.660510 -0.073240
vn -0.430387 -0.380390 0.818578
vn -0.747236 0.660509 -0.073246
vn 0.430386 -0.380388 0.818579
vn -0.634028 -0.442737 -0.634028
vn 0.471963 -0.744648 0.471963
vn -0.073246 0.660509 -0.747236
vn 0.818580 -0.380388 0.430386
vn -0.073240 0.660510 0.747237
vn 0.818578 -0.380389 -0.430387
vn -0.634028 -0.442737 0.634028
vn 0.471963 -0.744648 -0.471963
vn -0.747236 0.660510 0.073246
vn 0.430386 -0.380388 -0.818579
vn 0.747237 0.660510 0.073240
vn -0.430387 -0.380390 -0.818578
vn 0.634028 -0.442737 0.634028
vn -0.471963 -0.744648 -0.471963
vn 0.073240 0.660510 0.747237
vn -0.818578 -0.380390 -0.430387
s off
f 1//1 7//1 16//1 15//1
f 15//2 16//2 8//2 2//2
f 11//3 14//3 3//3 9//3
f 14//4 11//4 10//4 4//4
f 14//5 13//5 5//5 3//5
f 13//6 14//6 4//6 6//6
f 13//7 12//7 7//7 5//7
f 12//8 13//8 6//8 8//8
f 12//9 11//9 9//9 7//9
f 11//10 12//10 8//10 10//10
f 16//11 17//11 10//11 8//11
f 17//12 16//12 7//12 9//12
f 17//13 15//13 2//13 10//13
f 9//14 1//14 15//14 17//14
f 18//15 19//15 6//15 2//15
f 1//16 5//16 19//16 18//16
f 19//17 20//17 8//17 6//17
f 20//18 19//18 5//18 7//18
f 20//19 18//19 2//19 8//19
f 7//20 1//20 18//20 20//20
f 21//21 22//21 4//21 2//21
f 1//22 3//22 22//22 21//22
f 22//23 23//23 6//23 4//23
f 23//24 22//24 3//24 5//24
f 23//25 21//25 2//25 6//25
f 5//26 1//26 21//26 23//26
f 24//27 25//27 10//27 2//27
f 1//28 9//28 25//28 24//28
f 25//29 26//29 4//29 10//29
f 26//30 25//30 9//30 3//30
f 26//31 24//31 2//31 4//31
f 3//32 1//32 24//32 26//32
f 52//33 51//33 27//33 33//33
f 51//34 52//34 34//34 28//34
f 47//3 50//3 29//3 35//3
f 50//35 47//35 36//35 30//35
f 50//5 49//5 31//5 29//5
f 49//36 50//36 30//36 32//36
f 49//7 48//7 33//7 31//7
f 48//37 49//37 32//37 34//37
f 48//9 47//9 35//9 33//9
f 47//38 48//38 34//38 36//38
f 52//39 53//39 36//39 34//39
f 53//40 52//40 33//40 35//40
f 53//41 51//41 28//41 36//41
f 51//42 53//42 35//42 27//42
f 54//43 55//43 32//43 28//43
f 55//44 54//44 27//44 31//44
f 55//45 56//45 34//45 32//45
f 56//46 55//46 31//46 33//46
f 56//47 54//47 28//47 34//47
f 54//48 56//48 33//48 27//48
f 57//49 58//49 30//49 28//49
f 58//50 57//50 27//50 29//50
f 58//51 59//51 32//51 30//51
f 59//52 58//52 29//52 31//52
f 59//53 57//53 28//53 32//53
f 57//54 59//54 31//54 27//54
f 60//55 61//55 36//55 28//55
f 61//56 60//56 27//56 35//56
f 61//57 62//57 30//57 36//57
f 62//58 61//58 35//58 29//58
f 62//59 60//59 28//59 30//59
f 60//60 62//60 29//60 27//60
f 63//61 64//61 39//61 37//61
f 64//62 63//62 38//62 40//62
f 64//63 65//63 41//63 39//63
f 65//64 64//64 40//64 42//64
f 65//65 66//65 43//65 41//65
f 66//66 65//66 42//66 44//66
f 66//67 63//67 37//67 43//67
f 63//68 66//68 44//68 38//68
f 67//69 68//69 39//69 45//69
f 68//70 67//70 46//70 40//70
f 68//71 69//71 37//71 39//71
f 69//72 68//72 40//72 38//72
f 69//73 67//73 45//73 37//73
f 67//74 69//74 38//74 46//74
f 70//75 71//75 41//75 45//75
f 71//76 70//76 46//76 42//76
f 71//77 72//77 39//77 41//77
f 72//78 71//78 42//78 40//78
f 72//79 70//79 45//79 39//79
f 70//80 72//80 40//80 46//80
f 73//81 74//81 43//81 45//81
f 74//82 73//82 46//82 44//82
f 74//83 75//83 41//83 43//83
f 75//84 74//84 44//84 42//84
f 75//85 73//85 45//85 41//85
f 73//86 75//86 42//86 46//86
f 76//87 77//87 37//87 45//87
f 77//88 76//88 46//88 38//88
f 77//89 78//89 43//89 37//89
f 78//90 77//90 38//90 44//90
f 78//91 76//91 45//91 43//91
f 76//92 78//92 44//92 46//92
