# Blender v2.64 (sub 0) OBJ File: 'pandaparty_fluxus.blend'
# www.blender.org
o Cube.002_Cube.013
v -57.021908 -34.281063 57.021908
v -57.782635 -34.601658 57.782635
v -57.021908 -34.281063 -57.021908
v -57.782635 -34.601658 -57.782635
v 57.021908 -34.281063 -57.021908
v 57.782635 -34.601658 -57.782635
v 57.021908 -34.281063 57.021908
v 57.782635 -34.601658 57.782635
v 0.000000 56.943050 0.000000
v 0.000000 57.861485 0.000000
v -56.828251 -34.441360 56.828251
v -56.828251 -34.441360 -56.828251
v 56.828251 -34.441360 -56.828251
v 56.828251 -34.441360 56.828251
v -0.628811 56.396172 0.000000
v -57.145561 -34.030624 -56.516750
v -57.145561 -34.030624 56.516750
v 0.000000 56.396172 -0.628811
v 56.516750 -34.030624 -57.145561
v -56.516750 -34.030624 -57.145561
v 0.628811 56.396172 0.000000
v 57.145561 -34.030624 56.516750
v 57.145561 -34.030624 -56.516750
v 0.000000 56.396172 0.628811
v -56.516750 -34.030624 57.145561
v 56.516750 -34.030624 57.145561
vn 0.637638 0.770336 0.000000
vn 0.165639 -0.986186 0.000000
vn 0.000000 0.770336 0.637638
vn 0.000000 -0.986186 0.165639
vn -0.637638 0.770336 0.000000
vn -0.165639 -0.986186 0.000000
vn 0.000000 0.770336 -0.637638
vn 0.000000 -0.986186 -0.165639
vn 0.580170 -0.660509 0.476582
vn -0.883152 0.380391 0.274490
vn 0.896659 0.442723 0.000000
vn -0.667457 0.744648 0.000000
vn 0.580170 -0.660509 -0.476582
vn -0.883152 0.380391 -0.274490
vn -0.476582 -0.660509 0.580170
vn -0.274490 0.380391 -0.883152
vn 0.000000 0.442723 0.896659
vn 0.000000 0.744648 -0.667457
vn 0.476582 -0.660509 0.580170
vn 0.274490 0.380391 -0.883152
vn -0.580170 -0.660509 -0.476582
vn 0.883152 0.380391 -0.274490
vn -0.896659 0.442723 0.000000
vn 0.667457 0.744648 0.000000
vn -0.580170 -0.660509 0.476582
vn 0.883152 0.380391 0.274490
vn 0.476582 -0.660509 -0.580170
vn 0.274490 0.380391 0.883152
vn 0.000000 0.442723 -0.896659
vn 0.000000 0.744648 0.667457
vn -0.476582 -0.660509 -0.580170
vn -0.274490 0.380391 0.883152
s off
f 3//1 1//1 11//1 12//1
f 12//2 11//2 2//2 4//2
f 12//3 13//3 5//3 3//3
f 13//4 12//4 4//4 6//4
f 13//5 14//5 7//5 5//5
f 14//6 13//6 6//6 8//6
f 1//7 7//7 14//7 11//7
f 11//8 14//8 8//8 2//8
f 15//9 16//9 3//9 9//9
f 16//10 15//10 10//10 4//10
f 1//11 3//11 16//11 17//11
f 17//12 16//12 4//12 2//12
f 9//13 1//13 17//13 15//13
f 15//14 17//14 2//14 10//14
f 18//15 19//15 5//15 9//15
f 19//16 18//16 10//16 6//16
f 19//17 20//17 3//17 5//17
f 20//18 19//18 6//18 4//18
f 20//19 18//19 9//19 3//19
f 18//20 20//20 4//20 10//20
f 21//21 22//21 7//21 9//21
f 22//22 21//22 10//22 8//22
f 22//23 23//23 5//23 7//23
f 23//24 22//24 8//24 6//24
f 23//25 21//25 9//25 5//25
f 21//26 23//26 6//26 10//26
f 1//27 9//27 24//27 25//27
f 25//28 24//28 10//28 2//28
f 7//29 1//29 25//29 26//29
f 26//30 25//30 2//30 8//30
f 26//31 24//31 9//31 7//31
f 24//32 26//32 8//32 10//32
o Cube.001_Cube.012
v -52.287842 -31.434986 52.287842
v -52.985409 -31.728962 52.985409
v -52.287842 -31.434986 -52.287842
v -52.985409 -31.728962 -52.985409
v 52.287842 -31.434986 -52.287842
v 52.985409 -31.728962 -52.985409
v 52.287842 -31.434986 52.287842
v 52.985409 -31.728962 52.985409
v 0.000000 52.215530 0.000000
v 0.000000 53.057716 0.000000
v -52.110260 -31.581974 52.110260
v -52.110260 -31.581974 -52.110260
v 52.110260 -31.581974 -52.110260
v 52.110260 -31.581974 52.110260
v -0.576605 51.714054 0.000000
v -52.401230 -31.205338 -51.824623
v -52.401230 -31.205338 51.824623
v 0.000000 51.714054 -0.576605
v 51.824623 -31.205338 -52.401230
v -51.824623 -31.205338 -52.401230
v 0.576605 51.714054 0.000000
v 52.401230 -31.205338 51.824623
v 52.401230 -31.205338 -51.824623
v 0.000000 51.714054 0.576605
v -51.824623 -31.205338 52.401230
v 51.824623 -31.205338 52.401230
vn 0.637629 0.770344 0.000000
vn 0.165638 -0.986187 0.000000
vn 0.000000 0.770344 0.637629
vn 0.000000 -0.986187 0.165638
vn -0.637629 0.770344 0.000000
vn -0.165638 -0.986187 0.000000
vn 0.000000 0.770344 -0.637629
vn 0.000000 -0.986187 -0.165638
vn 0.580163 -0.660510 0.476589
vn -0.883153 0.380391 0.274488
vn 0.896659 0.442722 0.000000
vn -0.667459 0.744647 0.000000
vn 0.580163 -0.660510 -0.476589
vn -0.883153 0.380391 -0.274488
vn -0.476589 -0.660510 0.580163
vn -0.274488 0.380391 -0.883153
vn 0.000000 0.442722 0.896659
vn 0.000000 0.744647 -0.667459
vn 0.476589 -0.660510 0.580163
vn 0.274488 0.380391 -0.883153
vn -0.580163 -0.660510 -0.476589
vn 0.883153 0.380391 -0.274488
vn -0.896659 0.442722 0.000000
vn 0.667459 0.744647 0.000000
vn -0.580163 -0.660510 0.476589
vn 0.883153 0.380391 0.274488
vn 0.476589 -0.660510 -0.580163
vn 0.274488 0.380391 0.883153
vn 0.000000 0.442722 -0.896659
vn 0.000000 0.744647 0.667459
vn -0.476589 -0.660510 -0.580163
vn -0.274488 0.380391 0.883153
s off
f 29//33 27//33 37//33 38//33
f 38//34 37//34 28//34 30//34
f 38//35 39//35 31//35 29//35
f 39//36 38//36 30//36 32//36
f 39//37 40//37 33//37 31//37
f 40//38 39//38 32//38 34//38
f 27//39 33//39 40//39 37//39
f 37//40 40//40 34//40 28//40
f 41//41 42//41 29//41 35//41
f 42//42 41//42 36//42 30//42
f 27//43 29//43 42//43 43//43
f 43//44 42//44 30//44 28//44
f 35//45 27//45 43//45 41//45
f 41//46 43//46 28//46 36//46
f 44//47 45//47 31//47 35//47
f 45//48 44//48 36//48 32//48
f 45//49 46//49 29//49 31//49
f 46//50 45//50 32//50 30//50
f 46//51 44//51 35//51 29//51
f 44//52 46//52 30//52 36//52
f 47//53 48//53 33//53 35//53
f 48//54 47//54 36//54 34//54
f 48//55 49//55 31//55 33//55
f 49//56 48//56 34//56 32//56
f 49//57 47//57 35//57 31//57
f 47//58 49//58 32//58 36//58
f 27//59 35//59 50//59 51//59
f 51//60 50//60 36//60 28//60
f 33//61 27//61 51//61 52//61
f 52//62 51//62 28//62 34//62
f 52//63 50//63 35//63 33//63
f 50//64 52//64 34//64 36//64
o Cube_Cube.011
v -47.681938 -28.665960 47.681938
v -48.318062 -28.934042 48.318062
v -47.681938 -28.665960 -47.681938
v -48.318062 -28.934042 -48.318062
v 47.681938 -28.665960 -47.681938
v 48.318062 -28.934042 -48.318062
v 47.681938 -28.665960 47.681938
v 48.318062 -28.934042 48.318062
v 0.000000 47.616001 0.000000
v 0.000000 48.384003 0.000000
v -47.520000 -28.800001 47.520000
v -47.520000 -28.800001 -47.520000
v 47.520000 -28.800001 -47.520000
v 47.520000 -28.800001 47.520000
v -0.525814 47.158699 0.000000
v -47.785339 -28.456541 -47.259525
v -47.785339 -28.456541 47.259525
v 0.000000 47.158699 -0.525814
v 47.259525 -28.456541 -47.785339
v -47.259525 -28.456541 -47.785339
v 0.525814 47.158699 0.000000
v 47.785339 -28.456541 47.259525
v 47.785339 -28.456541 -47.259525
v 0.000000 47.158699 0.525814
v -47.259525 -28.456541 47.785339
v 47.259525 -28.456541 47.785339
vn 0.637634 0.770340 0.000000
vn 0.000000 0.770340 0.637634
vn -0.637634 0.770340 0.000000
vn 0.000000 0.770340 -0.637634
vn 0.580159 -0.660511 0.476592
vn -0.883152 0.380391 0.274491
vn 0.896657 0.442726 0.000000
vn -0.667458 0.744648 0.000000
vn 0.580159 -0.660511 -0.476592
vn -0.883152 0.380391 -0.274491
vn -0.476592 -0.660511 0.580159
vn -0.274491 0.380391 -0.883152
vn 0.000000 0.442726 0.896657
vn 0.000000 0.744648 -0.667458
vn 0.476592 -0.660511 0.580159
vn 0.274491 0.380391 -0.883152
vn -0.580159 -0.660511 -0.476592
vn 0.883152 0.380391 -0.274491
vn -0.896657 0.442726 0.000000
vn 0.667458 0.744648 0.000000
vn -0.580159 -0.660511 0.476592
vn 0.883152 0.380391 0.274491
vn 0.476592 -0.660511 -0.580159
vn 0.274491 0.380391 0.883152
vn 0.000000 0.442726 -0.896657
vn 0.000000 0.744648 0.667458
vn -0.476592 -0.660511 -0.580159
vn -0.274491 0.380391 0.883152
s off
f 55//65 53//65 63//65 64//65
f 64//34 63//34 54//34 56//34
f 64//66 65//66 57//66 55//66
f 65//36 64//36 56//36 58//36
f 65//67 66//67 59//67 57//67
f 66//38 65//38 58//38 60//38
f 53//68 59//68 66//68 63//68
f 63//40 66//40 60//40 54//40
f 67//69 68//69 55//69 61//69
f 68//70 67//70 62//70 56//70
f 53//71 55//71 68//71 69//71
f 69//72 68//72 56//72 54//72
f 61//73 53//73 69//73 67//73
f 67//74 69//74 54//74 62//74
f 70//75 71//75 57//75 61//75
f 71//76 70//76 62//76 58//76
f 71//77 72//77 55//77 57//77
f 72//78 71//78 58//78 56//78
f 72//79 70//79 61//79 55//79
f 70//80 72//80 56//80 62//80
f 73//81 74//81 59//81 61//81
f 74//82 73//82 62//82 60//82
f 74//83 75//83 57//83 59//83
f 75//84 74//84 60//84 58//84
f 75//85 73//85 61//85 57//85
f 73//86 75//86 58//86 62//86
f 53//87 61//87 76//87 77//87
f 77//88 76//88 62//88 54//88
f 59//89 53//89 77//89 78//89
f 78//90 77//90 54//90 60//90
f 78//91 76//91 61//91 59//91
f 76//92 78//92 60//92 62//92
