# Blender v2.64 (sub 0) OBJ File: 'pandaparty_fluxus.blend'
# www.blender.org
o Cube.004_Cube.015
v -3.655176 38.804031 2.822113
v -3.655176 38.804031 -4.488239
v 3.655176 38.804031 -4.488239
v 3.655176 38.804031 2.822113
v 0.000000 44.652313 -0.833063
vn -0.000000 -1.000000 0.000000
vn -0.847998 0.529999 0.000000
vn 0.000000 0.529999 -0.847998
vn 0.847998 0.529999 -0.000000
vn 0.000000 0.529999 0.847998
s off
f 1//1 2//1 3//1 4//1
f 2//2 1//2 5//2
f 5//3 3//3 2//3
f 5//4 4//4 3//4
f 5//5 1//5 4//5
o Cube.004_Cube.015
v -11.859771 37.995945 2.822114
v -11.859771 37.995945 -4.488239
v -4.549418 37.995945 -4.488239
v -4.549418 37.995945 2.822114
v -8.204595 43.844227 -0.833063
s off
f 6//1 7//1 8//1 9//1
f 7//2 6//2 10//2
f 10//3 8//3 7//3
f 10//4 9//4 8//4
f 10//5 6//5 9//5
o Cube.004_Cube.015
v -19.749069 35.602757 2.822114
v -19.749069 35.602757 -4.488239
v -12.438717 35.602757 -4.488239
v -12.438717 35.602757 2.822114
v -16.093893 41.451038 -0.833063
s off
f 11//1 12//1 13//1 14//1
f 12//2 11//2 15//2
f 15//3 13//3 12//3
f 15//4 14//4 13//4
f 15//5 11//5 14//5
o Cube.004_Cube.015
v -27.019886 31.716423 2.822114
v -27.019886 31.716423 -4.488239
v -19.709534 31.716423 -4.488239
v -19.709534 31.716423 2.822114
v -23.364710 37.564705 -0.833063
s off
f 16//1 17//1 18//1 19//1
f 17//2 16//2 20//2
f 20//3 18//3 17//3
f 20//4 19//4 18//4
f 20//5 16//5 19//5
o Cube.004_Cube.015
v -33.392815 26.486300 2.822114
v -33.392815 26.486300 -4.488238
v -26.082460 26.486300 -4.488238
v -26.082460 26.486300 2.822114
v -29.737637 32.334579 -0.833062
s off
f 21//1 22//1 23//1 24//1
f 22//2 21//2 25//2
f 25//3 23//3 22//3
f 25//4 24//4 23//4
f 25//5 21//5 24//5
o Cube.004_Cube.015
v -38.622936 20.113373 2.822115
v -38.622936 20.113373 -4.488238
v -31.312582 20.113373 -4.488238
v -31.312582 20.113373 2.822115
v -34.967758 25.961655 -0.833062
s off
f 26//1 27//1 28//1 29//1
f 27//2 26//2 30//2
f 30//3 28//3 27//3
f 30//4 29//4 28//4
f 30//5 26//5 29//5
o Cube.004_Cube.015
v -42.509274 12.842556 2.822115
v -42.509274 12.842556 -4.488237
v -35.198917 12.842556 -4.488237
v -35.198917 12.842556 2.822115
v -38.854095 18.690838 -0.833061
s off
f 31//1 32//1 33//1 34//1
f 32//2 31//2 35//2
f 35//3 33//3 32//3
f 35//4 34//4 33//4
f 35//5 31//5 34//5
o Cube.004_Cube.015
v -44.902462 4.953260 2.822116
v -44.902462 4.953260 -4.488237
v -37.592106 4.953260 -4.488237
v -37.592106 4.953260 2.822116
v -41.247284 10.801542 -0.833061
s off
f 36//1 37//1 38//1 39//1
f 37//2 36//2 40//2
f 40//3 38//3 37//3
f 40//4 39//4 38//4
f 40//5 36//5 39//5
o Cube.004_Cube.015
v -45.710545 -3.251333 2.822116
v -45.710545 -3.251333 -4.488236
v -38.400188 -3.251333 -4.488236
v -38.400188 -3.251333 2.822116
v -42.055367 2.596949 -0.833060
s off
f 41//1 42//1 43//1 44//1
f 42//2 41//2 45//2
f 45//3 43//3 42//3
f 45//4 44//4 43//4
f 45//5 41//5 44//5
o Cube.004_Cube.015
v -44.902462 -11.455926 2.822117
v -44.902462 -11.455926 -4.488235
v -37.592106 -11.455926 -4.488235
v -37.592106 -11.455926 2.822117
v -41.247284 -5.607644 -0.833059
s off
f 46//1 47//1 48//1 49//1
f 47//2 46//2 50//2
f 50//3 48//3 47//3
f 50//4 49//4 48//4
f 50//5 46//5 49//5
o Cube.004_Cube.015
v -42.509274 -19.345221 2.822118
v -42.509274 -19.345221 -4.488235
v -35.198917 -19.345221 -4.488235
v -35.198917 -19.345221 2.822118
v -38.854095 -13.496939 -0.833059
s off
f 51//1 52//1 53//1 54//1
f 52//2 51//2 55//2
f 55//3 53//3 52//3
f 55//4 54//4 53//4
f 55//5 51//5 54//5
o Cube.004_Cube.015
v -38.622936 -26.616045 2.822118
v -38.622936 -26.616045 -4.488235
v -31.312582 -26.616045 -4.488235
v -31.312582 -26.616045 2.822118
v -34.967758 -20.767763 -0.833058
s off
f 56//1 57//1 58//1 59//1
f 57//2 56//2 60//2
f 60//3 58//3 57//3
f 60//4 59//4 58//4
f 60//5 56//5 59//5
o Cube.004_Cube.015
v -33.392815 -32.988972 2.822119
v -33.392815 -32.988972 -4.488234
v -26.082460 -32.988972 -4.488234
v -26.082460 -32.988972 2.822119
v -29.737637 -27.140690 -0.833058
s off
f 61//1 62//1 63//1 64//1
f 62//2 61//2 65//2
f 65//3 63//3 62//3
f 65//4 64//4 63//4
f 65//5 61//5 64//5
o Cube.004_Cube.015
v -27.019884 -38.219097 2.822119
v -27.019884 -38.219097 -4.488234
v -19.709532 -38.219097 -4.488234
v -19.709532 -38.219097 2.822119
v -23.364708 -32.370815 -0.833057
s off
f 66//1 67//1 68//1 69//1
f 67//2 66//2 70//2
f 70//3 68//3 67//3
f 70//4 69//4 68//4
f 70//5 66//5 69//5
o Cube.004_Cube.015
v -19.749062 -42.105431 2.822119
v -19.749062 -42.105431 -4.488234
v -12.438709 -42.105431 -4.488234
v -12.438709 -42.105431 2.822119
v -16.093885 -36.257149 -0.833057
s off
f 71//1 72//1 73//1 74//1
f 72//2 71//2 75//2
f 75//3 73//3 72//3
f 75//4 74//4 73//4
f 75//5 71//5 74//5
o Cube.004_Cube.015
v -11.859761 -44.498619 2.822120
v -11.859761 -44.498619 -4.488233
v -4.549409 -44.498619 -4.488233
v -4.549409 -44.498619 2.822120
v -8.204585 -38.650337 -0.833057
s off
f 76//1 77//1 78//1 79//1
f 77//2 76//2 80//2
f 80//3 78//3 77//3
f 80//4 79//4 78//4
f 80//5 76//5 79//5
o Cube.004_Cube.015
v -3.655163 -45.306702 2.822120
v -3.655163 -45.306702 -4.488233
v 3.655190 -45.306702 -4.488233
v 3.655190 -45.306702 2.822120
v 0.000014 -39.458420 -0.833057
s off
f 81//1 82//1 83//1 84//1
f 82//2 81//2 85//2
f 85//3 83//3 82//3
f 85//4 84//4 83//4
f 85//5 81//5 84//5
o Cube.004_Cube.015
v 4.549436 -44.498619 2.822120
v 4.549436 -44.498619 -4.488233
v 11.859788 -44.498619 -4.488233
v 11.859788 -44.498619 2.822120
v 8.204612 -38.650337 -0.833057
s off
f 86//1 87//1 88//1 89//1
f 87//2 86//2 90//2
f 90//3 88//3 87//3
f 90//4 89//4 88//4
f 90//5 86//5 89//5
o Cube.004_Cube.015
v 12.438734 -42.105423 2.822119
v 12.438734 -42.105423 -4.488234
v 19.749086 -42.105423 -4.488234
v 19.749086 -42.105423 2.822119
v 16.093910 -36.257141 -0.833057
s off
f 91//1 92//1 93//1 94//1
f 92//2 91//2 95//2
f 95//3 93//3 92//3
f 95//4 94//4 93//4
f 95//5 91//5 94//5
o Cube.004_Cube.015
v 19.709555 -38.219082 2.822119
v 19.709555 -38.219082 -4.488234
v 27.019907 -38.219082 -4.488234
v 27.019907 -38.219082 2.822119
v 23.364731 -32.370800 -0.833057
s off
f 96//1 97//1 98//1 99//1
f 97//2 96//2 100//2
f 100//3 98//3 97//3
f 100//4 99//4 98//4
f 100//5 96//5 99//5
o Cube.004_Cube.015
v 26.082479 -32.988953 2.822119
v 26.082479 -32.988953 -4.488234
v 33.392834 -32.988953 -4.488234
v 33.392834 -32.988953 2.822119
v 29.737656 -27.140671 -0.833058
s off
f 101//1 102//1 103//1 104//1
f 102//2 101//2 105//2
f 105//3 103//3 102//3
f 105//4 104//4 103//4
f 105//5 101//5 104//5
o Cube.004_Cube.015
v 31.312601 -26.616022 2.822118
v 31.312601 -26.616022 -4.488235
v 38.622955 -26.616022 -4.488235
v 38.622955 -26.616022 2.822118
v 34.967777 -20.767740 -0.833058
s off
f 106//1 107//1 108//1 109//1
f 107//2 106//2 110//2
f 110//3 108//3 107//3
f 110//4 109//4 108//4
f 110//5 106//5 109//5
o Cube.004_Cube.015
v 35.198925 -19.345196 2.822118
v 35.198925 -19.345196 -4.488235
v 42.509281 -19.345196 -4.488235
v 42.509281 -19.345196 2.822118
v 38.854103 -13.496914 -0.833059
s off
f 111//1 112//1 113//1 114//1
f 112//2 111//2 115//2
f 115//3 113//3 112//3
f 115//4 114//4 113//4
f 115//5 111//5 114//5
o Cube.004_Cube.015
v 37.592113 -11.455894 2.822117
v 37.592113 -11.455894 -4.488235
v 44.902470 -11.455894 -4.488235
v 44.902470 -11.455894 2.822117
v 41.247292 -5.607613 -0.833059
s off
f 116//1 117//1 118//1 119//1
f 117//2 116//2 120//2
f 120//3 118//3 117//3
f 120//4 119//4 118//4
f 120//5 116//5 119//5
o Cube.004_Cube.015
v 38.400188 -3.251296 2.822116
v 38.400188 -3.251296 -4.488236
v 45.710545 -3.251296 -4.488236
v 45.710545 -3.251296 2.822116
v 42.055367 2.596986 -0.833060
s off
f 121//1 122//1 123//1 124//1
f 122//2 121//2 125//2
f 125//3 123//3 122//3
f 125//4 124//4 123//4
f 125//5 121//5 124//5
o Cube.004_Cube.015
v 37.592098 4.953302 2.822116
v 37.592098 4.953302 -4.488237
v 44.902454 4.953302 -4.488237
v 44.902454 4.953302 2.822116
v 41.247276 10.801584 -0.833061
s off
f 126//1 127//1 128//1 129//1
f 127//2 126//2 130//2
f 130//3 128//3 127//3
f 130//4 129//4 128//4
f 130//5 126//5 129//5
o Cube.004_Cube.015
v 35.198895 12.842599 2.822115
v 35.198895 12.842599 -4.488237
v 42.509251 12.842599 -4.488237
v 42.509251 12.842599 2.822115
v 38.854073 18.690880 -0.833061
s off
f 131//1 132//1 133//1 134//1
f 132//2 131//2 135//2
f 135//3 133//3 132//3
f 135//4 134//4 133//4
f 135//5 131//5 134//5
o Cube.004_Cube.015
v 31.312555 20.113417 2.822115
v 31.312555 20.113417 -4.488238
v 38.622910 20.113417 -4.488238
v 38.622910 20.113417 2.822115
v 34.967731 25.961699 -0.833062
s off
f 136//1 137//1 138//1 139//1
f 137//2 136//2 140//2
f 140//3 138//3 137//3
f 140//4 139//4 138//4
f 140//5 136//5 139//5
o Cube.004_Cube.015
v 26.082418 26.486340 2.822114
v 26.082418 26.486340 -4.488238
v 33.392773 26.486340 -4.488238
v 33.392773 26.486340 2.822114
v 29.737595 32.334621 -0.833062
s off
f 141//1 142//1 143//1 144//1
f 142//2 141//2 145//2
f 145//3 143//3 142//3
f 145//4 144//4 143//4
f 145//5 141//5 144//5
o Cube.004_Cube.015
v 19.709486 31.716454 2.822114
v 19.709486 31.716454 -4.488239
v 27.019838 31.716454 -4.488239
v 27.019838 31.716454 2.822114
v 23.364662 37.564735 -0.833063
s off
f 146//1 147//1 148//1 149//1
f 147//2 146//2 150//2
f 150//3 148//3 147//3
f 150//4 149//4 148//4
f 150//5 146//5 149//5
o Cube.004_Cube.015
v 12.438658 35.602779 2.822114
v 12.438658 35.602779 -4.488239
v 19.749010 35.602779 -4.488239
v 19.749010 35.602779 2.822114
v 16.093834 41.451061 -0.833063
s off
f 151//1 152//1 153//1 154//1
f 152//2 151//2 155//2
f 155//3 153//3 152//3
f 155//4 154//4 153//4
f 155//5 151//5 154//5
o Cube.004_Cube.015
v 4.549356 37.995964 2.822114
v 4.549356 37.995964 -4.488239
v 11.859708 37.995964 -4.488239
v 11.859708 37.995964 2.822114
v 8.204532 43.844246 -0.833063
s off
f 156//1 157//1 158//1 159//1
f 157//2 156//2 160//2
f 160//3 158//3 157//3
f 160//4 159//4 158//4
f 160//5 156//5 159//5
