# Blender v2.64 (sub 0) OBJ File: 'shapes.blend'
# www.blender.org
v 30.722195 -16.073313 3.000001
v 32.167175 -18.571157 3.000001
v 29.284473 -18.571157 3.000001
v -29.284470 -18.571157 3.000001
v -32.167175 -18.571157 3.000001
v -30.722187 -16.073313 3.000001
v -1.444981 34.646271 2.999997
v 0.000000 37.144119 2.999997
v 1.444981 34.646271 2.999997
v 26.394510 -15.238287 3.000001
v 0.000000 30.471060 2.999998
v -26.394510 -15.238287 3.000001
v 30.722195 -16.073313 -2.999999
v 32.167175 -18.571157 -2.999999
v 29.284473 -18.571157 -2.999999
v -29.284470 -18.571157 -2.999999
v -32.167175 -18.571157 -2.999999
v -30.722187 -16.073313 -2.999999
v -1.444981 34.646271 -3.000003
v 0.000000 37.144119 -3.000003
v 1.444981 34.646271 -3.000003
v 26.394510 -15.238287 -2.999999
v 0.000000 30.471060 -3.000002
v -26.394510 -15.238287 -2.999999
v 30.722195 -16.073313 -2.999999
v 30.722195 -16.073313 3.000001
v 32.167175 -18.571157 -2.999999
v 32.167175 -18.571157 3.000001
v 29.284473 -18.571157 -2.999999
v 29.284473 -18.571157 3.000001
v -29.284470 -18.571157 -2.999999
v -29.284470 -18.571157 3.000001
v -32.167175 -18.571157 -2.999999
v -32.167175 -18.571157 3.000001
v -30.722187 -16.073313 -2.999999
v -30.722187 -16.073313 3.000001
v -1.444981 34.646271 -3.000003
v -1.444981 34.646271 2.999997
v 0.000000 37.144119 -3.000003
v 0.000000 37.144119 2.999997
v 1.444981 34.646271 -3.000003
v 1.444981 34.646271 2.999997
v 26.394510 -15.238287 -2.999999
v 26.394510 -15.238287 3.000001
v 0.000000 30.471060 -3.000002
v 0.000000 30.471060 2.999998
v -26.394510 -15.238287 -2.999999
v -26.394510 -15.238287 3.000001
vn 0.000000 0.000000 1.000000
vn 0.000000 0.000000 0.000000
vn 0.000000 -0.000000 -1.000000
vn 0.865810 0.500320 0.000000
vn 0.866237 -0.499619 0.000000
vn 0.000000 -1.000000 0.000000
vn -0.866237 -0.499619 0.000000
vn -0.865810 0.500320 0.000000
vn 0.000000 1.000000 0.000000
vn -0.866024 0.499954 0.000000
vn 0.000000 -0.999969 0.000000
vn 0.866024 0.499954 0.000000
s off
f 7//1 9//1 8//1
f 6//1 9//1 7//1
f 6//1 11//1 9//1
f 11//1 1//1 9//1
f 6//1 12//1 11//1
f 10//1 1//1 11//1
f 6//1 10//1 12//1
f 6//1 1//1 10//1
f 5//1 1//1 6//1
f 2//1 1//1 5//1
f 4//2 2//2 5//2
f 3//2 2//2 4//2
f 21//3 19//3 20//3
f 21//3 18//3 19//3
f 23//3 18//3 21//3
f 13//3 23//3 21//3
f 24//3 18//3 23//3
f 13//3 22//3 23//3
f 22//3 18//3 24//3
f 13//3 18//3 22//3
f 13//3 17//3 18//3
f 14//3 17//3 13//3
f 14//2 16//2 17//2
f 14//2 15//2 16//2
s 1
f 26//4 28//5 27//5 25//4
f 28//5 30//6 29//6 27//5
f 30//6 32//6 31//6 29//6
f 32//6 34//7 33//7 31//6
f 34//7 36//8 35//8 33//7
f 36//8 38//8 37//8 35//8
f 38//8 40//9 39//9 37//8
f 40//9 42//4 41//4 39//9
f 42//4 26//4 25//4 41//4
f 44//10 46//11 45//6 43//10
f 46//11 48//12 47//12 45//6
f 48//12 44//10 43//10 47//12
